<svg width="231" height="93" viewBox="0 0 231 93" fill="none" xmlns="http://www.w3.org/2000/svg">
<g id="logo" clip-path="url(#clip0_1_5)">
<g id="Layer_1">
<path id="Vector" d="M0 11.7262C0 5.24947 5.29856 0 11.8359 0H188.147C194.682 0 199.982 5.24947 199.982 11.7262V40.0304C199.982 46.5057 194.684 51.7566 188.147 51.7566H11.8359C5.29856 51.7566 0 46.5072 0 40.0304V11.7262Z" fill="black"/>
<path id="Vector_2" d="M60.4022 51.7566C67.6151 51.7566 73.4623 58.3578 73.4623 65.5039V80.0608C73.4623 87.207 79.3095 93 86.5225 93H217.94C225.153 93 231 87.207 231 80.0608V64.6958C231 57.5496 225.153 51.7566 217.94 51.7566H212.225C205.687 51.7566 200.937 47.0521 199.981 40.8386C199.974 40.8543 199.964 40.8701 199.951 40.8858C199.507 46.962 194.392 51.7552 188.147 51.7552H60.4022V51.7566Z" fill="#00EC97"/>
<path id="Vector_3" fill-rule="evenodd" clip-rule="evenodd" d="M24.4788 39.6256L27.2089 32.571H39.5299L42.26 39.6256H46.7096L36.0908 12.1296H30.837L20.2183 39.6256H24.4759H24.4788ZM28.6382 28.8864L33.3881 16.6195L38.1049 28.8864H28.6382Z" fill="white"/>
<path id="Vector_4" d="M53.4649 39.6256V19.0039H49.3835V39.6256H53.4649Z" fill="white"/>
<path id="Vector_5" d="M53.4649 12.131H49.3835V16.1746H53.4649V12.131Z" fill="white"/>
<path id="Vector_6" d="M77.4875 25.1502L72.0662 24.4308L71.34 19.0597C71.2563 18.4461 70.3626 18.4461 70.2803 19.0597L69.5541 24.4308L64.1328 25.1502C63.5135 25.2332 63.5135 26.1186 64.1328 26.2001L69.5541 26.9196L70.2803 32.2907C70.3641 32.9043 71.2577 32.9043 71.34 32.2907L72.0662 26.9196L77.4875 26.2001C78.1069 26.1172 78.1069 25.2318 77.4875 25.1502Z" fill="#00EC97"/>
<path id="Vector_7" d="M179.577 12.131H175.39V32.1762L155.346 12.1753H151.823V39.627H156.01V18.8738L176.549 39.627H179.575V12.131H179.577Z" fill="white"/>
<path id="Vector_8" d="M147.742 39.6256V35.4775H127.509L147.697 15.6197V12.131H119.989V16.2791H140.936L119.989 36.6276V39.6256H147.742Z" fill="white"/>
<path id="Vector_9" d="M88.1554 39.6256H92.3134V27.9981H111.732V39.6256H115.909V12.131H111.732V23.6455H92.3134V12.131H88.1554V39.627V39.6256Z" fill="white"/>
<path id="Vector_10" d="M105.973 68.1301H108.05L110.486 74.5596H110.622L113.049 68.1301H115.076V68.3833L110.187 80.2225H108.16V79.9693L109.48 76.8725L105.97 68.3833V68.1301H105.973Z" fill="black"/>
<path id="Vector_11" d="M96.7255 64.6958H98.7438V69.0842H98.8709C99.5177 68.266 100.498 67.9456 101.639 67.9456C103.878 67.9456 105.667 69.4303 105.667 72.4942C105.667 75.558 103.878 77.0342 101.639 77.0342C100.472 77.0342 99.4672 76.7052 98.8276 75.8355H98.6919V76.8482H96.724V64.6972L96.7255 64.6958ZM98.6601 72.4927C98.6601 74.3994 99.6563 75.455 101.148 75.455C102.639 75.455 103.635 74.3994 103.635 72.4927C103.635 70.586 102.639 69.5219 101.148 69.5219C99.6563 69.5219 98.6601 70.5775 98.6601 72.4927Z" fill="black"/>
<path id="Vector_12" d="M141.708 62.2699C140.952 62.2699 140.25 62.6575 139.855 63.2954L135.588 69.5705C135.45 69.7765 135.506 70.0554 135.714 70.1941C135.883 70.3057 136.107 70.2914 136.261 70.1612L140.461 66.5538C140.53 66.4909 140.639 66.4981 140.701 66.5667C140.73 66.5982 140.744 66.6397 140.744 66.6811V77.9782C140.744 78.0712 140.667 78.147 140.574 78.147C140.523 78.147 140.475 78.1256 140.444 78.0869L127.752 63.0351C127.339 62.5517 126.731 62.2727 126.093 62.2727H125.65C124.448 62.2727 123.475 63.2368 123.475 64.4269V80.3369C123.475 81.5256 124.448 82.4911 125.65 82.4911C126.406 82.4911 127.106 82.1034 127.503 81.4655L131.77 75.1904C131.908 74.9845 131.852 74.7055 131.644 74.5668C131.475 74.4552 131.251 74.4695 131.097 74.5997L126.898 78.2071C126.829 78.27 126.721 78.2629 126.659 78.1942C126.63 78.1627 126.615 78.1213 126.615 78.0798V66.7798C126.615 66.6869 126.692 66.6111 126.786 66.6111C126.836 66.6111 126.884 66.6325 126.916 66.6711L139.606 81.7258C140.019 82.2093 140.627 82.4882 141.265 82.4882H141.708C142.91 82.4882 143.883 81.5256 143.884 80.3355V64.424C143.884 63.2354 142.911 62.2699 141.71 62.2699H141.708Z" fill="black"/>
<path id="Vector_13" d="M158.094 65.1335C156.546 65.1335 155.421 65.4954 154.465 66.3307L152.778 67.7797C152.636 67.8912 152.356 67.9756 152.158 67.8069C151.96 67.6395 151.933 67.4164 152.102 67.1947L153.001 65.8573C153.143 65.6613 153.03 65.411 152.776 65.411H150.611C150.358 65.411 150.16 65.6055 150.16 65.8573V78.898C150.16 79.1483 150.358 79.3442 150.611 79.3442H152.861C153.114 79.3442 153.312 79.1483 153.312 78.898V71.5416C153.312 68.1702 156.153 67.6409 157.221 67.6409C159.5 67.6409 160.315 69.2573 160.315 70.4831V78.898C160.315 79.1483 160.513 79.3442 160.766 79.3442H163.015C163.268 79.3442 163.466 79.1483 163.466 78.898V70.2042C163.466 67.0831 161.413 65.1335 158.094 65.1335Z" fill="black"/>
<path id="Vector_14" d="M172.634 65.0777C168.275 65.0777 165.49 67.7253 165.49 71.3198V73.2981C165.49 77.0871 168.275 79.6789 172.634 79.6789C176.487 79.6789 179.187 77.7007 179.468 75.0259C179.497 74.747 179.299 74.5525 179.018 74.5525H176.825C176.627 74.5525 176.459 74.6641 176.402 74.8586C176.12 75.7497 174.799 77.0871 172.634 77.0871C170.468 77.0871 168.442 75.5266 168.471 73.2981L168.5 70.8192C168.527 68.9526 170.497 67.671 172.635 67.671C174.575 67.671 176.461 68.758 176.657 70.5417C176.673 70.7477 176.53 70.9336 176.325 70.9737L170.019 72.1852C169.766 72.241 169.568 72.4641 169.568 72.7431V72.7702C169.568 73.0206 169.821 73.2437 170.188 73.2437H179.244C179.493 73.2437 179.695 73.0434 179.695 72.7974V71.0424C179.695 67.7268 176.797 65.0806 172.635 65.0806L172.634 65.0777Z" fill="black"/>
<path id="Vector_15" d="M188.327 65.0777C184.812 65.0777 181.774 67.1117 181.774 69.7865C181.774 70.0096 181.972 70.177 182.224 70.177H184.503C184.728 70.177 184.897 70.0096 184.926 69.7865C185.151 68.5607 186.641 67.6695 188.245 67.6695C190.158 67.6695 191.451 68.8396 191.451 70.8464V73.2709C191.451 75.7497 189.595 77.0041 187.289 77.0041C185.489 77.0041 184.448 76.3347 184.448 75.2491C184.448 74.3007 184.954 73.494 187.035 73.0206L190.044 72.2124C190.353 72.1294 190.467 71.8777 190.409 71.6002C190.382 71.3771 190.129 71.2655 189.902 71.2655H186.781C184.137 71.2655 181.465 72.9376 181.465 75.3893V75.7797C181.465 78.2872 183.856 79.5974 186.583 79.5974C188.327 79.5974 189.817 78.928 190.745 78.1484L192.124 76.9784C192.349 76.7824 192.575 76.7824 192.771 76.9784C192.94 77.1458 192.884 77.3975 192.742 77.592L191.899 78.9023C191.757 79.0982 191.87 79.3485 192.124 79.3485H194.15C194.402 79.3485 194.6 79.1526 194.6 78.9023V70.4602C194.6 67.2275 192.266 65.0834 188.329 65.0834L188.327 65.0777Z" fill="black"/>
<path id="Vector_16" d="M206.748 65.4124H203.598C202.5 65.4124 201.432 66.0818 200.673 66.7226L199.435 67.7811C199.294 67.8927 199.041 67.9756 198.872 67.8369C198.674 67.6967 198.591 67.4192 198.76 67.1961L199.659 65.8587C199.801 65.6627 199.688 65.4124 199.434 65.4124H197.325C197.072 65.4124 196.874 65.6083 196.874 65.8587V78.8994C196.874 79.1497 197.072 79.3456 197.325 79.3456H199.63C199.883 79.3456 200.081 79.1497 200.081 78.8994V72.2124C200.081 69.3416 201.262 68.06 203.821 68.06H206.746C206.999 68.06 207.197 67.864 207.197 67.6137V65.8587C207.197 65.6083 206.999 65.4124 206.746 65.4124H206.748Z" fill="black"/>
<path id="Vector_17" d="M0 11.7262C0 5.24947 5.29856 0 11.8359 0H188.147C194.682 0 199.982 5.24947 199.982 11.7262V40.0304C199.982 46.5057 194.684 51.7566 188.147 51.7566H11.8359C5.29856 51.7566 0 46.5072 0 40.0304V11.7262Z" fill="black"/>
<path id="Vector_18" fill-rule="evenodd" clip-rule="evenodd" d="M24.4788 39.6256L27.2089 32.571H39.5299L42.26 39.6256H46.7096L36.0908 12.1296H30.837L20.2183 39.6256H24.4759H24.4788ZM28.6382 28.8864L33.3881 16.6195L38.1049 28.8864H28.6382Z" fill="white"/>
<path id="Vector_19" d="M53.4649 39.6256V19.0039H49.3835V39.6256H53.4649Z" fill="white"/>
<path id="Vector_20" d="M53.4649 12.131H49.3835V16.1746H53.4649V12.131Z" fill="white"/>
<path id="Vector_21" d="M77.4875 25.1502L72.0662 24.4308L71.34 19.0597C71.2563 18.4461 70.3626 18.4461 70.2803 19.0597L69.5541 24.4308L64.1328 25.1502C63.5135 25.2332 63.5135 26.1186 64.1328 26.2001L69.5541 26.9196L70.2803 32.2907C70.3641 32.9043 71.2577 32.9043 71.34 32.2907L72.0662 26.9196L77.4875 26.2001C78.1069 26.1172 78.1069 25.2318 77.4875 25.1502Z" fill="#00EC97"/>
<path id="Vector_22" d="M179.577 12.131H175.39V32.1762L155.346 12.1753H151.823V39.627H156.01V18.8738L176.549 39.627H179.575V12.131H179.577Z" fill="white"/>
<path id="Vector_23" d="M147.742 39.6256V35.4775H127.509L147.697 15.6197V12.131H119.989V16.2791H140.936L119.989 36.6276V39.6256H147.742Z" fill="white"/>
<path id="Vector_24" d="M88.1554 39.6256H92.3134V27.9981H111.732V39.6256H115.909V12.131H111.732V23.6455H92.3134V12.131H88.1554V39.627V39.6256Z" fill="white"/>
<path id="Vector_25" d="M105.973 68.1301H108.05L110.486 74.5596H110.622L113.049 68.1301H115.076V68.3833L110.187 80.2225H108.16V79.9693L109.48 76.8725L105.97 68.3833V68.1301H105.973Z" fill="black"/>
<path id="Vector_26" d="M96.7255 64.6958H98.7438V69.0842H98.8709C99.5177 68.266 100.498 67.9456 101.639 67.9456C103.878 67.9456 105.667 69.4303 105.667 72.4942C105.667 75.558 103.878 77.0342 101.639 77.0342C100.472 77.0342 99.4672 76.7052 98.8276 75.8355H98.6919V76.8482H96.724V64.6972L96.7255 64.6958ZM98.6601 72.4927C98.6601 74.3994 99.6563 75.455 101.148 75.455C102.639 75.455 103.635 74.3994 103.635 72.4927C103.635 70.586 102.639 69.5219 101.148 69.5219C99.6563 69.5219 98.6601 70.5775 98.6601 72.4927Z" fill="black"/>
<path id="Vector_27" d="M141.708 62.2699C140.952 62.2699 140.25 62.6575 139.855 63.2954L135.588 69.5705C135.45 69.7765 135.506 70.0554 135.714 70.1941C135.883 70.3057 136.107 70.2914 136.261 70.1612L140.461 66.5538C140.53 66.4909 140.639 66.4981 140.701 66.5667C140.73 66.5982 140.744 66.6397 140.744 66.6811V77.9782C140.744 78.0712 140.667 78.147 140.574 78.147C140.523 78.147 140.475 78.1256 140.444 78.0869L127.752 63.0351C127.339 62.5517 126.731 62.2727 126.093 62.2727H125.65C124.448 62.2727 123.475 63.2368 123.475 64.4269V80.3369C123.475 81.5256 124.448 82.4911 125.65 82.4911C126.406 82.4911 127.106 82.1034 127.503 81.4655L131.77 75.1904C131.908 74.9845 131.852 74.7055 131.644 74.5668C131.475 74.4552 131.251 74.4695 131.097 74.5997L126.898 78.2071C126.829 78.27 126.721 78.2629 126.659 78.1942C126.63 78.1627 126.615 78.1213 126.615 78.0798V66.7798C126.615 66.6869 126.692 66.6111 126.786 66.6111C126.836 66.6111 126.884 66.6325 126.916 66.6711L139.606 81.7258C140.019 82.2093 140.627 82.4882 141.265 82.4882H141.708C142.91 82.4882 143.883 81.5256 143.884 80.3355V64.424C143.884 63.2354 142.911 62.2699 141.71 62.2699H141.708Z" fill="black"/>
<path id="Vector_28" d="M158.094 65.1335C156.546 65.1335 155.421 65.4954 154.465 66.3307L152.778 67.7797C152.636 67.8912 152.356 67.9756 152.158 67.8069C151.96 67.6395 151.933 67.4164 152.102 67.1947L153.001 65.8573C153.143 65.6613 153.03 65.411 152.776 65.411H150.611C150.358 65.411 150.16 65.6055 150.16 65.8573V78.898C150.16 79.1483 150.358 79.3442 150.611 79.3442H152.861C153.114 79.3442 153.312 79.1483 153.312 78.898V71.5416C153.312 68.1702 156.153 67.6409 157.221 67.6409C159.5 67.6409 160.315 69.2573 160.315 70.4831V78.898C160.315 79.1483 160.513 79.3442 160.766 79.3442H163.015C163.268 79.3442 163.466 79.1483 163.466 78.898V70.2042C163.466 67.0831 161.413 65.1335 158.094 65.1335Z" fill="black"/>
<path id="Vector_29" d="M172.634 65.0777C168.275 65.0777 165.49 67.7253 165.49 71.3198V73.2981C165.49 77.0871 168.275 79.6789 172.634 79.6789C176.487 79.6789 179.187 77.7007 179.468 75.0259C179.497 74.747 179.299 74.5525 179.018 74.5525H176.825C176.627 74.5525 176.459 74.6641 176.402 74.8586C176.12 75.7497 174.799 77.0871 172.634 77.0871C170.468 77.0871 168.442 75.5266 168.471 73.2981L168.5 70.8192C168.527 68.9526 170.497 67.671 172.635 67.671C174.575 67.671 176.461 68.758 176.657 70.5417C176.673 70.7477 176.53 70.9336 176.325 70.9737L170.019 72.1852C169.766 72.241 169.568 72.4641 169.568 72.7431V72.7702C169.568 73.0206 169.821 73.2437 170.188 73.2437H179.244C179.493 73.2437 179.695 73.0434 179.695 72.7974V71.0424C179.695 67.7268 176.797 65.0806 172.635 65.0806L172.634 65.0777Z" fill="black"/>
<path id="Vector_30" d="M188.327 65.0777C184.812 65.0777 181.774 67.1117 181.774 69.7865C181.774 70.0096 181.972 70.177 182.224 70.177H184.503C184.728 70.177 184.897 70.0096 184.926 69.7865C185.151 68.5607 186.641 67.6695 188.245 67.6695C190.158 67.6695 191.451 68.8396 191.451 70.8464V73.2709C191.451 75.7497 189.595 77.0041 187.289 77.0041C185.489 77.0041 184.448 76.3347 184.448 75.2491C184.448 74.3007 184.954 73.494 187.035 73.0206L190.044 72.2124C190.353 72.1294 190.467 71.8777 190.409 71.6002C190.382 71.3771 190.129 71.2655 189.902 71.2655H186.781C184.137 71.2655 181.465 72.9376 181.465 75.3893V75.7797C181.465 78.2872 183.856 79.5974 186.583 79.5974C188.327 79.5974 189.817 78.928 190.745 78.1484L192.124 76.9784C192.349 76.7824 192.575 76.7824 192.771 76.9784C192.94 77.1458 192.884 77.3975 192.742 77.592L191.899 78.9023C191.757 79.0982 191.87 79.3485 192.124 79.3485H194.15C194.402 79.3485 194.6 79.1526 194.6 78.9023V70.4602C194.6 67.2275 192.266 65.0834 188.329 65.0834L188.327 65.0777Z" fill="black"/>
<path id="Vector_31" d="M206.748 65.4124H203.598C202.5 65.4124 201.432 66.0818 200.673 66.7226L199.435 67.7811C199.294 67.8927 199.041 67.9756 198.872 67.8369C198.674 67.6967 198.591 67.4192 198.76 67.1961L199.659 65.8587C199.801 65.6627 199.688 65.4124 199.434 65.4124H197.325C197.072 65.4124 196.874 65.6083 196.874 65.8587V78.8994C196.874 79.1497 197.072 79.3456 197.325 79.3456H199.63C199.883 79.3456 200.081 79.1497 200.081 78.8994V72.2124C200.081 69.3416 201.262 68.06 203.821 68.06H206.746C206.999 68.06 207.197 67.864 207.197 67.6137V65.8587C207.197 65.6083 206.999 65.4124 206.746 65.4124H206.748Z" fill="black"/>
</g>
<g id="black">
<path id="Vector_32" d="M0 11.7262C0 5.24947 5.29856 0 11.8359 0H188.147C194.682 0 199.982 5.24947 199.982 11.7262V40.0304C199.982 46.5057 194.684 51.7566 188.147 51.7566H11.8359C5.29856 51.7566 0 46.5072 0 40.0304V11.7262Z" fill="black"/>
</g>
<g id="green">
<path id="Vector_33" d="M60.4022 51.7566C67.6151 51.7566 73.4623 58.3578 73.4623 65.5039V80.0608C73.4623 87.207 79.3095 93 86.5225 93H217.94C225.153 93 231 87.207 231 80.0608V64.6958C231 57.5496 225.153 51.7566 217.94 51.7566H212.225C205.687 51.7566 200.937 47.0521 199.981 40.8386C199.974 40.8543 199.964 40.8701 199.951 40.8858C199.507 46.962 194.392 51.7552 188.147 51.7552H60.4022V51.7566Z" fill="#9797FF"/>
</g>
<g id="near">
<path id="Vector_34" d="M158.094 65.1335C156.546 65.1335 155.421 65.4954 154.465 66.3307L152.778 67.7797C152.636 67.8912 152.356 67.9756 152.158 67.8069C151.96 67.6395 151.933 67.4164 152.102 67.1947L153.001 65.8573C153.143 65.6613 153.03 65.411 152.776 65.411H150.611C150.358 65.411 150.16 65.6055 150.16 65.8573V78.898C150.16 79.1483 150.358 79.3442 150.611 79.3442H152.861C153.114 79.3442 153.312 79.1483 153.312 78.898V71.5416C153.312 68.1702 156.153 67.6409 157.221 67.6409C159.5 67.6409 160.315 69.2573 160.315 70.4831V78.898C160.315 79.1483 160.513 79.3442 160.766 79.3442H163.015C163.268 79.3442 163.466 79.1483 163.466 78.898V70.2042C163.466 67.0831 161.413 65.1335 158.094 65.1335Z" fill="black"/>
<path id="Vector_35" d="M172.634 65.0777C168.275 65.0777 165.49 67.7253 165.49 71.3198V73.2981C165.49 77.0871 168.275 79.6789 172.634 79.6789C176.487 79.6789 179.187 77.7007 179.468 75.0259C179.497 74.747 179.299 74.5525 179.018 74.5525H176.825C176.627 74.5525 176.459 74.6641 176.402 74.8586C176.12 75.7497 174.799 77.0871 172.634 77.0871C170.468 77.0871 168.442 75.5266 168.471 73.2981L168.5 70.8192C168.527 68.9526 170.497 67.671 172.635 67.671C174.575 67.671 176.461 68.758 176.657 70.5417C176.673 70.7477 176.53 70.9336 176.325 70.9737L170.019 72.1852C169.766 72.241 169.568 72.4641 169.568 72.7431V72.7702C169.568 73.0206 169.821 73.2437 170.188 73.2437H179.244C179.493 73.2437 179.695 73.0434 179.695 72.7974V71.0424C179.695 67.7268 176.797 65.0806 172.635 65.0806L172.634 65.0777Z" fill="black"/>
<path id="Vector_36" d="M188.327 65.0777C184.812 65.0777 181.774 67.1117 181.774 69.7865C181.774 70.0096 181.972 70.177 182.224 70.177H184.503C184.728 70.177 184.897 70.0096 184.926 69.7865C185.151 68.5607 186.641 67.6695 188.245 67.6695C190.158 67.6695 191.451 68.8396 191.451 70.8464V73.2709C191.451 75.7497 189.595 77.0041 187.289 77.0041C185.489 77.0041 184.448 76.3347 184.448 75.2491C184.448 74.3007 184.954 73.494 187.035 73.0206L190.044 72.2124C190.353 72.1294 190.467 71.8777 190.409 71.6002C190.382 71.3771 190.129 71.2655 189.902 71.2655H186.781C184.137 71.2655 181.465 72.9376 181.465 75.3893V75.7797C181.465 78.2872 183.856 79.5974 186.583 79.5974C188.327 79.5974 189.817 78.928 190.745 78.1484L192.124 76.9784C192.349 76.7824 192.575 76.7824 192.771 76.9784C192.94 77.1458 192.884 77.3975 192.742 77.592L191.899 78.9023C191.757 79.0982 191.87 79.3485 192.124 79.3485H194.15C194.402 79.3485 194.6 79.1526 194.6 78.9023V70.4602C194.6 67.2275 192.266 65.0834 188.329 65.0834L188.327 65.0777Z" fill="black"/>
<path id="Vector_37" d="M206.748 65.4124H203.598C202.5 65.4124 201.432 66.0818 200.673 66.7226L199.435 67.7811C199.294 67.8927 199.041 67.9756 198.872 67.8369C198.674 67.6967 198.591 67.4192 198.76 67.1961L199.659 65.8587C199.801 65.6627 199.688 65.4124 199.434 65.4124H197.325C197.072 65.4124 196.874 65.6084 196.874 65.8587V78.8994C196.874 79.1497 197.072 79.3457 197.325 79.3457H199.63C199.883 79.3457 200.081 79.1497 200.081 78.8994V72.2124C200.081 69.3417 201.262 68.06 203.821 68.06H206.746C206.999 68.06 207.197 67.8641 207.197 67.6138V65.8587C207.197 65.6084 206.999 65.4124 206.746 65.4124H206.748Z" fill="black"/>
<path id="Vector_38" d="M158.094 65.1335C156.546 65.1335 155.421 65.4954 154.465 66.3307L152.778 67.7797C152.636 67.8912 152.356 67.9756 152.158 67.8069C151.96 67.6395 151.933 67.4164 152.102 67.1947L153.001 65.8573C153.143 65.6613 153.03 65.411 152.776 65.411H150.611C150.358 65.411 150.16 65.6055 150.16 65.8573V78.898C150.16 79.1483 150.358 79.3442 150.611 79.3442H152.861C153.114 79.3442 153.312 79.1483 153.312 78.898V71.5416C153.312 68.1702 156.153 67.6409 157.221 67.6409C159.5 67.6409 160.315 69.2573 160.315 70.4831V78.898C160.315 79.1483 160.513 79.3442 160.766 79.3442H163.015C163.268 79.3442 163.466 79.1483 163.466 78.898V70.2042C163.466 67.0831 161.413 65.1335 158.094 65.1335Z" fill="black"/>
<path id="Vector_39" d="M172.634 65.0777C168.275 65.0777 165.49 67.7253 165.49 71.3198V73.2981C165.49 77.0871 168.275 79.6789 172.634 79.6789C176.487 79.6789 179.187 77.7007 179.468 75.0259C179.497 74.747 179.299 74.5525 179.018 74.5525H176.825C176.627 74.5525 176.459 74.6641 176.402 74.8586C176.12 75.7497 174.799 77.0871 172.634 77.0871C170.468 77.0871 168.442 75.5266 168.471 73.2981L168.5 70.8192C168.527 68.9526 170.497 67.671 172.635 67.671C174.575 67.671 176.461 68.758 176.657 70.5417C176.673 70.7477 176.53 70.9336 176.325 70.9737L170.019 72.1852C169.766 72.241 169.568 72.4641 169.568 72.7431V72.7702C169.568 73.0206 169.821 73.2437 170.188 73.2437H179.244C179.493 73.2437 179.695 73.0434 179.695 72.7974V71.0424C179.695 67.7268 176.797 65.0806 172.635 65.0806L172.634 65.0777Z" fill="black"/>
<path id="Vector_40" d="M188.327 65.0777C184.812 65.0777 181.774 67.1117 181.774 69.7865C181.774 70.0096 181.972 70.177 182.224 70.177H184.503C184.728 70.177 184.897 70.0096 184.926 69.7865C185.151 68.5607 186.641 67.6695 188.245 67.6695C190.158 67.6695 191.451 68.8396 191.451 70.8464V73.2709C191.451 75.7497 189.595 77.0041 187.289 77.0041C185.489 77.0041 184.448 76.3347 184.448 75.2491C184.448 74.3007 184.954 73.494 187.035 73.0206L190.044 72.2124C190.353 72.1294 190.467 71.8777 190.409 71.6002C190.382 71.3771 190.129 71.2655 189.902 71.2655H186.781C184.137 71.2655 181.465 72.9376 181.465 75.3893V75.7797C181.465 78.2872 183.856 79.5974 186.583 79.5974C188.327 79.5974 189.817 78.928 190.745 78.1484L192.124 76.9784C192.349 76.7824 192.575 76.7824 192.771 76.9784C192.94 77.1458 192.884 77.3975 192.742 77.592L191.899 78.9023C191.757 79.0982 191.87 79.3485 192.124 79.3485H194.15C194.402 79.3485 194.6 79.1526 194.6 78.9023V70.4602C194.6 67.2275 192.266 65.0834 188.329 65.0834L188.327 65.0777Z" fill="black"/>
<path id="Vector_41" d="M206.748 65.4124H203.598C202.5 65.4124 201.432 66.0818 200.673 66.7226L199.435 67.7811C199.294 67.8927 199.041 67.9756 198.872 67.8369C198.674 67.6967 198.591 67.4192 198.76 67.1961L199.659 65.8587C199.801 65.6627 199.688 65.4124 199.434 65.4124H197.325C197.072 65.4124 196.874 65.6084 196.874 65.8587V78.8994C196.874 79.1497 197.072 79.3457 197.325 79.3457H199.63C199.883 79.3457 200.081 79.1497 200.081 78.8994V72.2124C200.081 69.3417 201.262 68.06 203.821 68.06H206.746C206.999 68.06 207.197 67.8641 207.197 67.6138V65.8587C207.197 65.6084 206.999 65.4124 206.746 65.4124H206.748Z" fill="black"/>
</g>
<g id="by">
<path id="Vector_42" d="M105.973 68.1301H108.05L110.486 74.5596H110.622L113.049 68.1301H115.076V68.3833L110.187 80.2225H108.16V79.9693L109.48 76.8725L105.97 68.3833V68.1301H105.973Z" fill="black"/>
<path id="Vector_43" d="M96.7255 64.6958H98.7438V69.0842H98.8709C99.5177 68.266 100.498 67.9456 101.639 67.9456C103.878 67.9456 105.667 69.4303 105.667 72.4942C105.667 75.558 103.878 77.0342 101.639 77.0342C100.472 77.0342 99.4672 76.7052 98.8276 75.8355H98.6919V76.8482H96.724V64.6972L96.7255 64.6958ZM98.6601 72.4927C98.6601 74.3994 99.6563 75.455 101.148 75.455C102.639 75.455 103.635 74.3994 103.635 72.4927C103.635 70.586 102.639 69.5219 101.148 69.5219C99.6563 69.5219 98.6601 70.5775 98.6601 72.4927Z" fill="black"/>
<path id="Vector_44" d="M105.973 68.1301H108.05L110.486 74.5596H110.622L113.049 68.1301H115.076V68.3833L110.187 80.2225H108.16V79.9693L109.48 76.8725L105.97 68.3833V68.1301H105.973Z" fill="black"/>
<path id="Vector_45" d="M96.7255 64.6958H98.7438V69.0842H98.8709C99.5177 68.266 100.498 67.9456 101.639 67.9456C103.878 67.9456 105.667 69.4303 105.667 72.4942C105.667 75.558 103.878 77.0342 101.639 77.0342C100.472 77.0342 99.4672 76.7052 98.8276 75.8355H98.6919V76.8482H96.724V64.6972L96.7255 64.6958ZM98.6601 72.4927C98.6601 74.3994 99.6563 75.455 101.148 75.455C102.639 75.455 103.635 74.3994 103.635 72.4927C103.635 70.586 102.639 69.5219 101.148 69.5219C99.6563 69.5219 98.6601 70.5775 98.6601 72.4927Z" fill="black"/>
</g>
<g id="star">
<path id="Vector_46" d="M77.4875 25.1502L72.0662 24.4308L71.34 19.0597C71.2563 18.4461 70.3626 18.4461 70.2803 19.0597L69.5541 24.4308L64.1328 25.1502C63.5135 25.2332 63.5135 26.1186 64.1328 26.2001L69.5541 26.9196L70.2803 32.2907C70.3641 32.9043 71.2577 32.9043 71.34 32.2907L72.0662 26.9196L77.4875 26.2001C78.1069 26.1172 78.1069 25.2318 77.4875 25.1502Z" fill="#00EC97"/>
<path id="Vector_47" d="M77.4875 25.1502L72.0662 24.4308L71.34 19.0597C71.2563 18.4461 70.3626 18.4461 70.2803 19.0597L69.5541 24.4308L64.1328 25.1502C63.5135 25.2332 63.5135 26.1186 64.1328 26.2001L69.5541 26.9196L70.2803 32.2907C70.3641 32.9043 71.2577 32.9043 71.34 32.2907L72.0662 26.9196L77.4875 26.2001C78.1069 26.1172 78.1069 25.2318 77.4875 25.1502Z" fill="#9797FF"/>
</g>
<g id="icon">
<path id="Vector_48" d="M141.708 62.2699C140.952 62.2699 140.25 62.6575 139.855 63.2954L135.588 69.5705C135.45 69.7765 135.506 70.0554 135.714 70.1941C135.883 70.3057 136.107 70.2914 136.261 70.1612L140.461 66.5538C140.53 66.4909 140.639 66.4981 140.701 66.5667C140.73 66.5982 140.744 66.6397 140.744 66.6811V77.9782C140.744 78.0712 140.667 78.147 140.574 78.147C140.523 78.147 140.475 78.1256 140.444 78.0869L127.752 63.0351C127.339 62.5517 126.731 62.2727 126.093 62.2727H125.65C124.448 62.2727 123.475 63.2368 123.475 64.4269V80.3369C123.475 81.5256 124.448 82.4911 125.65 82.4911C126.406 82.4911 127.106 82.1034 127.503 81.4655L131.77 75.1904C131.908 74.9845 131.852 74.7055 131.644 74.5668C131.475 74.4552 131.251 74.4695 131.097 74.5997L126.898 78.2071C126.829 78.27 126.721 78.2629 126.659 78.1942C126.63 78.1627 126.615 78.1213 126.615 78.0798V66.7798C126.615 66.6869 126.692 66.6111 126.786 66.6111C126.836 66.6111 126.884 66.6325 126.916 66.6711L139.606 81.7258C140.019 82.2093 140.627 82.4882 141.265 82.4882H141.708C142.91 82.4882 143.883 81.5256 143.884 80.3355V64.424C143.884 63.2354 142.911 62.2699 141.71 62.2699H141.708Z" fill="black"/>
</g>
<g id="ai">
<path id="Vector_49" fill-rule="evenodd" clip-rule="evenodd" d="M24.4788 39.6256L27.2089 32.571H39.5299L42.26 39.6256H46.7096L36.0908 12.1296H30.837L20.2183 39.6256H24.4759H24.4788ZM28.6382 28.8864L33.3881 16.6195L38.1049 28.8864H28.6382Z" fill="white"/>
<path id="Vector_50" d="M53.4649 39.6256V19.0039H49.3835V39.6256H53.4649Z" fill="white"/>
<path id="Vector_51" d="M53.4649 12.131H49.3835V16.1747H53.4649V12.131Z" fill="white"/>
<path id="Vector_52" fill-rule="evenodd" clip-rule="evenodd" d="M24.4788 39.6256L27.2089 32.571H39.5299L42.26 39.6256H46.7096L36.0908 12.1296H30.837L20.2183 39.6256H24.4759H24.4788ZM28.6382 28.8864L33.3881 16.6195L38.1049 28.8864H28.6382Z" fill="white"/>
<path id="Vector_53" d="M53.4649 39.6256V19.0039H49.3835V39.6256H53.4649Z" fill="white"/>
<path id="Vector_54" d="M53.4649 12.131H49.3835V16.1747H53.4649V12.131Z" fill="white"/>
<path id="Vector_55" d="M53.4649 39.6256V14.1521H49.3835V39.6256H53.4649Z" fill="white"/>
</g>
<g id="HZN">
<path id="Vector_56" d="M179.577 12.131H175.39V32.1762L155.346 12.1753H151.823V39.627H156.01V18.8738L176.549 39.627H179.575V12.131H179.577Z" fill="white"/>
<path id="Vector_57" d="M147.742 39.6256V35.4775H127.509L147.697 15.6197V12.131H119.989V16.2791H140.936L119.989 36.6276V39.6256H147.742Z" fill="white"/>
<path id="Vector_58" d="M88.1554 39.6256H92.3134V27.9981H111.732V39.6256H115.909V12.131H111.732V23.6455H92.3134V12.131H88.1554V39.627V39.6256Z" fill="white"/>
<path id="Vector_59" d="M179.577 12.131H175.39V32.1762L155.346 12.1753H151.823V39.627H156.01V18.8738L176.549 39.627H179.575V12.131H179.577Z" fill="white"/>
<path id="Vector_60" d="M147.742 39.6256V35.4775H127.509L147.697 15.6197V12.131H119.989V16.2791H140.936L119.989 36.6276V39.6256H147.742Z" fill="white"/>
<path id="Vector_61" d="M88.1554 39.6256H92.3134V27.9981H111.732V39.6256H115.909V12.131H111.732V23.6455H92.3134V12.131H88.1554V39.627V39.6256Z" fill="white"/>
</g>
</g>
<defs>
<clipPath id="clip0_1_5">
<rect width="231" height="93" fill="white"/>
</clipPath>
</defs>
</svg>
