<svg width="162" height="50" viewBox="0 0 162 50" fill="none" xmlns="http://www.w3.org/2000/svg">
<g id="pondd" clip-path="url(#clip0_7_1909)">
<g id="word_mark">
<path id="Vector" fill-rule="evenodd" clip-rule="evenodd" d="M155.325 19.0003V8.81482H162V41.0923H150.529C144.001 41.0923 139.501 36.6623 139.501 30.0463C139.501 23.4302 144.139 19.0003 150.849 19.0003H155.324H155.325ZM152.28 35.7323H155.325V24.2664H152.305C148.487 24.2664 146.261 26.3468 146.261 30.012C146.261 33.6771 148.466 35.7323 152.28 35.7323ZM121.113 21.3805C122.381 18.4052 124.878 16.6652 128.514 16.6652C133.789 16.6652 136.719 20.0008 136.694 25.6263V41.0778H130.255V26.9916C130.255 23.861 128.8 22.0713 125.908 22.0713C123.017 22.0713 121.187 24.2212 121.187 27.3265V41.0778H114.773V17.1104H120.985V21.3805H121.113ZM76.5002 8.92498H63.5483V41.0778H70.2092V31.0016H76.1645C82.8749 31.0016 87.5126 26.5717 87.5126 19.9556C87.5126 13.3396 83.0279 8.92498 76.5002 8.92498ZM74.7101 25.7364H70.2101V14.2705H74.7344C78.5486 14.2705 80.7536 16.3257 80.7536 19.9908C80.7536 23.656 78.5288 25.7364 74.7092 25.7364H74.7101ZM88.5791 29.2065C88.5791 21.4257 93.2123 16.7049 100.293 16.7049C107.373 16.7049 112.006 21.4004 112.006 29.2065C112.006 37.0127 107.438 41.7072 100.293 41.7072C93.1475 41.7072 88.5791 37.0768 88.5791 29.2065ZM95.1068 29.2065C95.1068 34.0022 97.1147 36.7075 100.293 36.7075V36.7174C103.445 36.7174 105.453 33.957 105.453 29.2065C105.453 24.456 103.426 21.7056 100.293 21.7056C97.1597 21.7056 95.1068 24.4109 95.1068 29.2065Z" fill="white"/>
</g>
<g id="icon">
<path id="Vector_2" d="M23.5654 0L16.8892 11.6013L24.3475 15.922L31.0237 4.3207L23.5654 0Z" fill="white"/>
<path id="Vector_3" d="M25.5004 34.0789L18.8242 45.6802L26.2825 50.0009L32.9587 38.3996L25.5004 34.0789Z" fill="white"/>
<path id="Vector_4" d="M41.5845 6.35864L28.6875 9.82604L30.9168 18.1722L43.8138 14.7048L41.5845 6.35864Z" fill="white"/>
<path id="Vector_5" d="M18.9331 31.8296L6.03613 35.297L8.26543 43.6431L21.1624 40.1757L18.9331 31.8296Z" fill="white"/>
<path id="Vector_6" d="M38.2762 16.9315L33.9697 24.4144L45.5329 31.1126L49.8394 23.6297L38.2762 16.9315Z" fill="white"/>
<path id="Vector_7" d="M4.3065 18.8801L0 26.363L11.5632 33.0612L15.8697 25.5783L4.3065 18.8801Z" fill="white"/>
<path id="Vector_8" d="M40.0501 28.7803L31.7314 31.0169L35.1874 43.9564L43.5061 41.7198L40.0501 28.7803Z" fill="white"/>
<path id="Vector_9" d="M14.6576 6.0553L6.33887 8.29195L9.79487 21.2315L18.1136 18.9948L14.6576 6.0553Z" fill="white"/>
</g>
<g id="guide">
<path id="Vector_10" fill-rule="evenodd" clip-rule="evenodd" d="M155.325 19.0003V8.81482H162V41.0923H150.529C144.001 41.0923 139.501 36.6623 139.501 30.0463C139.501 23.4302 144.139 19.0003 150.849 19.0003H155.324H155.325ZM152.28 35.7323H155.325V24.2664H152.305C148.487 24.2664 146.261 26.3468 146.261 30.012C146.261 33.6771 148.466 35.7323 152.28 35.7323ZM121.113 21.3805C122.381 18.4052 124.878 16.6652 128.514 16.6652C133.789 16.6652 136.719 20.0008 136.694 25.6263V41.0778H130.255V26.9916C130.255 23.861 128.8 22.0713 125.908 22.0713C123.017 22.0713 121.187 24.2212 121.187 27.3265V41.0778H114.773V17.1104H120.985V21.3805H121.113ZM76.5002 8.92498H63.5483V41.0778H70.2092V31.0016H76.1645C82.8749 31.0016 87.5126 26.5717 87.5126 19.9556C87.5126 13.3396 83.0279 8.92498 76.5002 8.92498ZM74.7101 25.7364H70.2101V14.2705H74.7344C78.5486 14.2705 80.7536 16.3257 80.7536 19.9908C80.7536 23.656 78.5288 25.7364 74.7092 25.7364H74.7101ZM88.5791 29.2065C88.5791 21.4257 93.2123 16.7049 100.293 16.7049C107.373 16.7049 112.006 21.4004 112.006 29.2065C112.006 37.0127 107.438 41.7072 100.293 41.7072C93.1475 41.7072 88.5791 37.0768 88.5791 29.2065ZM95.1068 29.2065C95.1068 34.0022 97.1147 36.7075 100.293 36.7075V36.7174C103.445 36.7174 105.453 33.957 105.453 29.2065C105.453 24.456 103.426 21.7056 100.293 21.7056C97.1597 21.7056 95.1068 24.4109 95.1068 29.2065Z" fill="white"/>
<path id="Vector_11" d="M23.5654 0L16.8892 11.6013L24.3475 15.922L31.0237 4.3207L23.5654 0Z" fill="white"/>
<path id="Vector_12" d="M25.5004 34.0789L18.8242 45.6802L26.2825 50.0009L32.9587 38.3996L25.5004 34.0789Z" fill="white"/>
<path id="Vector_13" d="M41.5845 6.35864L28.6875 9.82604L30.9168 18.1722L43.8138 14.7048L41.5845 6.35864Z" fill="white"/>
<path id="Vector_14" d="M18.9331 31.8296L6.03613 35.297L8.26543 43.6431L21.1624 40.1757L18.9331 31.8296Z" fill="white"/>
<path id="Vector_15" d="M38.2762 16.9315L33.9697 24.4144L45.5329 31.1126L49.8394 23.6297L38.2762 16.9315Z" fill="white"/>
<path id="Vector_16" d="M4.3065 18.8801L0 26.363L11.5632 33.0612L15.8697 25.5783L4.3065 18.8801Z" fill="white"/>
<path id="Vector_17" d="M40.0501 28.7803L31.7314 31.0169L35.1874 43.9564L43.5061 41.7198L40.0501 28.7803Z" fill="white"/>
<path id="Vector_18" d="M14.6576 6.0553L6.33887 8.29195L9.79487 21.2315L18.1136 18.9948L14.6576 6.0553Z" fill="white"/>
</g>
</g>
<defs>
<clipPath id="clip0_7_1909">
<rect width="162" height="50" fill="white"/>
</clipPath>
</defs>
</svg>
