<svg width="224" height="42" viewBox="0 0 224 42" fill="none" xmlns="http://www.w3.org/2000/svg">
<g id="ringfence">
<path id="Vector" fill-rule="evenodd" clip-rule="evenodd" d="M21.206 0C25.5905 0 29.6821 1.32303 33.0662 3.58757H33.064C36.4481 5.84988 39.1337 9.0537 40.7447 12.8242C41.8193 15.3387 42.4119 18.1052 42.4119 20.999C42.4119 25.3406 41.0759 29.3923 38.789 32.7411C36.5044 36.0922 33.269 38.7516 29.4613 40.3468C26.922 41.411 24.1282 41.9978 21.206 41.9978C16.8215 41.9978 12.7299 40.6748 9.34802 38.4102C5.9639 36.148 3.27823 32.944 1.66728 29.1736C0.59256 26.6591 0 23.8926 0 20.999C0 16.6572 1.33607 12.6056 3.62295 9.25674C5.90757 5.90566 9.14299 3.24622 12.9507 1.65099C15.4899 0.586773 18.2837 0 21.206 0ZM30.6869 34.9252C33.3951 33.1136 35.5468 30.5457 36.8333 27.536C37.6895 25.528 38.165 23.3259 38.165 21.0012C38.1627 17.5162 37.0992 14.2967 35.2697 11.615C33.4402 8.93323 30.8469 6.80256 27.8075 5.5286C25.7797 4.6808 23.5559 4.21004 21.2083 4.21004C17.689 4.21227 14.4378 5.26534 11.7295 7.07697C9.02133 8.88861 6.86964 11.4566 5.58313 14.4662C4.72696 16.4742 4.25156 18.6764 4.25156 21.0012C4.25381 24.486 5.31727 27.7056 7.14677 30.3873C8.97626 33.069 11.5696 35.1997 14.6089 36.4736C16.6367 37.3215 18.8605 37.7923 21.2083 37.7923C24.7276 37.79 27.9788 36.7369 30.6869 34.9252ZM29.9167 12.157H12.4959V16.7419H29.9167V12.157ZM12.4959 19.1584V29.843H18.1106V23.6942H20.4651L23.6104 29.843H29.8514L26.661 23.6942H29.919V19.1584H12.4959Z" fill="url(#paint0_linear_4_1902)"/>
<path id="Vector_2" fill-rule="evenodd" clip-rule="evenodd" d="M69.5029 7.79553C77.3725 7.79553 81.437 9.55339 81.4375 15.4425C81.4372 18.8444 79.7745 21.1508 76.4131 22.2842L82.5461 34.3231H77.2626L71.6096 23.1274C71.1657 23.1631 70.6859 23.1631 70.2059 23.1631H65.6615V34.3231H60.9683V7.79553H69.5029ZM65.6593 19.4686H70.3164C74.3427 19.4686 76.6339 18.6631 76.6339 15.4794C76.6339 12.0033 73.8627 11.5281 70.1676 11.5281H65.6593V19.4686ZM84.2807 7.79705H88.6788V12.1878H84.2807V7.79705ZM88.6788 14.64H84.2807V34.3248H88.6788V14.64ZM95.7629 17.3843C96.9074 15.3341 98.978 14.2006 101.785 14.2006L101.788 14.2028C106.591 14.2028 108.549 17.2772 108.549 21.9604V34.3271H104.151V23.0201C104.151 20.3473 103.782 17.7503 100.382 17.7503C96.9818 17.7503 95.7629 20.3116 95.7629 23.8611V34.3249H91.3648V14.6402H95.7629V17.3843ZM119.043 14.1992C121.703 14.1992 123.77 15.3333 124.953 17.2699V14.6363H129.351V32.3467C129.351 35.5304 128.538 37.8352 126.95 39.2987C125.361 40.7623 122.998 41.4204 119.893 41.4204C115.533 41.4204 112.097 39.7002 111.394 35.3832H115.754C116.159 37.2484 117.342 37.9801 120.003 37.9801C121.961 37.9801 123.218 37.4313 123.957 36.5522C124.696 35.7112 124.956 34.5042 124.956 33.2234V30.9188C123.773 32.8598 121.704 33.9932 119.043 33.9932C114.312 33.9932 110.396 30.2249 110.396 24.0783C110.396 17.9316 114.314 14.1992 119.043 14.1992ZM120.003 30.5551C117.047 30.5551 114.979 28.1411 114.979 24.0783C114.979 20.0155 117.047 17.6752 120.003 17.6752C122.959 17.6752 125.14 19.6875 125.14 24.0783C125.14 28.469 122.849 30.5551 120.003 30.5551ZM137.631 14.6398H141.548H141.551V17.7856H137.634V34.3245H133.236V17.7856H130.465V14.6398H133.236V13.4328C133.236 8.85905 134.974 7.79705 139.813 7.79705H141.551V11.1258H140.293C138.112 11.1258 137.631 11.5296 137.631 13.5778V14.6398ZM150.447 14.2014C144.794 14.2014 140.692 18.4091 140.692 24.3372C140.692 30.2651 144.351 34.8008 150.743 34.8008C155.842 34.8008 158.872 31.5814 159.76 28.4333H155.436C154.658 30.2985 152.886 31.1777 150.558 31.1777C148.045 31.1777 145.459 29.3839 145.162 25.7249H159.981C160.386 19.1387 156.544 14.1992 150.447 14.1992V14.2014ZM145.164 22.5434C145.569 18.8487 148.379 17.6038 150.447 17.6038C153.034 17.6038 155.4 19.4688 155.51 22.5434H145.164ZM166.058 17.3843C167.203 15.3341 169.274 14.2006 172.081 14.2006L172.084 14.2028C176.887 14.2028 178.845 17.2772 178.845 21.9604V34.3271H174.447V23.0201C174.447 20.3473 174.077 17.7503 170.677 17.7503C167.277 17.7503 166.058 20.3116 166.058 23.8611V34.3249H161.66V14.6402H166.058V17.3843ZM190.34 31.179C187.754 31.179 185.241 29.1665 185.241 24.4835C185.241 19.8005 187.68 17.8238 190.452 17.8238C192.853 17.8238 194.664 19.2873 195.069 21.3734H199.355C198.58 17.0183 194.811 14.2027 190.452 14.2027C184.503 14.2027 180.695 18.667 180.695 24.5214C180.695 30.3757 184.5 34.8023 190.266 34.8023C194.515 34.8023 198.616 32.2052 199.504 27.5936H195.218C194.628 30.2286 192.522 31.179 190.34 31.179ZM200.281 24.3372C200.281 18.4091 204.383 14.2014 210.036 14.2014V14.1992C216.133 14.1992 219.976 19.1387 219.57 25.7249H204.752C205.049 29.3839 207.635 31.1777 210.148 31.1777C212.475 31.1777 214.247 30.2985 215.025 28.4333H219.349C218.461 31.5814 215.431 34.8008 210.332 34.8008C203.941 34.8008 200.281 30.2651 200.281 24.3372ZM210.036 17.6038C207.969 17.6038 205.159 18.8487 204.753 22.5434H215.099C214.989 19.4688 212.624 17.6038 210.036 17.6038Z" fill="white"/>
</g>
<defs>
<linearGradient id="paint0_linear_4_1902" x1="5.1659e-08" y1="18.1355" x2="42.4119" y2="18.1355" gradientUnits="userSpaceOnUse">
<stop stop-color="#4ADC8C"/>
<stop offset="1" stop-color="#4ADCCA"/>
</linearGradient>
</defs>
</svg>
