<svg width="189" height="158" viewBox="0 0 189 158" fill="none" xmlns="http://www.w3.org/2000/svg">
<g id="cloud">
<path id="Vector" d="M34.4552 156.404C36.7528 158.098 181.978 77.431 181.978 77.431C181.978 77.431 202.534 35.1064 165.481 33.598C165.481 33.598 158.621 4.72739 133.153 17.2083C133.153 17.2083 113.806 23.323 98.3727 50.7257C98.3727 50.7257 58.9408 56.1106 49.3934 109.197C49.3934 109.197 35.1859 115.312 30.5339 137.573C30.5339 137.573 28.8209 152.251 34.4552 156.412V156.404Z" fill="#9696FE" stroke="black" stroke-miterlimit="10" stroke-linecap="round"/>
<path id="Vector_2" d="M37.2724 148.351C36.7771 145.772 36.6148 141.968 36.9639 138.595C40.7633 120.907 51.1226 115.563 52.0076 115.133L55.32 113.811L55.7908 110.332C64.3316 62.866 97.8775 57.3514 99.2983 57.1405L102.44 56.6702L104.039 53.8966C117.849 29.3728 134.996 23.4284 135.166 23.3716L135.629 23.2257L136.019 23.031C139.355 21.3929 142.392 20.5657 145.038 20.5657C146.573 20.5657 151.249 20.5657 155.56 27.094C158.134 30.9867 159.165 35.0821 159.173 35.1226L160.342 39.8506L165.221 40.0777C172.333 40.3696 177.058 42.397 179.282 46.1032C183.61 53.3289 179.518 66.6613 176.944 72.8085C129.475 99.1651 56.2373 139.276 37.2724 148.351Z" fill="black" stroke="black" stroke-miterlimit="10" stroke-linecap="round"/>
<path id="Vector_3" d="M34.4552 156.404C28.8209 152.243 30.5339 137.565 30.5339 137.565C35.1859 115.303 49.3934 109.189 49.3934 109.189C58.949 56.1025 98.3727 50.7176 98.3727 50.7176C113.806 23.3149 133.153 17.2001 133.153 17.2001C140.711 13.494 146.63 13.4372 151.217 15.1808L122.875 2.52155C122.452 2.31069 122.022 2.11606 121.576 1.93765C116.956 0.0967384 110.965 0.0886308 103.268 3.85965C103.268 3.85965 83.9217 9.97438 68.4883 37.3771C68.4883 37.3771 29.0564 42.762 19.5089 95.8482C19.5089 95.8482 5.30142 101.963 0.64948 124.224C0.64948 124.224 -1.06354 138.903 4.57075 143.063L34.4471 156.428L34.4633 156.404H34.4471H34.4552Z" fill="#9696FE" stroke="black" stroke-miterlimit="10" stroke-linecap="round"/>
</g>
</svg>
