<svg width="101" height="80" viewBox="0 0 101 80" fill="none" xmlns="http://www.w3.org/2000/svg">
<g id="handshake icon" clip-path="url(#clip0_54_384)">
<path id="Vector" fill-rule="evenodd" clip-rule="evenodd" d="M28.3146 1.48842C25.2878 0.20546 22.7357 0.593543 19.7271 1.71214C15.1069 3.69821 11.7696 6.77092 8.64236 10.6472C5.35072 14.9892 3.18216 19.1713 1.68928 24.4127C0.689457 28.4214 0.283138 31.9598 1.20535 36.0233C1.94037 38.5755 2.83519 40.2876 4.97635 41.9039L7.24535 43.2188L11.2218 45.5108L34.5053 5.07705L28.31 1.49298L28.3146 1.48842Z" fill="white"/>
<path id="Vector_2" fill-rule="evenodd" clip-rule="evenodd" d="M24.5253 1.3834C23.0188 1.3834 21.5441 1.77148 19.9645 2.36046C16.0018 4.06803 12.6645 6.76635 9.18564 11.0809C5.89856 15.4138 3.78935 19.5959 2.35582 24.6136C1.23274 29.1108 1.09121 32.3799 1.88102 35.8726C2.53387 38.1509 3.32368 39.7854 5.39637 41.356L10.9661 44.5657L33.5602 5.32816L27.9996 2.10934C26.7806 1.59799 25.6438 1.3834 24.5208 1.3834H24.5253ZM11.2264 46.2048C11.1031 46.2048 10.9844 46.1774 10.8794 46.118L4.63851 42.5111C2.19147 40.6757 1.26926 38.7581 0.543362 36.2287C-0.506676 31.5763 0.150739 27.732 1.01816 24.2621C2.50648 19.048 4.68417 14.7289 8.08994 10.2408C11.7331 5.72081 15.2302 2.90377 19.4532 1.08663C22.1422 0.0821791 25.0869 -0.625503 28.5885 0.858346C28.6113 0.867478 28.6433 0.881175 28.6661 0.899437L34.8568 4.4835C35.1901 4.67983 35.2996 5.09531 35.1079 5.43317L11.8199 45.8623C11.7286 46.013 11.5779 46.1317 11.3998 46.1819C11.3405 46.2002 11.2857 46.2048 11.2218 46.2048H11.2264Z" fill="black"/>
<path id="Vector_3" fill-rule="evenodd" clip-rule="evenodd" d="M23.4705 44.7118C32.5922 39.4475 39.9881 26.6408 39.9881 16.1077C39.9881 5.5747 32.5876 1.29209 23.4705 6.56089C14.3443 11.8251 6.94385 24.641 6.94385 35.1786C6.94385 45.7162 14.3443 49.976 23.466 44.7118H23.4705Z" fill="white"/>
<path id="Vector_4" fill-rule="evenodd" clip-rule="evenodd" d="M30.8392 4.99487C28.698 4.99487 26.3103 5.72538 23.813 7.16357C14.8968 12.3091 7.63788 24.8784 7.63788 35.1786C7.63788 40.0137 9.2312 43.5978 12.1256 45.2688C15.0201 46.9444 18.9281 46.5335 23.1191 44.1137C32.0353 38.9682 39.2897 26.4034 39.2897 16.1078C39.2897 11.2636 37.6918 7.67493 34.7973 6.00845C33.624 5.32816 32.2864 4.99487 30.8392 4.99487ZM16.0838 47.6658C14.3901 47.6658 12.8242 47.2686 11.4317 46.4696C8.09442 44.5429 6.25 40.5251 6.25 35.1786C6.25 24.4356 13.8148 11.3229 23.1191 5.95823C27.753 3.28273 32.1494 2.87639 35.4867 4.80311C38.8331 6.72983 40.6776 10.7476 40.6776 16.1078C40.6776 26.8463 33.1127 39.9452 23.813 45.3099C21.1012 46.8759 18.4715 47.6658 16.0838 47.6658Z" fill="black"/>
<path id="Vector_5" fill-rule="evenodd" clip-rule="evenodd" d="M30.8528 10.5741L30.4191 10.3915C28.739 9.83906 27.5246 9.91667 25.8218 10.3413C22.4753 11.3868 20.0192 13.4003 17.6908 15.9616C14.5042 19.6872 12.363 23.7781 11.3267 28.5903C10.8245 31.38 10.7195 33.85 11.6736 36.5483C12.2671 37.9454 12.8241 38.7718 14.0431 39.6987L15.6775 40.6346L16.2847 40.9907C18.4624 42.5066 20.0694 43.3193 25.105 40.4109C30.1406 37.5026 37.0024 25.6272 37.0024 19.806C37.0024 13.9847 35.4776 12.9757 33.0579 11.8571L30.8528 10.5787V10.5741Z" fill="#9696FE"/>
<path id="Vector_6" fill-rule="evenodd" clip-rule="evenodd" d="M28.1685 10.6928C27.4745 10.6928 26.7897 10.8161 25.9908 11.0124C23.2013 11.8845 20.8639 13.5053 18.2022 16.4273C15.011 20.1529 12.9794 24.1844 12.0025 28.7364C11.5916 31.0193 11.345 33.5441 12.3266 36.3201C12.8973 37.6624 13.4223 38.3518 14.4632 39.1417L16.6318 40.3881C18.531 41.7076 19.8641 42.639 24.7627 39.8082C29.6203 37.0003 36.3131 25.4126 36.3131 19.806C36.3131 14.1993 34.8294 13.4368 32.7704 12.4872L30.1499 11.0307C29.4285 10.7933 28.7939 10.6928 28.1685 10.6928ZM19.7225 43.0544C18.2342 43.0544 17.1385 42.4244 15.8922 41.5523L13.7008 40.2922C12.2262 39.1873 11.6372 38.2239 11.0392 36.8177C9.93434 33.6948 10.1991 30.9554 10.6465 28.4625C11.6783 23.664 13.8103 19.4316 17.1659 15.5051C20.0147 12.373 22.5394 10.6426 25.6164 9.67926C27.3832 9.23638 28.7483 9.11311 30.6338 9.73404L31.1177 9.9395C31.1451 9.94863 31.1725 9.96233 31.1953 9.97603L33.4004 11.2636C35.9707 12.4415 37.6919 13.6925 37.6919 19.806C37.6919 25.9194 30.7068 37.9774 25.4475 41.0136C22.8863 42.4929 21.1241 43.059 19.718 43.059L19.7225 43.0544Z" fill="black"/>
<path id="Vector_7" fill-rule="evenodd" clip-rule="evenodd" d="M41.3487 73.2656L31.1177 65.1478L18.0151 40.3379C16.545 39.2284 15.9378 38.0596 15.4356 36.3155C14.6504 32.8273 15.2758 29.572 16.4446 26.2436C17.6087 23.2394 18.9738 20.8743 20.9963 18.3586C29.0998 8.88483 47.1559 12.0991 57.4189 15.327C59.1583 15.8749 60.4457 17.0026 61.2127 18.6554L63.6187 23.842C64.2213 25.1387 64.3583 26.4171 64.0524 27.8142L62.0436 36.9045L73.0279 61.9381L61.514 68.3529C61.7469 69.1245 58.9803 72.3844 55.8621 71.5033C55.4284 72.1607 55.7114 73.6446 52.2235 73.5304C52.3741 74.1833 51.5159 74.7951 49.9591 74.7951L42.6773 73.8181C42.1705 73.7496 41.7459 73.5715 41.3442 73.2519L41.3487 73.2656Z" fill="#9696FE"/>
<path id="Vector_8" fill-rule="evenodd" clip-rule="evenodd" d="M31.6608 64.6912L41.7823 72.7223C42.0836 72.9643 42.3895 73.0921 42.773 73.1469L50.0548 74.1194C51.0363 74.1194 51.5111 73.7907 51.5568 73.672C51.5066 73.4619 51.5568 73.261 51.6937 73.0921C51.8307 72.9232 52.0909 72.841 52.2507 72.8501C54.5791 72.9141 54.7936 72.3159 55.0128 71.7224C55.0858 71.5261 55.1634 71.3206 55.2913 71.1243C55.4556 70.8778 55.7752 70.759 56.0537 70.8412C57.3366 71.2019 58.4733 70.7134 59.1992 70.234C60.2584 69.5446 60.8063 68.6634 60.8428 68.4488C60.7469 68.1383 60.8976 67.9192 61.1806 67.7594L72.1421 61.6459L61.4134 37.1967C61.3541 37.0597 61.3404 36.9136 61.3678 36.7675L63.3766 27.6772C63.6505 26.4262 63.5272 25.2985 62.9885 24.1388L60.5871 18.9567C59.9023 17.4775 58.7655 16.4821 57.2133 15.9936C51.0637 14.0532 30.3049 8.5424 21.5211 18.8152C19.5534 21.2578 18.2249 23.5635 17.0927 26.4993C15.7596 30.2705 15.4583 33.2565 16.1157 36.1603C16.5585 37.6943 17.0607 38.7444 18.4349 39.7808C18.5171 39.8402 18.5856 39.9224 18.6312 40.0091L31.6654 64.6867L31.6608 64.6912ZM49.9863 75.5028H49.9589L42.5904 74.5212C41.9512 74.439 41.4216 74.2153 40.9149 73.8135L30.6884 65.6957C30.6108 65.6363 30.5469 65.5587 30.5058 65.4765L17.4716 40.7944C15.8966 39.5617 15.262 38.2376 14.7643 36.5072C14.0385 33.3021 14.358 30.0742 15.7916 26.0199C16.9877 22.9243 18.3801 20.5091 20.4528 17.9386C29.8119 6.99464 51.2737 12.6744 57.6287 14.6787C59.5462 15.2814 61.0026 16.5598 61.8426 18.3815L64.2485 23.5635C64.9151 24.9971 65.0703 26.4353 64.7325 27.9831L62.7739 36.8497L73.6669 61.6779C73.8085 62.0066 73.6852 62.3856 73.3748 62.5636L62.1896 68.7958C62.0252 69.467 61.4271 70.1518 61.1167 70.4668C60.5688 71.0193 58.7107 72.6766 56.2774 72.3251C55.9167 73.2519 55.273 74.1924 52.8214 74.2472C52.7712 74.3659 52.7073 74.4709 52.6251 74.576C52.1503 75.1741 51.1916 75.5074 49.9909 75.5074L49.9863 75.5028Z" fill="black"/>
<path id="Vector_9" fill-rule="evenodd" clip-rule="evenodd" d="M71.1605 62.7782L64.6229 57.6464L59.6284 49.9121L55.2593 45.529C53.1455 43.406 52.0407 40.872 51.9311 37.877L51.7348 32.3753L42.2753 31.4348L38.5317 35.9091C37.5182 37.1236 36.0025 37.7948 34.4914 37.3245L30.9669 36.2424C30.629 36.1374 30.3871 35.9091 30.2684 35.5758C30.1451 35.2471 30.1816 34.9093 30.3688 34.6171L37.7237 23.0202C38.2441 22.1984 39.0157 21.5501 39.979 21.4039L55.693 18.9613C56.0491 18.9019 56.355 19.0846 56.6243 19.322L66.1112 27.6772C74.3654 34.9458 70.4438 34.8134 78.666 36.7858C81.1542 37.3839 82.4964 38.0139 86.1989 39.4567C91.965 50.8755 83.3182 59.2444 74.8676 61.8651C74.8676 61.8651 71.8864 63.0841 71.156 62.7737L71.1605 62.7782Z" fill="#9696FE"/>
<path id="Vector_10" fill-rule="evenodd" clip-rule="evenodd" d="M71.4665 62.1345C71.8911 62.1801 73.3155 61.7555 74.6075 61.2259C78.9035 59.8881 84.2176 56.6465 86.3999 51.4964C87.9156 47.9169 87.6827 44.0543 85.7059 40.0046L83.9665 39.3151C81.6975 38.4203 80.4466 37.9226 78.5154 37.4615C73.2515 36.2013 72.7448 35.7539 70.9597 33.5989C70.0421 32.4986 68.6542 30.8275 65.6684 28.1931L56.1816 19.8425C56.0674 19.742 55.9168 19.637 55.8118 19.6416L40.0977 22.0842C39.1847 22.2258 38.5957 22.9608 38.3218 23.3855L30.967 34.9823C30.8939 35.0964 30.8802 35.206 30.9304 35.3293C30.9761 35.4571 31.0537 35.5302 31.1815 35.5713L34.706 36.6625C35.8337 37.0095 37.0983 36.5483 38.0068 35.4663L41.7504 30.9873C41.8965 30.8184 42.1293 30.7225 42.353 30.7453L51.8125 31.6813C52.1549 31.7087 52.4243 31.9918 52.438 32.3388L52.6388 37.845C52.7393 40.6757 53.7574 43.0225 55.757 45.0314L60.1306 49.4053L65.1526 57.1579L71.4802 62.1208L71.4665 62.1345ZM71.4847 63.5087C71.2519 63.5087 71.0465 63.4813 70.8867 63.4083C70.8273 63.3855 70.7817 63.3535 70.7315 63.3215L64.1938 58.1943C64.1345 58.1486 64.0797 58.0893 64.0386 58.0208L59.0486 50.2865L54.7709 46.0221C52.543 43.7895 51.356 41.0592 51.2464 37.9089L51.0683 33.0008L42.5767 32.1653L39.066 36.3566C37.7968 37.8815 35.9661 38.5161 34.2906 37.9911L30.7661 36.9045C30.2228 36.7401 29.8119 36.352 29.6202 35.8133C29.4239 35.2745 29.4832 34.7221 29.7891 34.2427L37.1485 22.6458C37.8287 21.5683 38.8012 20.8835 39.8786 20.7191L55.5926 18.281C56.3596 18.1577 56.9029 18.6463 57.0855 18.8061L66.5724 27.1613C69.6403 29.8596 71.0693 31.5854 72.0143 32.7132C73.562 34.5805 73.8496 34.9184 78.8305 36.1146C80.8575 36.5986 82.1449 37.1054 84.4733 38.0322L86.4455 38.8084C86.6099 38.8723 86.7423 38.991 86.8153 39.1462C89.0615 43.5978 89.3582 48.0539 87.669 52.0352C85.2996 57.6236 79.602 61.1209 75.064 62.5362C74.1281 62.9243 72.5074 63.5087 71.4756 63.5087H71.4847Z" fill="black"/>
<path id="Vector_11" fill-rule="evenodd" clip-rule="evenodd" d="M55.862 72.2109H55.8392C52.0225 72.0831 48.9546 71.0193 46.4664 68.9739C44.0742 66.9969 39.8147 62.2714 38.8833 61.1757C38.6368 60.888 38.6687 60.4497 38.9609 60.2032C39.2485 59.9566 39.6914 59.9932 39.9379 60.2808C40.851 61.3629 45.0238 65.9925 47.3475 67.9055C49.5937 69.7592 52.3832 70.7134 55.8848 70.8321C56.2683 70.8504 56.5651 71.1654 56.5514 71.5535C56.5422 71.9233 56.2318 72.2201 55.8574 72.2201L55.862 72.2109Z" fill="black"/>
<path id="Vector_12" fill-rule="evenodd" clip-rule="evenodd" d="M61.5141 69.1291H61.2037C58.2727 69.0834 55.2458 69.0423 52.4746 66.6271C50.1372 64.5862 43.773 58.7604 42.4719 57.3359C42.2117 57.0528 42.2299 56.6145 42.513 56.3589C42.7915 56.1032 43.2343 56.1169 43.49 56.3999C44.7683 57.797 51.0685 63.5589 53.3877 65.5861C55.7708 67.6635 58.4233 67.7 61.2219 67.7366H61.5232C61.9067 67.7457 62.2126 68.0607 62.208 68.4397C62.1989 68.8232 61.893 69.1291 61.5141 69.1291Z" fill="black"/>
<path id="Vector_13" fill-rule="evenodd" clip-rule="evenodd" d="M68.5676 65.5953H68.4946C64.3857 65.1478 60.1217 64.4858 56.9898 61.7738C54.4834 59.6051 48.9547 54.6741 47.8727 53.277C47.6399 52.9757 47.6947 52.542 47.996 52.3091C48.2973 52.0717 48.7356 52.1265 48.9684 52.4278C49.845 53.5647 54.7162 57.9751 57.8937 60.7237C60.7243 63.1754 64.5957 63.7735 68.6452 64.2164C69.0242 64.2575 69.2981 64.5999 69.2616 64.9835C69.2205 65.335 68.9237 65.5953 68.5722 65.5953H68.5676Z" fill="black"/>
<path id="Vector_14" fill-rule="evenodd" clip-rule="evenodd" d="M52.2234 74.2564H52.1504C48.9957 73.9322 45.0603 73.2884 42.6087 71.1334C40.5908 69.3528 37.2809 66.2344 36.2035 65.0382C35.9478 64.7552 35.9707 64.3123 36.2583 64.0612C36.5459 63.8101 36.9796 63.8238 37.2353 64.116C38.2534 65.2483 41.5496 68.3484 43.5264 70.1016C45.6812 71.9918 49.3427 72.5808 52.2919 72.8821C52.6708 72.9186 52.9493 73.261 52.9082 73.6354C52.8717 73.9961 52.5704 74.2609 52.2189 74.2609L52.2234 74.2564Z" fill="black"/>
<path id="Vector_15" fill-rule="evenodd" clip-rule="evenodd" d="M94.9006 37.4387L88.6323 33.8181C86.4227 32.8867 84.7746 32.8638 82.4417 33.2976C78.8213 34.2016 76.2191 35.8726 73.3977 38.2559C72.9183 38.6805 72.302 39.2604 71.85 39.7124C67.7731 43.785 64.4678 49.2227 62.637 54.6741C61.6966 57.4683 61.2126 59.9932 61.03 62.8969C60.9341 67.248 61.6281 71.4576 65.2987 74.2335L71.5441 77.8404L94.9006 37.4295V37.4387Z" fill="white"/>
<path id="Vector_16" fill-rule="evenodd" clip-rule="evenodd" d="M84.9891 33.713C84.2221 33.713 83.4414 33.8135 82.5649 33.9779C79.0176 34.8682 76.5066 36.5438 73.845 38.7901C73.3839 39.1964 72.7813 39.7626 72.3384 40.2055C68.4076 44.132 65.1114 49.4921 63.2898 54.9024C62.3859 57.5962 61.902 60.0708 61.7148 62.9426C61.6417 66.4673 62.0252 70.9006 65.7141 73.6857L71.2838 76.8999L93.9418 37.6943L88.2807 34.4207C87.0709 33.9139 86.0391 33.713 84.98 33.713H84.9891ZM71.5395 78.5344C71.4208 78.5344 71.3021 78.507 71.1971 78.4385L64.9516 74.8362C60.6921 71.622 60.2493 66.7641 60.3315 62.8787C60.5278 59.8562 61.03 57.2674 61.975 54.455C63.8605 48.8483 67.28 43.2919 71.3569 39.2193C71.8225 38.7536 72.4526 38.1646 72.9411 37.7354C75.379 35.6809 78.1912 33.6446 82.2681 32.6173C84.6147 32.179 86.4363 32.1333 88.9016 33.1789L95.2475 36.836C95.4073 36.9319 95.5169 37.078 95.5717 37.256C95.6128 37.4387 95.5899 37.6258 95.5032 37.7856L72.1467 78.192C72.0189 78.4157 71.786 78.539 71.5441 78.539L71.5395 78.5344Z" fill="black"/>
<path id="Vector_17" fill-rule="evenodd" clip-rule="evenodd" d="M83.7839 77.0414C92.9101 71.7772 100.301 58.975 100.301 48.4328C100.301 37.8907 92.9101 33.6217 83.7839 38.8905C74.6623 44.1593 67.2664 56.9798 67.2664 67.5083C67.2664 78.0368 74.6668 82.3148 83.7839 77.0414Z" fill="white"/>
<path id="Vector_18" fill-rule="evenodd" clip-rule="evenodd" d="M91.1616 37.3199C89.0204 37.3199 86.6282 38.0505 84.1355 39.4886C75.2147 44.6433 67.9603 57.2081 67.9603 67.5037C67.9603 72.3433 69.5582 75.9274 72.4481 77.5985C75.3471 79.2741 79.2551 78.8586 83.4415 76.4433C92.3623 71.2887 99.6121 58.7285 99.6121 48.4328C99.6121 43.5932 98.0188 40.0091 95.1198 38.3335C93.9511 37.6624 92.6134 37.3199 91.1662 37.3199H91.1616ZM76.4017 80C74.7125 80 73.142 79.5982 71.7541 78.8038C68.4077 76.8771 66.5679 72.8593 66.5679 67.5083C66.5679 56.7652 74.1373 43.6571 83.4324 38.297C88.0663 35.6215 92.4627 35.206 95.8046 37.1419C99.1465 39.0686 100.991 43.0864 100.991 48.4374C100.991 59.1759 93.4215 72.2749 84.1263 77.6441C81.4145 79.2101 78.7848 80 76.3971 80H76.4017Z" fill="black"/>
<path id="Vector_19" fill-rule="evenodd" clip-rule="evenodd" d="M35.2036 68.2434L30.3734 68.1018C29.6338 68.079 28.9993 67.8279 28.4514 67.3302L27.7027 66.6545C27.0544 66.0655 26.7211 65.3122 26.7211 64.431V62.5362L26.3057 62.4267C25.6802 62.2532 25.1872 61.929 24.7763 61.4313L23.4341 59.7786C23.0095 59.2535 22.7949 58.6828 22.7675 58.0025L22.7173 56.683L22.2288 56.5095C21.4938 56.2447 20.9368 55.7973 20.5305 55.1261L19.6813 53.7153C19.1198 52.7839 18.8824 51.8297 18.9508 50.7385L18.9874 50.1358C17.1475 49.2501 15.7962 47.4832 15.8601 45.1821L15.892 43.7119L16.0701 40.6301C16.2573 38.9134 16.8599 38.5527 18.2478 38.4385C18.8824 38.3837 19.5991 38.4614 20.1744 38.7262L20.9505 39.0869C21.6125 39.3882 21.964 39.7169 22.4571 40.3698C22.8725 40.9223 23.0917 41.5021 23.1464 42.1915L23.1875 42.6527L23.1967 44.1502L24.1143 44.5657L25.105 45.4332C25.9268 46.1546 26.3422 47.1088 26.3103 48.2L26.2326 50.9896C26.6709 51.2088 27.0316 51.396 27.4562 51.7338L28.4469 52.5191C29.3006 53.1857 29.8119 54.5235 29.7754 55.5781L29.6567 59.0344C30.8208 59.0891 31.3413 59.4864 32.3959 60.3447C33.1081 60.9246 33.5327 61.6596 33.6605 62.5728L34.0851 65.4492L35.1899 68.2525L35.2036 68.2434Z" fill="#9696FE"/>
<path id="Vector_20" fill-rule="evenodd" clip-rule="evenodd" d="M18.6268 39.1188C18.5218 39.1188 18.4168 39.1234 18.3118 39.1325C17.2572 39.2284 16.9194 39.3197 16.7641 40.7122L16.5541 45.2003C16.5085 47.0586 17.5266 48.6657 19.2934 49.5149C19.5445 49.6382 19.6997 49.903 19.6814 50.1815L19.6449 50.7842C19.5901 51.7338 19.7864 52.5465 20.2795 53.3592L21.1286 54.7654C21.4528 55.2996 21.8774 55.6512 22.4663 55.8566L22.9548 56.0347C23.2196 56.1306 23.4022 56.3771 23.4113 56.6602L23.4616 57.9751C23.4844 58.5047 23.6442 58.9385 23.9774 59.3448L25.3197 60.9976C25.6392 61.3857 25.9999 61.6231 26.4884 61.7646L26.9039 61.8788C27.2052 61.961 27.4152 62.2395 27.4152 62.5454V64.4401C27.4152 65.1159 27.6663 65.6957 28.1685 66.1477L28.9172 66.8234C29.3418 67.2115 29.812 67.4033 30.3918 67.4215L34.1765 67.5265L33.4597 65.7094L32.9941 62.6686C32.8845 61.9381 32.5512 61.3537 31.976 60.8835C30.9397 60.0388 30.5653 59.774 29.6431 59.7329C29.2642 59.7146 28.9674 59.395 28.9811 59.0115L29.0952 55.5553C29.1272 54.6467 28.657 53.551 28.0315 53.0624L27.0408 52.2771C26.6619 51.9895 26.3423 51.816 25.9269 51.6105C25.6895 51.4873 25.5388 51.2407 25.5479 50.9668L25.6255 48.1771C25.6484 47.2914 25.3242 46.5426 24.6577 45.9628L23.74 45.1592L22.9137 44.7894C22.6672 44.6707 22.5074 44.4287 22.5074 44.1593L22.4663 42.26C22.4161 41.6984 22.2472 41.2464 21.9093 40.7944C21.4574 40.1918 21.188 39.9635 20.6721 39.7261L19.896 39.3654C19.549 39.2056 19.0925 39.1234 18.6314 39.1234L18.6268 39.1188ZM35.2037 68.9328H35.1855L30.3507 68.7958C29.4468 68.7638 28.6524 68.4488 27.9813 67.8416L27.2326 67.1658C26.4382 66.4445 26.0227 65.5039 26.0227 64.431V63.0704C25.3014 62.8513 24.717 62.4586 24.2422 61.8696L22.9 60.2169C22.3796 59.5731 22.1102 58.8609 22.0782 58.0299L22.0006 57.1716C21.1058 56.8474 20.4393 56.2995 19.9462 55.4868L19.097 54.0806C18.467 53.0305 18.1931 51.9301 18.2661 50.702L18.2753 50.5513C16.2665 49.4144 15.116 47.4329 15.1708 45.1684L15.2073 43.7073L15.39 40.6072C15.6228 38.3974 16.5998 37.8952 18.1931 37.7582C19.0057 37.6898 19.8275 37.8176 20.4667 38.1052L21.2473 38.4659C22.0737 38.8449 22.5074 39.2786 23.0187 39.9635C23.5163 40.6301 23.7766 41.324 23.8496 42.1459L23.8861 42.5979L23.8953 43.7119L24.4112 43.9402C24.4705 43.9721 24.5253 44.0041 24.5801 44.0543L25.5708 44.9218C26.5523 45.7756 27.0499 46.9216 27.0134 48.2228L26.9449 50.5787C27.2554 50.7476 27.5521 50.9303 27.8945 51.1905L28.8852 51.9758C29.9809 52.8387 30.5151 54.4504 30.4786 55.6055L30.3827 58.4226C31.3734 58.6097 31.9897 59.1074 32.8434 59.8105C33.6926 60.4954 34.2039 61.3903 34.3591 62.4678L34.7837 65.3487L35.8474 67.9968C35.9296 68.216 35.9068 68.4579 35.7698 68.6451C35.642 68.8323 35.4274 68.9419 35.2037 68.9419V68.9328Z" fill="black"/>
<path id="Vector_21" fill-rule="evenodd" clip-rule="evenodd" d="M16.6866 40.3516L18.7775 41.9769L18.5492 45.593C18.5401 45.6797 18.426 45.7117 18.3392 45.7117C18.2525 45.7208 18.0699 45.5427 18.0105 45.4834L17.1477 44.6159C16.8829 44.3557 16.5907 44.0498 16.5998 43.6708L16.6866 40.3516Z" fill="#9696FE"/>
<path id="Vector_22" fill-rule="evenodd" clip-rule="evenodd" d="M17.3439 41.7395L17.2891 43.6845C17.2891 43.7439 17.4032 43.8945 17.6315 44.1228L17.9237 44.415L18.0606 42.292L17.3393 41.7395H17.3439ZM18.3437 46.4057C18.0104 46.4057 17.7548 46.2002 17.5219 45.9765L16.6545 45.109C16.3669 44.8214 15.8875 44.342 15.9058 43.6526L15.9925 40.3333C15.9971 40.0731 16.1523 39.8356 16.3897 39.7261C16.6225 39.6119 16.901 39.6439 17.111 39.8037L19.202 41.4291C19.3846 41.5706 19.485 41.7898 19.4713 42.018L19.2385 45.6386C19.2157 45.9902 18.9463 46.3691 18.3848 46.4057H18.3437Z" fill="black"/>
<path id="Vector_23" fill-rule="evenodd" clip-rule="evenodd" d="M19.5947 45.9308L22.0098 47.5425L21.9961 50.6609C21.9961 50.7385 21.9687 50.8024 21.9139 50.8572C21.8591 50.912 21.7952 50.9348 21.7221 50.9348H21.4208C20.9323 50.9303 20.5215 50.7385 20.2019 50.3732L19.9782 50.1176C19.7088 49.8071 19.5764 49.4464 19.5764 49.0355L19.5947 45.9354V45.9308Z" fill="#9696FE"/>
<path id="Vector_24" fill-rule="evenodd" clip-rule="evenodd" d="M20.284 47.2229L20.2749 49.0401C20.2749 49.2866 20.3434 49.4784 20.5032 49.661L20.7269 49.9212C20.8867 50.1039 21.0784 50.2089 21.3067 50.2317L21.3204 47.9078L20.284 47.2229ZM21.7267 51.6288H21.4208C20.7315 51.6242 20.1288 51.3412 19.686 50.8298L19.4623 50.5741C19.0833 50.1313 18.8916 49.6153 18.8916 49.0355L18.9099 45.9354C18.9099 45.6752 19.056 45.4469 19.2797 45.3236C19.5034 45.2049 19.7773 45.2186 19.9873 45.3601L22.4024 46.9672C22.5941 47.0951 22.7128 47.3097 22.7128 47.5471L22.6946 50.67C22.6946 50.9211 22.5896 51.1722 22.4024 51.3549C22.2289 51.5329 21.9869 51.6288 21.7267 51.6288Z" fill="black"/>
<path id="Vector_25" fill-rule="evenodd" clip-rule="evenodd" d="M23.6487 52.688L26.0684 54.528L26.0547 57.4181C26.0547 57.4912 26.0227 57.5596 25.9725 57.6144C25.9177 57.6692 25.8538 57.692 25.7762 57.692H25.4749C24.9909 57.6875 24.5755 57.4912 24.2605 57.1259L24.0368 56.8702C23.7674 56.5552 23.635 56.2036 23.635 55.7836L23.6533 52.688H23.6487Z" fill="#9696FE"/>
<path id="Vector_26" fill-rule="evenodd" clip-rule="evenodd" d="M24.3334 54.0806L24.3243 55.7882C24.3243 56.0347 24.3928 56.2265 24.5571 56.4137L24.7763 56.6693C24.9361 56.8565 25.1278 56.957 25.3607 56.9889L25.3743 54.8705L24.338 54.0806H24.3334ZM25.7807 58.386H25.4702C24.7808 58.3723 24.1782 58.0984 23.7354 57.5779L23.5117 57.3268C23.1282 56.8931 22.9364 56.3726 22.941 55.7882L22.9593 52.6881C22.9593 52.4278 23.1099 52.1858 23.3473 52.0671C23.5802 51.9484 23.8632 51.9804 24.0732 52.1402L26.4883 53.9847C26.6618 54.1125 26.7622 54.3226 26.7622 54.5372L26.744 57.4272C26.744 57.6738 26.6435 57.9249 26.4609 58.1075C26.2783 58.2856 26.0363 58.3906 25.7807 58.3906V58.386Z" fill="black"/>
<path id="Vector_27" fill-rule="evenodd" clip-rule="evenodd" d="M27.6343 60.5091L30.0539 62.2532L29.8439 64.7552C29.8302 64.8967 29.7115 65.0108 29.57 65.0017H29.2459C28.7619 64.9971 28.3465 64.8054 28.0269 64.4401L28.0178 64.4219C27.7484 64.1205 27.6525 63.2668 27.6525 62.8558L27.6343 60.5045V60.5091Z" fill="#9696FE"/>
<path id="Vector_28" fill-rule="evenodd" clip-rule="evenodd" d="M28.3373 61.8696L28.3464 62.8558C28.3464 63.3124 28.456 63.8512 28.5473 63.9744C28.7253 64.1799 28.9308 64.2895 29.1864 64.3032L29.328 62.591L28.3373 61.8696ZM29.5699 65.6957H29.2412C28.5564 65.6911 27.9583 65.4126 27.5109 64.8967C26.9813 64.294 26.9631 63.0111 26.9631 62.8604L26.9448 60.5136C26.9448 60.2488 27.0909 60.0068 27.3192 59.8881C27.552 59.774 27.8351 59.7877 28.0451 59.9429L30.4647 61.6962C30.661 61.8377 30.7706 62.0751 30.7478 62.3171L30.5378 64.8145C30.4876 65.3213 30.0767 65.7003 29.5745 65.7003L29.5699 65.6957Z" fill="black"/>
<path id="Vector_29" fill-rule="evenodd" clip-rule="evenodd" d="M23.2012 44.1548C22.7082 44.2004 22.3064 44.2552 21.9823 44.3237C21.1651 44.5018 20.147 44.8031 19.6357 45.4743C19.138 46.1272 19.0741 49.1816 18.9965 50.1358C18.9006 46.0906 18.0971 43.9037 23.2012 44.1502V44.1548Z" fill="#BDEDF8"/>
<path id="Vector_30" fill-rule="evenodd" clip-rule="evenodd" d="M18.9919 50.8344H18.9691C18.5993 50.8161 18.3071 50.5239 18.298 50.1587C18.2843 49.6747 18.266 49.2227 18.2432 48.789C18.1565 46.8988 18.0834 45.4058 19.0604 44.4287C19.8274 43.6617 21.1194 43.3649 23.224 43.4608C23.5893 43.4791 23.8723 43.7758 23.886 44.132C23.8997 44.4972 23.6258 44.8031 23.2651 44.8396C22.804 44.8944 22.4251 44.9401 22.1192 45.004C21.7448 45.0862 20.6126 45.3282 20.1835 45.8989C19.905 46.3098 19.7772 48.5744 19.7269 49.4236C19.7087 49.7432 19.695 50.008 19.6767 50.1952C19.6493 50.5559 19.3435 50.8298 18.9874 50.8298L18.9919 50.8344Z" fill="black"/>
<path id="Vector_31" fill-rule="evenodd" clip-rule="evenodd" d="M33.1448 29.9235L35.0577 30.1427C35.2312 30.1609 35.3682 30.2477 35.4595 30.3938C36.0301 31.3069 32.46 34.8864 31.8254 35.6215L29.4971 35.1512C30.2823 33.3524 31.1726 31.6722 32.6289 30.1609C32.775 30.0103 32.9348 29.9007 33.1402 29.919L33.1448 29.9235Z" fill="#9696FE"/>
<path id="Vector_32" fill-rule="evenodd" clip-rule="evenodd" d="M30.4876 34.649L31.5742 34.8682C31.6427 34.7997 31.7157 34.7221 31.7979 34.6308C33.9573 32.2977 34.6421 31.2658 34.7928 30.8093L33.1538 30.6266C31.912 31.9187 31.1177 33.3067 30.4876 34.649ZM31.8299 36.3246C31.7797 36.3246 31.7386 36.3201 31.6883 36.3064L29.3646 35.8361C29.1637 35.795 28.9856 35.658 28.8898 35.4754C28.7939 35.2836 28.7848 35.0691 28.8715 34.8773C29.6248 33.156 30.5379 31.348 32.1403 29.6815C32.4736 29.3437 32.8388 29.193 33.2269 29.2387L35.1398 29.4487C35.5233 29.4898 35.852 29.6952 36.0529 30.0194C36.6966 31.0558 35.4685 32.704 32.8206 35.5622C32.6106 35.7859 32.4508 35.9639 32.3549 36.0735C32.2225 36.2287 32.0308 36.3155 31.8344 36.3155L31.8299 36.3246Z" fill="black"/>
<path id="Vector_33" fill-rule="evenodd" clip-rule="evenodd" d="M26.2373 50.985C25.1188 51.1038 23.7309 51.4507 23.2241 52.4369C22.8863 53.1035 22.8132 55.7836 22.7174 56.683C22.6032 53.7519 21.7952 50.775 26.2327 50.9896L26.2373 50.985Z" fill="#BDEDF8"/>
<path id="Vector_34" fill-rule="evenodd" clip-rule="evenodd" d="M22.7219 57.377H22.6991C22.3339 57.3679 22.0463 57.0757 22.028 56.7104C22.0143 56.3634 21.9915 56.0164 21.9687 55.674C21.8591 54.0349 21.7449 52.3411 22.7996 51.2636C23.5163 50.533 24.6622 50.2089 26.2692 50.2911C26.6345 50.3093 26.9175 50.6015 26.9312 50.9622C26.9404 51.3275 26.671 51.6334 26.3103 51.6745C25.0046 51.8114 24.1281 52.195 23.845 52.752C23.6533 53.1127 23.5391 54.8796 23.4844 55.7334C23.457 56.1443 23.4341 56.5141 23.4067 56.7515C23.3702 57.1031 23.0689 57.3679 22.7219 57.3679V57.377Z" fill="black"/>
<path id="Vector_35" fill-rule="evenodd" clip-rule="evenodd" d="M29.5928 59.0389C26.8992 59.217 26.8809 60.3538 26.7075 62.6367C26.6481 59.8425 26.4016 58.9202 29.5928 59.0389Z" fill="#BDEDF8"/>
<path id="Vector_36" fill-rule="evenodd" clip-rule="evenodd" d="M26.712 63.2439H26.6983C26.3285 63.2348 26.0271 63.0202 26.018 62.6504L26.0043 62.139C25.9678 60.7237 25.9404 59.7055 26.6252 59.0252C27.1731 58.4819 28.0268 58.2901 29.6201 58.3495C29.9853 58.3678 30.2821 58.6691 30.2866 59.0344C30.2866 59.4042 30.0036 59.7101 29.6384 59.7375C27.6159 59.8653 27.5748 60.3812 27.415 62.5317C27.415 62.5545 27.4059 62.5865 27.4059 62.6139V62.623C27.3283 62.9517 27.0452 63.2485 26.712 63.2485V63.2439Z" fill="black"/>
<path id="Vector_37" fill-rule="evenodd" clip-rule="evenodd" d="M41.4629 29.1656C41.6684 29.7455 42.4536 31.2476 41.3442 32.5853C42.198 31.6996 42.9513 31.5946 43.878 31.5991C42.4536 31.2384 42.029 30.0148 41.4584 29.1656H41.4629Z" fill="#BDEDF8"/>
<path id="Vector_38" fill-rule="evenodd" clip-rule="evenodd" d="M41.3442 33.2793C41.1799 33.2793 41.0155 33.2199 40.8831 33.1012C40.6046 32.8547 40.5727 32.4301 40.8101 32.1424C41.4857 31.3252 41.2255 30.4577 40.8968 29.6313L40.8055 29.403C40.6914 29.0652 40.8329 28.709 41.1433 28.5492C41.4583 28.3894 41.8373 28.4899 42.0381 28.7867C42.1523 28.9556 42.2619 29.1474 42.376 29.3391C42.7869 30.0468 43.1795 30.7088 44.0469 30.9234C44.3848 31.0102 44.6085 31.3343 44.5628 31.6859C44.5217 32.0329 44.2295 32.2931 43.878 32.2931C43.0106 32.3525 42.4856 32.4073 41.8418 33.0647C41.7094 33.2108 41.5223 33.2839 41.3442 33.2839V33.2793Z" fill="black"/>
<path id="Vector_39" fill-rule="evenodd" clip-rule="evenodd" d="M54.0313 31.1882C53.0634 31.6996 52.721 32.042 50.2466 32.2246C52.2462 32.4255 51.5842 33.0967 51.8079 34.3112C51.8719 32.3936 53.0086 32.0648 54.0313 31.1837V31.1882Z" fill="#BDEDF8"/>
<path id="Vector_40" fill-rule="evenodd" clip-rule="evenodd" d="M51.8079 35.0006C51.4746 35.0006 51.187 34.7632 51.1277 34.4344C51.0638 34.0874 51.0592 33.7724 51.0592 33.503C51.0592 33.3569 51.0592 33.156 51.0364 33.1012C51.0364 33.1012 50.872 32.9825 50.1826 32.914C49.822 32.8867 49.5526 32.5762 49.5572 32.2201C49.5572 31.8594 49.8448 31.5672 50.2009 31.5352C52.2325 31.3891 52.6662 31.1471 53.383 30.7545L53.7117 30.5764C54.0221 30.4121 54.4102 30.5034 54.6065 30.7956C54.8074 31.0878 54.7572 31.485 54.4878 31.7133C54.2595 31.9096 54.0221 32.0831 53.7893 32.2566C53.0132 32.8227 52.5429 33.1652 52.5064 34.3385C52.4973 34.6855 52.2188 34.9732 51.8627 35.0051H51.8125L51.8079 35.0006Z" fill="black"/>
</g>
<defs>
<clipPath id="clip0_54_384">
<rect width="101" height="80" fill="white"/>
</clipPath>
</defs>
</svg>
