<svg width="84" height="89" viewBox="0 0 84 89" fill="none" xmlns="http://www.w3.org/2000/svg">
<g id="integrate icon" clip-path="url(#clip0_54_454)">
<path id="Vector" fill-rule="evenodd" clip-rule="evenodd" d="M42.7148 80.9228C61.0307 80.9228 75.8731 66.1272 75.8731 47.877C75.8731 29.6267 61.0307 14.8267 42.7148 14.8267C24.399 14.8267 9.57886 29.6267 9.57886 47.8814C9.57886 66.1361 24.4168 80.9273 42.7148 80.9273V80.9228Z" fill="#9696FE"/>
<path id="Vector_2" fill-rule="evenodd" clip-rule="evenodd" d="M42.7148 15.5061C24.8175 15.5061 10.2646 30.0308 10.2646 47.8814C10.2646 65.732 24.8175 80.2567 42.7148 80.2567C60.612 80.2567 75.1872 65.732 75.1872 47.8814C75.1872 30.0308 60.6254 15.5061 42.7148 15.5061ZM42.7148 81.6022C24.0783 81.6022 8.91528 66.4736 8.91528 47.8814C8.91528 29.2892 24.0783 14.1562 42.7148 14.1562C61.3513 14.1562 76.541 29.2848 76.541 47.877C76.541 66.4691 61.378 81.5978 42.7148 81.5978V81.6022Z" fill="black"/>
<path id="Vector_3" fill-rule="evenodd" clip-rule="evenodd" d="M71.1971 30.87C75.8551 33.5476 79.1728 36.7314 81.1321 40.1328C82.5883 42.6372 83.3097 45.2571 83.3097 47.877C83.3097 50.4968 82.5839 53.1123 81.1321 55.6167C79.1728 59.0181 75.8551 62.1974 71.1971 64.8795H71.215C63.3195 69.4265 53.0149 71.6956 42.7147 71.6956C32.4145 71.6956 22.1277 69.4265 14.2323 64.8839C9.57873 62.2019 6.27894 59.0181 4.28838 55.6167C2.8411 53.1167 2.11523 50.4968 2.11523 47.877C2.11523 45.2571 2.8411 42.6417 4.28838 40.1373C6.27894 36.7359 9.57873 33.5476 14.2323 30.87L14.3303 30.8167C13.6044 32.0201 12.9587 33.2768 12.3798 34.5734C9.57873 36.6071 7.49911 38.8451 6.12308 41.1896C4.88955 43.3566 4.25275 45.6168 4.25275 47.877C4.25275 50.1372 4.8851 52.3885 6.12308 54.5643C7.9177 57.6548 10.9726 60.5722 15.301 63.0544C22.8581 67.4016 32.7753 69.573 42.7147 69.573C52.6542 69.573 62.5936 67.4016 70.1506 63.0544C74.4568 60.5722 77.5117 57.6548 79.3063 54.5643C80.5666 52.3973 81.1945 50.1372 81.1945 47.877C81.1945 45.6168 80.5666 43.3566 79.3063 41.1896C77.9526 38.8451 75.873 36.6071 73.0675 34.5734C72.4975 33.2768 71.8473 32.0201 71.0992 30.8167L71.1971 30.87Z" fill="#9696FE"/>
<path id="Vector_4" fill-rule="evenodd" clip-rule="evenodd" d="M4.90292 40.4303C4.90292 40.4303 4.90292 40.457 4.88511 40.4747C3.50908 42.8593 2.80548 45.3548 2.80548 47.877C2.80548 50.3992 3.51353 52.8947 4.88511 55.2881C6.86231 58.7072 10.1309 61.7401 14.5752 64.3022C22.0921 68.6317 32.085 71.0206 42.7103 71.0206C53.3355 71.0206 63.3329 68.6361 70.8721 64.3022C75.294 61.7489 78.536 58.7294 80.5221 55.3281C80.5443 55.3103 80.5443 55.2925 80.5621 55.2837C81.9382 52.8947 82.6373 50.4036 82.6373 47.8814C82.6373 45.3592 81.9337 42.8593 80.5621 40.4703C78.9011 37.6106 76.345 35.0174 72.9472 32.7484C73.1788 33.2146 73.4059 33.6764 73.6152 34.1427C76.3851 36.1675 78.4781 38.4277 79.8942 40.8522C79.8942 40.8655 79.912 40.8788 79.912 40.8966C81.2123 43.1523 81.8758 45.4969 81.8758 47.8814C81.8758 50.2659 81.2078 52.6416 79.8942 54.9062C77.966 58.2144 74.7998 61.1584 70.4846 63.645C70.4668 63.6583 70.449 63.6628 70.4267 63.6717C63.0256 67.9167 53.1796 70.2524 42.7103 70.2524C32.2409 70.2524 22.4128 67.9123 15.0116 63.6717C14.9938 63.6628 14.9715 63.6539 14.9537 63.645C10.6252 61.1584 7.45458 58.2144 5.55308 54.9062C4.23495 52.6416 3.57142 50.2748 3.57142 47.8814C3.57142 45.488 4.2394 43.1168 5.55308 40.8566C6.96028 38.4188 9.06217 36.1675 11.8276 34.1427C12.0324 33.6808 12.2462 33.219 12.4956 32.7572C9.07999 35.0396 6.56395 37.6018 4.90292 40.4348V40.4303ZM42.7147 72.3705C31.8579 72.3705 21.6334 69.9149 13.9117 65.4745C9.23585 62.7925 5.82027 59.5909 3.71838 55.963C2.21321 53.3743 1.44727 50.6478 1.44727 47.8859C1.44727 45.1239 2.21321 42.433 3.70057 39.8442C3.70057 39.8353 3.70057 39.8176 3.71838 39.7998C5.82027 36.1764 9.24921 32.9748 13.9117 30.2928C14.1744 30.1374 14.5529 30.1596 14.7667 30.3772C14.9715 30.5947 15.0739 30.9056 14.9181 31.1676C14.1922 32.362 13.5421 33.6054 12.9899 34.8531C12.9409 34.9641 12.8563 35.0574 12.7583 35.1284C10.0909 37.0689 8.04685 39.2181 6.71536 41.5316C5.53082 43.5831 4.92073 45.7189 4.92073 47.8814C4.92073 50.0439 5.53082 52.1709 6.71536 54.2313C8.50998 57.3218 11.4802 60.0927 15.5905 62.455C15.6083 62.4594 15.6261 62.4727 15.6484 62.4772C22.8358 66.629 32.4502 68.9114 42.7147 68.9114C52.9793 68.9114 62.6114 66.629 69.8078 62.4772C69.8256 62.4727 69.8478 62.4594 69.8656 62.455C73.9492 60.0882 76.9462 57.3218 78.7319 54.2313C79.9164 52.1798 80.5265 50.0395 80.5265 47.8814C80.5265 45.7234 79.9164 43.5875 78.7319 41.5316C78.7141 41.5138 78.7141 41.5005 78.6963 41.4872C77.3603 39.1959 75.3386 37.0556 72.6711 35.1284C72.5732 35.0574 72.4975 34.9641 72.4574 34.8531C71.9052 33.5965 71.255 32.3532 70.5292 31.1676C70.3733 30.91 70.4134 30.5681 70.6271 30.3549C70.832 30.1329 71.1793 30.0841 71.4421 30.2395L71.54 30.2928C76.1936 32.9748 79.627 36.1764 81.7244 39.8042C83.2385 42.393 83.9955 45.115 83.9955 47.8814C83.9955 50.6478 83.234 53.3343 81.7467 55.9142C81.7467 55.932 81.7244 55.9497 81.7244 55.9586C79.627 59.5909 76.1936 62.788 71.54 65.4656C63.8138 69.9149 53.5893 72.3705 42.7147 72.3705Z" fill="black"/>
<path id="Vector_5" fill-rule="evenodd" clip-rule="evenodd" d="M52.0574 76.8554C56.4526 76.8554 60.0018 73.3074 60.0018 68.9336C60.0018 64.5598 56.4526 61.0074 52.0574 61.0074C47.6621 61.0074 44.104 64.5553 44.104 68.9336C44.104 73.3119 47.6754 76.8554 52.0574 76.8554Z" fill="white"/>
<path id="Vector_6" fill-rule="evenodd" clip-rule="evenodd" d="M52.0574 61.6823C48.054 61.6823 44.7942 64.9327 44.7942 68.9291C44.7942 72.9256 48.054 76.176 52.0574 76.176C56.0608 76.176 59.3338 72.9256 59.3338 68.9291C59.3338 64.9327 56.0697 61.6823 52.0574 61.6823ZM52.0574 77.5303C47.3147 77.5303 43.436 73.6715 43.436 68.9291C43.436 64.1867 47.3103 60.3324 52.0574 60.3324C56.8044 60.3324 60.6831 64.1867 60.6831 68.9291C60.6831 73.6715 56.8133 77.5303 52.0574 77.5303Z" fill="black"/>
<path id="Vector_7" fill-rule="evenodd" clip-rule="evenodd" d="M42.2026 12.864C48.5884 9.18286 54.6002 7.43332 59.7881 7.43332C63.1458 7.43332 66.1606 8.15711 68.7345 9.55586C71.3262 10.9502 73.4682 13.0283 75.0313 15.737C76.9417 19.0185 77.9882 23.188 77.9882 28.1924C77.9882 32.8149 77.0931 37.735 75.4543 42.6994C75.2227 41.2474 74.9021 39.8264 74.5013 38.4454C75.3831 34.9286 75.8729 31.4784 75.8729 28.1924C75.8729 23.5655 74.9199 19.7423 73.1966 16.7894C71.8473 14.4359 69.9947 12.6331 67.7236 11.412C65.4748 10.1908 62.7851 9.5603 59.7881 9.5603C54.9475 9.5603 49.3009 11.2121 43.249 14.689C33.9553 20.0398 25.5433 28.6587 19.4424 38.2545C13.355 47.8326 9.57869 58.3564 9.57869 67.5748C9.57869 72.1973 10.5361 76.0206 12.2328 78.9735V78.9646C13.6043 81.3225 15.4524 83.1342 17.7057 84.3508C19.9724 85.572 22.6621 86.207 25.6412 86.207C30.4863 86.207 36.1507 84.5507 42.2026 81.0694C42.2783 81.0249 42.354 80.9717 42.4519 80.9273H42.7147C44.1085 80.9273 45.4623 80.8429 46.7982 80.683C45.6359 81.469 44.4514 82.215 43.249 82.9033C36.8588 86.5799 30.847 88.3295 25.6412 88.3295C22.3014 88.3295 19.2866 87.6057 16.6948 86.2114C14.1031 84.8127 11.9611 82.739 10.3981 80.0303C8.51438 76.7488 7.45898 72.5703 7.45898 67.5748C7.45898 57.9523 11.351 47.02 17.6478 37.1222C23.9223 27.2599 32.606 18.3879 42.2026 12.8684V12.864Z" fill="#9696FE"/>
<path id="Vector_8" fill-rule="evenodd" clip-rule="evenodd" d="M11.0082 79.7283C12.4955 82.286 14.5217 84.2709 17.0155 85.6164C23.5616 89.1554 33.1003 87.9565 42.9195 82.3127C43.3203 82.0729 43.7433 81.8242 44.1619 81.5667C43.6855 81.5889 43.1912 81.5978 42.7147 81.5978L42.2025 81.0649L42.5232 81.6511C32.9845 87.1439 23.6908 88.3473 17.3984 84.937C14.9982 83.6493 13.07 81.7487 11.6539 79.3021C9.82361 76.1582 8.91071 72.2107 8.91071 67.5704C8.91071 58.5296 12.4332 47.988 18.8635 37.8904C25.2939 27.775 33.8217 19.3293 42.9151 14.1073C52.4537 8.61004 61.7475 7.40668 68.0442 10.8169C70.449 12.1136 72.3727 14.0096 73.7844 16.4519C75.6191 19.6002 76.532 23.5522 76.532 28.188C76.532 31.4118 76.0688 34.8531 75.1782 38.4232C75.3296 38.9161 75.4632 39.4135 75.5745 39.9197C76.719 35.8078 77.2935 31.8736 77.2935 28.188C77.2935 23.4234 76.3405 19.3471 74.4479 16.0744C72.9427 13.4945 70.9254 11.4963 68.4228 10.1464C61.8633 6.6074 52.3201 7.80188 42.5187 13.4413C42.5187 13.4546 42.4965 13.4635 42.4786 13.4768C33.3051 18.7698 24.6794 27.291 18.2134 37.4863C11.7118 47.7038 8.1225 58.392 8.1225 67.5748C8.1225 72.3394 9.1022 76.4202 10.9859 79.6839C11.0037 79.7017 11.0037 79.7106 11.0037 79.7283H11.0082ZM25.6412 89C22.19 89 19.0817 88.2585 16.3653 86.8064C13.64 85.3278 11.449 83.1608 9.82806 80.3678C9.8058 80.35 9.8058 80.3322 9.78798 80.3234C7.80187 76.8465 6.77319 72.5614 6.77319 67.5748C6.77319 58.1433 10.4337 47.1976 17.0734 36.7581C23.6729 26.3719 32.4679 17.6819 41.8597 12.2779C41.8775 12.2645 41.8997 12.2557 41.9175 12.2468C52.1242 6.38094 62.1215 5.19534 69.0596 8.9564C71.7894 10.4306 74.007 12.602 75.628 15.3951C77.6453 18.8808 78.6606 23.1836 78.6606 28.188C78.6606 32.775 77.8056 37.7261 76.1045 42.9037C76.0065 43.2012 75.7438 43.401 75.4142 43.361C75.0936 43.3388 74.8442 43.1079 74.7863 42.7971C74.5726 41.3939 74.252 39.9863 73.8512 38.6275C73.8155 38.5121 73.8155 38.3877 73.8334 38.2723C74.7329 34.7421 75.1916 31.3496 75.1916 28.188C75.1916 23.7831 74.3277 20.062 72.631 17.1224C71.3307 14.8977 69.5806 13.1704 67.403 12.0026C61.5426 8.82319 52.712 10.0221 43.5964 15.2707C34.7079 20.3906 26.3092 28.6809 19.9991 38.6142C13.7246 48.4986 10.2689 58.7827 10.2689 67.5704C10.2689 71.9709 11.1239 75.692 12.8295 78.6316C14.1254 80.8607 15.8799 82.588 18.0308 83.7558C23.909 86.9352 32.7396 85.7274 41.8597 80.4832C41.9532 80.4255 42.3139 80.2523 42.4519 80.2523H42.7147C44.0506 80.2523 45.391 80.1724 46.7225 80.0037C47.0431 79.9504 47.3148 80.1457 47.4306 80.4388C47.5419 80.7319 47.4306 81.056 47.1767 81.2292C45.9966 82.0329 44.7943 82.7878 43.5919 83.4761C37.313 87.0817 31.1142 88.9911 25.6412 88.9911V89Z" fill="black"/>
<path id="Vector_9" fill-rule="evenodd" clip-rule="evenodd" d="M61.0884 16.5185C65.4747 16.5185 69.0417 12.9661 69.0417 8.59227C69.0417 4.21842 65.4747 0.674942 61.0884 0.674942C56.702 0.674942 53.1528 4.21842 53.1528 8.59227C53.1528 12.9661 56.702 16.5185 61.0884 16.5185Z" fill="white"/>
<path id="Vector_10" fill-rule="evenodd" clip-rule="evenodd" d="M61.0884 1.3499C57.0806 1.3499 53.8209 4.60031 53.8209 8.59672C53.8209 12.5931 57.0806 15.8524 61.0884 15.8524C65.0963 15.8524 68.356 12.5931 68.356 8.59672C68.356 4.60031 65.0874 1.3499 61.0884 1.3499ZM61.0884 17.1979C56.3369 17.1979 52.4626 13.3391 52.4626 8.59672C52.4626 3.85431 56.3369 0 61.0884 0C65.8399 0 69.7097 3.85875 69.7097 8.59672C69.7097 13.3347 65.8399 17.1979 61.0884 17.1979Z" fill="black"/>
<path id="Vector_11" fill-rule="evenodd" clip-rule="evenodd" d="M43.249 12.864C36.8588 9.18286 30.847 7.43332 25.6412 7.43332C22.3014 7.43332 19.2866 8.15711 16.6948 9.55586C14.1209 10.9502 11.9834 13.0283 10.3981 15.737C8.51438 19.0185 7.45898 23.188 7.45898 28.1924C7.45898 32.8149 8.35407 37.735 9.97947 42.6994C10.211 41.2474 10.5361 39.8264 10.9503 38.4454C10.0507 34.9286 9.58314 31.4784 9.58314 28.1924C9.58314 23.5655 10.5406 19.7423 12.2372 16.7894C13.6088 14.4359 15.4569 12.6331 17.7102 11.412C19.9768 10.1908 22.6665 9.5603 25.6457 9.5603C30.4907 9.5603 36.1552 11.2121 42.207 14.689C51.4918 20.0398 59.9083 28.6587 66.0136 38.2545C72.0966 47.8326 75.8774 58.3564 75.8774 67.5748C75.8774 72.1973 74.9244 76.0206 73.201 78.9735V78.9646C71.8517 81.3225 69.9814 83.1342 67.7281 84.3508C65.4792 85.572 62.7895 86.207 59.7925 86.207C54.952 86.207 49.3053 84.5507 43.2535 81.0694C43.1778 81.0249 43.0798 80.9717 43.0041 80.9273H42.7147C41.3431 80.9273 39.9849 80.8429 38.6489 80.683C39.8157 81.469 41.0002 82.215 42.2026 82.9033C48.5706 86.5799 54.6002 88.3295 59.7881 88.3295C63.1458 88.3295 66.1606 87.6057 68.7345 86.2114C71.3262 84.8127 73.4682 82.739 75.0313 80.0303C76.9417 76.7488 77.9882 72.5703 77.9882 67.5748C77.9882 57.9523 74.1005 47.02 67.8038 37.1222C61.5248 27.2599 52.8456 18.3879 43.249 12.8684V12.864Z" fill="#9696FE"/>
<path id="Vector_12" fill-rule="evenodd" clip-rule="evenodd" d="M41.2808 81.5667C41.6994 81.8242 42.1047 82.0729 42.5232 82.3127C52.3291 87.9565 61.8678 89.1554 68.4273 85.6164C70.9033 84.2709 72.9294 82.286 74.4346 79.7283C74.4346 79.7106 74.4346 79.7017 74.4524 79.6839C76.345 76.4157 77.298 72.335 77.298 67.5748C77.298 58.3964 73.7266 47.7082 67.2249 37.4863C60.7367 27.2866 52.1198 18.7609 42.9597 13.4723C42.9418 13.4679 42.9196 13.4546 42.9018 13.4501C33.0959 7.80187 23.5572 6.60295 17.0111 10.1464C14.5173 11.5008 12.4733 13.4945 10.986 16.0744C9.10227 19.3471 8.12257 23.4234 8.12257 28.188C8.12257 31.8736 8.71484 35.8078 9.84149 39.9197C9.97509 39.4223 10.1131 38.9161 10.2423 38.4232C9.34274 34.8487 8.90633 31.4118 8.90633 28.188C8.90633 23.5477 9.82368 19.6002 11.6495 16.4519C13.0656 14.0096 14.9893 12.1091 17.3762 10.8169C23.6864 7.41111 32.9757 8.61004 42.5188 14.1073C51.5988 19.3293 60.1444 27.775 66.5748 37.8904C73.0051 47.988 76.5365 58.5296 76.5365 67.5704C76.5365 72.2106 75.6191 76.1582 73.7889 79.302C72.3772 81.7532 70.4312 83.6492 68.0488 84.937C61.752 88.3473 52.4583 87.1439 42.9196 81.651L42.8261 81.5978H42.7103C42.2338 81.5978 41.7573 81.5844 41.2764 81.5667H41.2808ZM59.7882 89C54.333 89 48.1298 87.0906 41.8597 83.4849C40.6574 82.7967 39.455 82.0418 38.2705 81.2381C38.0033 81.0649 37.9098 80.7408 38.0211 80.4477C38.1146 80.1546 38.3996 79.9726 38.7292 80.0125C40.0473 80.1813 41.3966 80.2612 42.7147 80.2612C42.8483 80.2612 43.2491 80.2923 43.3426 80.3456C43.3426 80.35 43.5965 80.4921 43.5965 80.4921C52.7121 85.7407 61.5293 86.9441 67.4031 83.7647C69.5762 82.588 71.3308 80.8651 72.6311 78.6315C74.3277 75.6964 75.1917 71.9753 75.1917 67.5748C75.1917 58.7872 71.736 48.5031 65.4392 38.6186C59.1246 28.6898 50.7527 20.395 41.8642 15.2752C32.7441 10.0265 23.9268 8.82762 18.0353 12.007C15.8844 13.1748 14.1254 14.9022 12.834 17.1268C11.1285 20.0664 10.2734 23.7919 10.2734 28.1924C10.2734 31.3585 10.7099 34.7465 11.6094 38.2767C11.6495 38.3922 11.6495 38.5165 11.6094 38.6319C11.2131 39.9907 10.8835 41.3939 10.6609 42.8015C10.6208 43.1124 10.3492 43.3388 10.0463 43.3655C9.72125 43.4054 9.45407 43.2056 9.36055 42.9081C7.65944 37.7305 6.78662 32.7794 6.78662 28.1924C6.78662 23.188 7.8153 18.8852 9.84149 15.3995C11.4624 12.602 13.6534 10.4351 16.3787 8.96083C23.3435 5.19977 33.3408 6.39425 43.5653 12.2601C43.5653 12.2645 43.5831 12.269 43.6054 12.2823C52.9748 17.6774 61.7832 26.3719 68.3872 36.7625C75.0224 47.1976 78.6696 58.1477 78.6696 67.5793C78.6696 72.5614 77.6587 76.8509 75.6548 80.3278C75.6548 80.3456 75.6548 80.3589 75.637 80.3722C74.016 83.1652 71.8206 85.3322 69.0686 86.8109C66.3833 88.2673 63.2527 89.0044 59.7971 89.0044L59.7882 89Z" fill="black"/>
<path id="Vector_13" fill-rule="evenodd" clip-rule="evenodd" d="M8.64359 31.4207C13.0344 31.4207 16.5791 27.8772 16.5791 23.5033C16.5791 19.1295 13.03 15.5771 8.64359 15.5771C4.25723 15.5771 0.685791 19.1206 0.685791 23.5033C0.685791 27.8861 4.23941 31.4207 8.64359 31.4207Z" fill="white"/>
<path id="Vector_14" fill-rule="evenodd" clip-rule="evenodd" d="M8.64359 16.2521C4.61793 16.2521 1.35821 19.5025 1.35821 23.5033C1.35821 27.5042 4.61793 30.7501 8.64359 30.7501C12.6692 30.7501 15.9111 27.4997 15.9111 23.5033C15.9111 19.5069 12.6514 16.2521 8.64359 16.2521ZM8.64359 32.1C3.8787 32.1 0 28.2413 0 23.5033C0 18.7654 3.87425 14.9022 8.64359 14.9022C13.4129 14.9022 17.2471 18.7609 17.2471 23.5033C17.2471 28.2457 13.3951 32.1 8.64359 32.1Z" fill="black"/>
</g>
<defs>
<clipPath id="clip0_54_454">
<rect width="84" height="89" fill="white"/>
</clipPath>
</defs>
</svg>
