<svg width="85" height="101" viewBox="0 0 85 101" fill="none" xmlns="http://www.w3.org/2000/svg">
<g id="support icon" clip-path="url(#clip0_54_425)">
<path id="Vector" fill-rule="evenodd" clip-rule="evenodd" d="M73.5464 92.9691L72.3296 91.1761C79.4411 82.1263 78.3912 71.8819 75.3815 63.0057L77.3234 61.4374C80.7023 71.4125 81.4253 83.0874 73.5486 92.9691H73.5464Z" fill="#9696FE"/>
<path id="Vector_2" fill-rule="evenodd" clip-rule="evenodd" d="M73.1682 91.205L73.5864 91.819C79.4989 83.8971 80.6423 74.0665 76.9808 62.5808L76.1756 63.2348C79.8748 74.4847 78.8805 83.6435 73.1659 91.2028L73.1682 91.205ZM73.5463 93.6476H73.5285C73.3216 93.6365 73.1103 93.5275 72.9947 93.3495L71.7757 91.5565C71.6044 91.3162 71.6222 90.987 71.7935 90.7645C77.5681 83.4166 78.5201 74.4069 74.7475 63.2259C74.6563 62.9612 74.7475 62.6631 74.9588 62.4851L76.8852 60.9168C77.0565 60.7722 77.2878 60.7277 77.4947 60.79C77.7238 60.8478 77.8795 61.0147 77.9551 61.2216C82.206 73.7462 80.8491 84.8693 74.0824 93.3896C73.9512 93.5564 73.7621 93.6476 73.5485 93.6476H73.5463Z" fill="black"/>
<path id="Vector_3" fill-rule="evenodd" clip-rule="evenodd" d="M70.8816 100.248C74.6565 99.6919 77.288 96.1592 76.7118 92.3707C76.1602 88.5799 72.6322 85.9593 68.8418 86.5222C65.0514 87.0783 62.4377 90.6066 62.9938 94.3995C63.5632 98.1925 67.0912 100.806 70.8816 100.248Z" fill="black"/>
<path id="Vector_4" fill-rule="evenodd" clip-rule="evenodd" d="M69.8694 87.1206C69.5646 87.1206 69.2599 87.1428 68.9396 87.1895C65.5273 87.6945 63.165 90.8846 63.661 94.3017C64.1726 97.7142 67.338 100.081 70.7681 99.5807C72.4275 99.3338 73.8934 98.4617 74.8877 97.1158C75.8998 95.7766 76.2958 94.1237 76.0489 92.4686C75.8198 90.8135 74.9455 89.3541 73.5909 88.3553C72.5053 87.5455 71.213 87.1206 69.8738 87.1206H69.8694ZM69.8538 101C66.1368 101 62.878 98.2704 62.3219 94.4952C61.7124 90.3418 64.5908 86.4643 68.7438 85.8548C70.748 85.55 72.7656 86.055 74.4072 87.2674C76.0288 88.4843 77.0966 90.2595 77.4013 92.2706C77.6838 94.2816 77.1878 96.286 75.971 97.9256C74.7476 99.5562 72.9792 100.62 70.9794 100.913C70.5946 100.971 70.232 101 69.8538 101Z" fill="black"/>
<path id="Vector_5" fill-rule="evenodd" clip-rule="evenodd" d="M9.41604 59.5998L16.0693 55.7623L16.5453 55.6066C17.573 55.3152 18.7164 55.2863 19.7863 55.4464C22.7782 55.9114 25.75 57.878 27.9211 59.9224C32.5501 64.2604 36.2516 71.1834 36.7855 77.5503C36.9745 79.7349 36.7855 82.2042 35.849 84.2219C35.4864 85.0028 34.9525 85.8014 34.3275 86.4043L33.9471 86.7424L27.296 90.5799C27.5607 90.3396 27.7899 90.1438 28.0368 89.8724C28.7597 89.0516 29.2958 87.9949 29.6384 86.9537C30.5748 83.995 30.2301 80.3933 29.427 77.4346C27.8477 71.5282 23.8437 65.2481 18.792 61.7443C16.8501 60.394 14.4077 59.2394 11.9897 59.1883C11.3224 59.1771 10.5416 59.2572 9.89207 59.4485L9.41382 59.6043L9.41604 59.5998Z" fill="#9696FE"/>
<path id="Vector_6" fill-rule="evenodd" clip-rule="evenodd" d="M12.5991 58.5409C15.1906 58.7656 17.5907 60.0803 19.1767 61.1837C24.1105 64.603 28.3792 70.912 30.0742 77.2544C30.6481 79.3923 31.4467 83.5167 30.2633 87.1584C30.1499 87.5655 29.983 87.9637 29.8095 88.3486L33.6022 86.1529L33.8669 85.8948C34.383 85.4076 34.9013 84.6757 35.2394 83.9305C36.2159 81.8215 36.2493 79.3233 36.118 77.5992C35.6242 71.704 32.1318 64.7943 27.4672 60.4096C25.9791 59.0303 23.0028 56.6299 19.6706 56.1183C18.6429 55.9581 17.5907 56.0026 16.7365 56.2562L16.2761 56.4053L12.5991 58.5431V58.5409ZM27.2959 91.2495C27.089 91.2495 26.8933 91.1516 26.7621 90.967C26.5552 90.6911 26.5886 90.3018 26.8599 90.0704C27.1246 89.8302 27.3137 89.6567 27.5273 89.4142C28.1368 88.7245 28.6706 87.7769 28.9909 86.7424C30.0587 83.4277 29.3135 79.5902 28.7841 77.6014C27.1647 71.546 23.0851 65.5418 18.4138 62.2894C16.2027 60.7611 13.9137 59.8935 11.974 59.8534C11.3423 59.8356 10.6349 59.9268 10.0855 60.0892L9.62503 60.2383C9.30249 60.3473 8.94213 60.1916 8.80866 59.8757C8.65295 59.5598 8.79087 59.186 9.09562 59.0147L15.7244 55.1773L16.3339 54.9593C17.4016 54.6545 18.6607 54.5855 19.8797 54.7746C23.5633 55.3441 26.8021 57.9291 28.3814 59.4218C33.3731 64.0869 36.9366 71.1834 37.4527 77.4858C37.624 79.37 37.5683 82.1219 36.465 84.4955C36.0402 85.4076 35.4551 86.253 34.8056 86.8848L34.403 87.2407L27.6407 91.1538C27.5428 91.2161 27.4094 91.245 27.2959 91.245V91.2495Z" fill="black"/>
<path id="Vector_7" fill-rule="evenodd" clip-rule="evenodd" d="M17.4995 90.2506C10.4859 86.1996 4.80249 76.3579 4.80249 68.2514C4.80249 60.1448 10.4837 56.8702 17.4995 60.9146C24.5087 64.9656 30.2122 74.8229 30.2122 82.925C30.2122 91.027 24.5065 94.3017 17.4995 90.2506Z" fill="white"/>
<path id="Vector_8" fill-rule="evenodd" clip-rule="evenodd" d="M17.8444 89.67C21.0209 91.5031 23.9571 91.819 26.1504 90.5554C28.3214 89.2963 29.5226 86.5867 29.5226 82.925C29.5226 75.0476 23.9727 65.435 17.1548 61.4996C13.9894 59.6666 11.0354 59.3507 8.86434 60.6098C6.66883 61.8734 5.46986 64.5852 5.46986 68.2514C5.46986 76.1287 11.0198 85.7302 17.8444 89.67ZM23.1763 92.671C21.31 92.671 19.2702 92.0548 17.1548 90.8379C9.96766 86.689 4.11963 76.5536 4.11963 68.2514C4.11963 64.0869 5.56773 60.9546 8.17477 59.4441C10.8063 57.9336 14.2408 58.2495 17.8421 60.3339C25.0226 64.4829 30.8773 74.616 30.8773 82.925C30.8773 87.0894 29.447 90.215 26.8155 91.7256C25.73 92.3573 24.5065 92.6688 23.1741 92.6688L23.1763 92.671Z" fill="#1A87C7"/>
<path id="Vector_9" fill-rule="evenodd" clip-rule="evenodd" d="M54.7788 31.8143L61.9415 27.6832L62.4598 27.5119C63.5631 27.196 64.8044 27.1671 65.9477 27.3406C69.1709 27.8411 72.3696 29.9612 74.7142 32.1613C79.7058 36.833 83.6876 44.2944 84.2615 51.1485C84.4505 53.5043 84.2615 56.165 83.2493 58.3296C82.8534 59.1794 82.2795 60.0358 81.6122 60.6854L81.2095 61.048L74.0469 65.1858C74.3294 64.9278 74.5807 64.7142 74.8276 64.4206C75.6084 63.5418 76.2001 62.3984 76.5405 61.2839C77.5681 58.0893 77.19 54.2185 76.3336 51.0283C74.6319 44.6682 70.3298 37.9009 64.8778 34.119C62.7801 32.6663 60.1486 31.4183 57.5572 31.3671C56.8342 31.3494 55.9956 31.4472 55.2882 31.6497L54.7766 31.8165L54.7788 31.8143Z" fill="#9696FE"/>
<path id="Vector_10" fill-rule="evenodd" clip-rule="evenodd" d="M58.0355 30.7109C60.8784 30.9044 63.521 32.3527 65.2561 33.5673C70.5591 37.2446 75.1659 44.023 76.981 50.8482C77.6061 53.1417 78.4447 57.5709 77.1879 61.4841C77.0322 61.9779 76.8431 62.4607 76.6185 62.9145L80.8649 60.4607L81.1519 60.1782C81.7035 59.6443 82.2552 58.8568 82.64 58.047C83.7077 55.7668 83.7411 53.0661 83.5698 51.2041C83.0582 44.8328 79.3011 37.3803 74.2517 32.653C72.6545 31.1536 69.4313 28.5619 65.83 28.0035C64.7222 27.8367 63.5788 27.8901 62.6468 28.1592L62.1463 28.3194L58.0333 30.7109H58.0355ZM74.047 65.8621C73.8335 65.8621 73.6266 65.7576 73.4954 65.5796C73.2818 65.2993 73.3396 64.9077 73.5866 64.6786C73.8735 64.4206 74.0982 64.2315 74.3273 63.9779C74.9768 63.2237 75.5507 62.1915 75.9133 61.077C77.0567 57.4842 76.2514 53.3486 75.6842 51.1996C73.9313 44.6659 69.5492 38.1812 64.4997 34.6752C62.1152 33.0223 59.6394 32.0835 57.5417 32.0434C56.8344 32.0256 56.0936 32.1191 55.4797 32.2904L54.9859 32.4572C54.6633 32.5662 54.3007 32.406 54.1695 32.0901C54.0138 31.7743 54.145 31.4005 54.4342 31.2292L61.5969 27.0981L62.2464 26.869C63.3898 26.5419 64.7444 26.473 66.0368 26.6732C70.0008 27.2827 73.4531 30.0635 75.1659 31.6652C80.5246 36.6862 84.3573 44.31 84.9267 51.0906C85.098 53.1128 85.0424 56.0671 83.859 58.6165C83.423 59.5887 82.7735 60.4963 82.0728 61.1726L81.6523 61.5508L74.3851 65.7687C74.2761 65.8265 74.1605 65.8621 74.047 65.8621Z" fill="black"/>
<path id="Vector_11" fill-rule="evenodd" clip-rule="evenodd" d="M63.4874 64.8388C55.9221 60.4719 49.8027 49.8649 49.8027 41.1377C49.8027 32.4105 55.9221 28.8711 63.4874 33.2314C71.0372 37.5916 77.1721 48.2098 77.1721 56.9369C77.1721 65.6641 71.0372 69.1968 63.4874 64.8366V64.8388Z" fill="#9696FE"/>
<path id="Vector_12" fill-rule="evenodd" clip-rule="evenodd" d="M57.3703 32.0368C56.1869 32.0368 55.1014 32.3059 54.1471 32.8576C51.787 34.2258 50.4701 37.1667 50.4701 41.1377C50.4701 49.6357 56.4561 60.0047 63.81 64.2515C67.2624 66.2336 70.4633 66.5784 72.8301 65.2103C75.1925 63.8444 76.4849 60.9079 76.4849 56.9369C76.4849 48.4344 70.5034 38.0633 63.1449 33.8165C61.0873 32.633 59.1232 32.0345 57.3703 32.0345V32.0368ZM69.6069 67.3882C67.6027 67.3882 65.4139 66.723 63.1449 65.4194C55.4061 60.9613 49.1377 50.0673 49.1377 41.1399C49.1377 36.664 50.6837 33.3092 53.4798 31.6897C56.2603 30.0746 59.944 30.415 63.81 32.6485C71.5488 37.1133 77.8395 48.0118 77.8395 56.9414C77.8395 61.4107 76.2936 64.7654 73.4952 66.3827C72.3296 67.0545 71.0128 67.3927 69.6069 67.3927V67.3882Z" fill="black"/>
<path id="Vector_13" fill-rule="evenodd" clip-rule="evenodd" d="M5.64331 60.1782L12.8127 56.0471L13.3243 55.8736C14.4343 55.5577 15.6688 55.5288 16.8122 55.7023C20.0532 56.2028 23.2363 58.3229 25.5787 60.523C30.577 65.1992 34.5587 72.6561 35.1326 79.5102C35.3217 81.866 35.1326 84.5267 34.1205 86.6979C33.7357 87.5433 33.144 88.3997 32.4789 89.0538L32.0829 89.4164L24.9136 93.5475C25.2005 93.2939 25.4474 93.0826 25.6943 92.7889C26.4751 91.9035 27.0668 90.7667 27.4294 89.6455C28.4415 86.4577 28.0611 82.5779 27.2225 79.39C25.5053 73.0298 21.1965 66.2603 15.7445 62.4874C13.6468 61.028 11.022 59.7867 8.42385 59.7288C7.70536 59.7177 6.86897 59.8089 6.1794 60.0114L5.64553 60.1782H5.64331Z" fill="#9696FE"/>
<path id="Vector_14" fill-rule="evenodd" clip-rule="evenodd" d="M8.90656 59.0815C11.7627 59.275 14.392 60.7232 16.1449 61.9312C21.4234 65.6085 26.0391 72.3936 27.8632 79.2143C28.4793 81.5056 29.3113 85.9415 28.0767 89.8546C27.9032 90.3485 27.7141 90.8246 27.485 91.2806L31.7359 88.8335L32.0184 88.5466C32.5923 88.0127 33.1262 87.2318 33.5066 86.4154C34.5743 84.1329 34.6143 81.4345 34.4608 79.5725C33.9314 73.2056 30.1744 65.7487 25.1249 61.0191C23.5211 59.5242 20.3001 56.928 16.721 56.3763C15.5954 56.205 14.4521 56.2562 13.5156 56.5254L13.0218 56.6922L8.90879 59.0837L8.90656 59.0815ZM24.9114 94.226C24.7045 94.226 24.4932 94.1281 24.3597 93.9435C24.1706 93.6632 24.204 93.2761 24.4576 93.047C24.7623 92.7889 24.9692 92.5976 25.1983 92.3395C25.8656 91.5921 26.4173 90.5576 26.7776 89.4386C27.921 85.8526 27.1402 81.7103 26.5552 79.5613C24.7979 73.0298 20.4136 66.5428 15.3641 63.0368C12.9795 61.384 10.5037 60.4452 8.40829 60.4051C7.70759 60.394 6.96018 60.4808 6.35069 60.6587L5.87466 60.8189C5.52987 60.9279 5.18509 60.7722 5.03605 60.4563C4.90481 60.1404 5.01826 59.7667 5.323 59.5954L12.4701 55.4576L13.113 55.2329C14.2608 54.8992 15.611 54.8302 16.9101 55.0327C20.874 55.6422 24.3441 58.423 26.0391 60.0247C31.4156 65.0457 35.2416 72.6695 35.7999 79.4501C35.9668 81.479 35.9312 84.4266 34.7322 86.976C34.2896 87.9482 33.6623 88.8602 32.9571 89.5321L32.5211 89.9103L25.2606 94.1281C25.1449 94.1904 25.0292 94.2194 24.9158 94.2194L24.9114 94.226Z" fill="black"/>
<path id="Vector_15" fill-rule="evenodd" clip-rule="evenodd" d="M14.3519 93.2049C6.80222 88.838 0.667236 78.2377 0.667236 69.5038C0.667236 60.77 6.80222 57.2328 14.3519 61.5975C21.8994 65.9644 28.0366 76.5759 28.0366 85.3031C28.0366 94.0303 21.9017 97.5652 14.3519 93.2027V93.2049Z" fill="#9696FE"/>
<path id="Vector_16" fill-rule="evenodd" clip-rule="evenodd" d="M8.25487 60.4029C7.05367 60.4029 5.96815 60.6721 5.01387 61.2238C2.64707 62.5919 1.35468 65.5329 1.35468 69.5038C1.35468 78.0019 7.33618 88.3708 14.6946 92.6176C18.1247 94.5998 21.3301 94.9446 23.6902 93.5764C26.0525 92.2083 27.3672 89.274 27.3672 85.3031C27.3672 76.8073 21.3634 66.4361 14.0095 62.1848C11.9697 61.0013 10.0055 60.4029 8.25264 60.4029H8.25487ZM20.4692 95.7543C18.4695 95.7543 16.2762 95.0936 14.0117 93.7833C6.29069 89.3252 0 78.4334 0 69.5038C0 65.0346 1.54598 61.6776 4.34876 60.0536C7.1471 58.4408 10.8219 58.7789 14.6968 61.0191C22.4178 65.4839 28.7241 76.3757 28.7241 85.3053C28.7241 89.7812 27.1781 93.1315 24.3753 94.7466C23.1964 95.4251 21.8817 95.7566 20.4692 95.7566V95.7543Z" fill="black"/>
<path id="Vector_17" fill-rule="evenodd" clip-rule="evenodd" d="M57.8641 16.4511C57.239 14.2732 56.3248 12.0619 54.7388 10.4001C59.7882 11.5324 63.2428 16.0595 63.7944 23.2184C63.8345 23.8791 63.8678 29.8433 63.8678 30.5485C63.8678 31.5029 63.8345 32.3415 63.7366 33.3181V33.3827L63.4897 33.2336C61.5811 32.1369 59.7727 31.5384 58.1132 31.4005C58.8784 27.9879 58.6649 20.0127 57.8663 16.4511H57.8641Z" fill="#9696FE"/>
<path id="Vector_18" fill-rule="evenodd" clip-rule="evenodd" d="M58.914 30.8132C60.282 31.0268 61.6945 31.514 63.1426 32.2726C63.1827 31.7097 63.1827 31.158 63.1827 30.5485C63.1827 29.7031 63.1649 23.8791 63.1026 23.2695C62.6822 17.5812 60.3465 13.5012 56.6295 11.7504C57.3702 12.974 57.9953 14.4511 58.5136 16.2664V16.2998C59.261 19.5633 59.5413 26.9468 58.9162 30.8132H58.914ZM63.6765 34.0434C63.5786 34.0434 63.4874 34.0145 63.3895 33.9633L63.1426 33.8142C61.3675 32.7909 59.6547 32.2058 58.0576 32.0679C57.8618 32.0568 57.6905 31.9522 57.5749 31.7987C57.4592 31.643 57.4258 31.4428 57.4592 31.2515C58.2222 27.8167 57.9597 19.9793 57.1945 16.6179C56.4715 14.0329 55.5173 12.2043 54.2404 10.8673C54.0514 10.6715 53.9935 10.3779 54.107 10.1309C54.2226 9.88399 54.4473 9.72382 54.732 9.72382C60.4132 10.9807 63.9011 15.8771 64.4528 23.1672C64.5106 23.8969 64.5262 30.1303 64.5262 30.5507C64.5262 31.5496 64.4928 32.4238 64.395 33.3849C64.3772 33.6073 64.2459 33.8432 64.0324 33.9522C63.9189 34.01 63.8033 34.0434 63.6698 34.0434H63.6765Z" fill="black"/>
<path id="Vector_19" fill-rule="evenodd" clip-rule="evenodd" d="M41.2832 2.30471C46.3727 0.413782 50.8304 -0.171293 55.7887 2.42484L61.1251 5.50371C57.4259 3.56829 54.4718 3.44594 50.4122 4.20676C39.319 6.96529 30.9707 15.9973 25.0648 25.3318C20.4514 33.0534 17.5551 40.4703 16.6187 49.4689C16.563 52.9615 16.354 56.6388 16.563 60.156C14.679 59.0592 12.8683 58.4675 11.2244 58.3229C11.1666 54.8458 11.1666 51.4755 11.1888 47.9762C11.7227 39.5871 14.0628 32.7331 17.9333 25.3273C23.4032 15.5723 30.8194 6.80957 41.2809 2.30693L41.2832 2.30471Z" fill="#9696FE"/>
<path id="Vector_20" fill-rule="evenodd" clip-rule="evenodd" d="M11.8918 57.72C13.173 57.9046 14.4877 58.334 15.8379 59.0014C15.7623 56.8079 15.8201 54.5655 15.878 52.3943C15.9135 51.4065 15.9291 50.4232 15.9514 49.4578C16.83 40.9375 19.4615 33.4116 24.4709 24.9892C31.9828 13.1475 40.6337 5.94196 50.241 3.55272C52.1651 3.1901 53.9402 3.00101 55.6931 3.15006L55.4461 3.01213C50.3166 0.322566 45.7254 1.37926 41.5323 2.93205C32.5367 6.80956 24.7979 14.4578 18.5295 25.6543C14.3542 33.663 12.3545 40.3568 11.8606 48.0162C11.8428 51.2797 11.8606 54.4632 11.8962 57.72H11.8918ZM16.5631 60.8278C16.4474 60.8278 16.3317 60.7989 16.2183 60.7366C14.4654 59.7199 12.7548 59.1349 11.1688 58.9969C10.824 58.968 10.5593 58.681 10.5438 58.3295C10.5037 54.8547 10.4859 51.4755 10.5037 47.9762C11.022 40.0765 13.0596 33.2158 17.3461 25.0114C23.768 13.5257 31.7359 5.6839 41.0185 1.68403C41.0185 1.67736 41.0363 1.67736 41.0518 1.67291C45.5319 0.00667009 50.4679 -1.12566 56.109 1.82863L61.4632 4.92086C61.768 5.1055 61.8837 5.51261 61.7102 5.83295C61.5433 6.15552 61.1229 6.27565 60.8137 6.1088C57.1011 4.16004 54.2249 4.17783 50.5257 4.86747C41.321 7.1655 32.9349 14.1753 25.6321 25.6944C20.7139 33.921 18.1469 41.2823 17.2838 49.5312C17.2838 50.4522 17.2438 51.4332 17.226 52.4276C17.1526 54.9726 17.0769 57.6043 17.226 60.1159C17.2438 60.3629 17.1281 60.5987 16.9212 60.7299C16.8055 60.7922 16.6743 60.8278 16.5609 60.8278H16.5631Z" fill="black"/>
<path id="Vector_21" fill-rule="evenodd" clip-rule="evenodd" d="M61.6946 64.3783C54.8522 60.4251 49.3022 50.8192 49.3022 42.9085C49.3022 34.9977 54.8522 31.7921 61.6946 35.7497C68.5369 39.7028 74.098 49.3198 74.098 57.2261C74.098 65.1324 68.5369 68.3314 61.6946 64.3783Z" fill="#9696FE"/>
<path id="Vector_22" fill-rule="evenodd" clip-rule="evenodd" d="M56.1691 34.7263C55.0991 34.7263 54.1293 34.9666 53.2751 35.4627C51.1552 36.6929 49.9763 39.3335 49.9763 42.9085C49.9763 50.5834 55.3883 59.9557 62.0416 63.7999C65.1269 65.5796 68.0053 65.891 70.143 64.6675C72.2584 63.444 73.4173 60.8011 73.4173 57.2284C73.4173 49.5467 68.0053 40.1766 61.352 36.3325C59.5013 35.2691 57.7507 34.7286 56.1691 34.7286V34.7263ZM67.2401 66.7564C65.4138 66.7564 63.4319 66.1535 61.352 64.9656C54.3384 60.9146 48.6216 51.015 48.6216 42.9085C48.6216 38.8352 50.0341 35.7719 52.6078 34.297C55.1592 32.8154 58.5136 33.1246 62.0416 35.1646C69.0552 39.2223 74.772 49.1196 74.772 57.2284C74.772 61.3016 73.3595 64.3583 70.8081 65.8354C69.7381 66.4494 68.5391 66.7609 67.2401 66.7609V66.7564Z" fill="black"/>
<path id="Vector_23" fill-rule="evenodd" clip-rule="evenodd" d="M61.6947 60.6276C56.6453 57.7089 52.5479 50.619 52.5479 44.7883C52.5479 38.9576 56.643 36.5883 61.6947 39.5093C66.7442 42.4213 70.8416 49.5178 70.8416 55.3486C70.8416 61.1793 66.7442 63.5418 61.6947 60.6298V60.6276Z" fill="white"/>
<path id="Vector_24" fill-rule="evenodd" clip-rule="evenodd" d="M62.0393 60.0403C64.2682 61.3217 66.3258 61.5508 67.8295 60.6788C69.3354 59.8112 70.174 57.9158 70.174 55.3463C70.174 49.7381 66.2101 42.8951 61.3497 40.0854C59.1431 38.8041 57.081 38.5749 55.5773 39.447C54.0536 40.3213 53.2328 42.2166 53.2328 44.7838C53.2328 50.3899 57.1789 57.2284 62.0393 60.0381V60.0403ZM65.7919 62.5519C64.4194 62.5519 62.9135 62.1047 61.3519 61.2082C56.1312 58.1916 51.8848 50.8259 51.8848 44.7883C51.8848 41.7139 52.948 39.4047 54.8944 38.2835C56.8364 37.1578 59.37 37.387 62.0415 38.922C67.2645 41.9385 71.5087 49.3087 71.5087 55.3486C71.5087 58.4163 70.4454 60.7255 68.4991 61.8534C67.7005 62.325 66.7684 62.5541 65.7919 62.5541V62.5519Z" fill="black"/>
<path id="Vector_25" fill-rule="evenodd" clip-rule="evenodd" d="M42.638 7.33902C57.0812 -0.998854 68.784 5.76399 68.784 22.4331L68.7662 28.8222C68.7662 29.4251 68.7261 29.9078 68.6683 30.5285L63.7345 33.3849C63.8324 32.3838 63.8657 31.5229 63.8657 30.5507C63.8657 29.8433 63.8324 23.8813 63.7923 23.2206C62.8558 11.1965 53.749 6.6049 42.638 13.0163C31.349 19.5366 22.1287 35.0267 21.4391 48.2542C21.4213 48.7704 21.4035 54.5566 21.4035 55.0616C21.4035 55.8958 21.4391 56.6922 21.5192 57.4642L21.1522 57.7289L16.5632 60.1582C16.5053 59.4285 16.4875 58.6766 16.4875 57.9069C16.4875 57.086 16.5276 50.9772 16.5787 50.1385C17.6487 33.9878 28.9132 15.2653 42.638 7.34125V7.33902Z" fill="#9696FE"/>
<path id="Vector_26" fill-rule="evenodd" clip-rule="evenodd" d="M42.9781 7.91965C29.6204 15.6346 18.3159 34.1991 17.2459 50.183C17.1947 50.975 17.1547 56.928 17.1547 57.9046C17.1547 58.2962 17.1725 58.681 17.1947 59.0592L20.8139 57.1461C20.7561 56.4742 20.7383 55.7801 20.7383 55.0616C20.7383 54.6656 20.7383 48.7637 20.7739 48.2187C21.4634 34.7219 30.9128 19.0094 42.293 12.4312C48.0098 9.13874 53.4374 8.54255 57.6327 10.7471C61.5788 12.8316 63.999 17.2453 64.4572 23.1694C64.5151 23.8991 64.5307 30.1325 64.5307 30.5529C64.5307 31.1224 64.5307 31.6452 64.4973 32.1613L68.043 30.1214C68.0608 29.6609 68.1009 29.276 68.1009 28.8177L68.1187 22.4353C68.1187 14.6269 65.505 8.82507 60.7825 6.09546C56.0711 3.37253 49.7471 4.02212 42.9781 7.92855V7.92188V7.91965ZM16.563 60.8278C16.4473 60.8278 16.3317 60.8056 16.2405 60.741C16.0269 60.632 15.8957 60.4251 15.8957 60.196C15.8401 59.4552 15.8223 58.6899 15.8223 57.9046C15.8223 57.1816 15.8401 50.9638 15.8957 50.0918C16.9812 33.7052 28.5927 14.6647 42.293 6.75395C49.4979 2.59391 56.3003 1.94655 61.4632 4.92086C66.6105 7.90186 69.4489 14.1197 69.4489 22.4331V28.8222C69.4311 29.4317 69.391 29.9189 69.3577 30.5285C69.3354 30.7532 69.202 31.0001 69.0129 31.1091L64.0546 33.9655C63.8478 34.0923 63.5786 34.0923 63.3717 33.9477C63.1426 33.8165 63.0269 33.5695 63.067 33.3159C63.1426 32.3682 63.1827 31.5407 63.1827 30.5529C63.1827 29.7076 63.1649 23.8835 63.1026 23.274C62.7066 17.8281 60.5334 13.806 56.9898 11.944C53.2483 9.96185 48.2567 10.5469 42.9781 13.6036C31.9405 19.9704 22.7959 35.2068 22.1308 48.2898C22.0907 48.7726 22.0907 54.4209 22.0907 55.0638C22.0907 55.8802 22.1085 56.6566 22.1886 57.4086C22.2064 57.6444 22.1085 57.8735 21.9016 58.0181L21.5391 58.2762L16.8922 60.7588C16.7765 60.81 16.6787 60.8323 16.5652 60.8323L16.563 60.8278Z" fill="black"/>
<path id="Vector_27" fill-rule="evenodd" clip-rule="evenodd" d="M13.6847 88.8313C8.38834 85.7814 4.09741 78.3578 4.09741 72.2445C4.09741 66.1313 8.38834 63.6553 13.6847 66.7119C18.9633 69.7641 23.2564 77.1988 23.2564 83.3054C23.2564 89.4119 18.9655 91.8902 13.6847 88.8335V88.8313Z" fill="white"/>
<path id="Vector_28" fill-rule="evenodd" clip-rule="evenodd" d="M14.0118 88.2507C16.3563 89.601 18.5274 89.8369 20.129 88.9159C21.7083 88.0038 22.5825 86.0038 22.5825 83.3031C22.5825 77.419 18.4295 70.2379 13.3378 67.2903C10.9999 65.94 8.84444 65.7042 7.24285 66.6229C5.66351 67.5417 4.78485 69.535 4.78485 72.2423C4.78485 78.1264 8.92007 85.3075 14.0118 88.2485V88.2507ZM17.9535 90.8246C16.5276 90.8246 14.9594 90.353 13.34 89.4164C7.87014 86.2619 3.43018 78.558 3.43018 72.2446C3.43018 69.0322 4.53794 66.6252 6.57775 65.4528C8.59976 64.2804 11.2424 64.5229 14.0118 66.1246C19.4817 69.2836 23.9394 76.9897 23.9394 83.3031C23.9394 86.5088 22.8139 88.9159 20.7963 90.0882C19.9355 90.5776 18.9812 90.8224 17.9535 90.8224V90.8246Z" fill="black"/>
</g>
<defs>
<clipPath id="clip0_54_425">
<rect width="85" height="101" fill="white"/>
</clipPath>
</defs>
</svg>
