<svg width="18" height="36" viewBox="0 0 18 36" fill="none" xmlns="http://www.w3.org/2000/svg">
<g id="Vector">
<mask id="path-1-inside-1_4_1502" fill="white">
<path d="M12.1138 1.4561C11.4223 0.602812 10.4498 0.198502 9.48377 0.198502C8.13683 0.198502 6.80267 0.987963 6.27496 2.4392C3.88537 9.03359 0.35948 19.6625 0.782925 23.9268C1.43831 30.6574 4.71308 35.0664 7.39632 35.0664C8.55175 35.0664 9.59868 34.2514 10.2839 32.4512C11.4818 29.3147 15.2269 19.5433 17.3824 13.932C18.3506 11.4041 17.8952 8.55905 16.1844 6.46306L12.1138 1.4561ZM16.5121 13.6001C14.3566 19.2114 10.6115 28.987 9.41356 32.1236C9.06459 33.0407 8.43047 34.1366 7.39632 34.1366C5.48337 34.1366 2.35967 30.4702 1.71067 23.8375C1.40426 20.7669 3.3385 13.283 7.15164 2.75838C7.50912 1.77103 8.42622 1.13479 9.48164 1.13479C10.2328 1.13479 10.9094 1.45821 11.3861 2.04977L15.4609 7.05675C16.9547 8.88889 17.3547 11.3934 16.51 13.6022L16.5121 13.6001Z"/>
</mask>
<path d="M12.1138 1.4561C11.4223 0.602812 10.4498 0.198502 9.48377 0.198502C8.13683 0.198502 6.80267 0.987963 6.27496 2.4392C3.88537 9.03359 0.35948 19.6625 0.782925 23.9268C1.43831 30.6574 4.71308 35.0664 7.39632 35.0664C8.55175 35.0664 9.59868 34.2514 10.2839 32.4512C11.4818 29.3147 15.2269 19.5433 17.3824 13.932C18.3506 11.4041 17.8952 8.55905 16.1844 6.46306L12.1138 1.4561ZM16.5121 13.6001C14.3566 19.2114 10.6115 28.987 9.41356 32.1236C9.06459 33.0407 8.43047 34.1366 7.39632 34.1366C5.48337 34.1366 2.35967 30.4702 1.71067 23.8375C1.40426 20.7669 3.3385 13.283 7.15164 2.75838C7.50912 1.77103 8.42622 1.13479 9.48164 1.13479C10.2328 1.13479 10.9094 1.45821 11.3861 2.04977L15.4609 7.05675C16.9547 8.88889 17.3547 11.3934 16.51 13.6022L16.5121 13.6001Z" fill="#9696FE"/>
<path d="M12.1138 1.4561L11.3369 2.08574L11.3379 2.08693L12.1138 1.4561ZM6.27496 2.4392L5.33516 2.09746L5.33478 2.09851L6.27496 2.4392ZM0.782925 23.9268L1.77822 23.8299L1.77803 23.828L0.782925 23.9268ZM10.2839 32.4512L9.34967 32.0944L9.34926 32.0955L10.2839 32.4512ZM17.3824 13.932L18.3159 14.2906L18.3163 14.2897L17.3824 13.932ZM16.1844 6.46306L15.4085 7.09388L15.4097 7.09539L16.1844 6.46306ZM16.5121 13.6001L17.4456 13.9587L15.805 12.893L16.5121 13.6001ZM9.41356 32.1236L8.47938 31.7668L8.47893 31.7679L9.41356 32.1236ZM1.71067 23.8375L2.70592 23.7401L2.70573 23.7382L1.71067 23.8375ZM7.15164 2.75838L8.09183 3.09902L8.09191 3.09882L7.15164 2.75838ZM11.3861 2.04977L10.6074 2.6772L10.6105 2.68099L11.3861 2.04977ZM15.4609 7.05675L14.6853 7.68797L14.6859 7.68866L15.4609 7.05675ZM16.51 13.6022L15.576 13.245L17.2171 14.3093L16.51 13.6022ZM12.8907 0.826468C11.9977 -0.275397 10.7325 -0.801498 9.48377 -0.801498V1.1985C10.1672 1.1985 10.8468 1.48102 11.3369 2.08574L12.8907 0.826468ZM9.48377 -0.801498C7.75401 -0.801498 6.01904 0.216747 5.33516 2.09746L7.21475 2.78093C7.58629 1.75918 8.51965 1.1985 9.48377 1.1985V-0.801498ZM5.33478 2.09851C4.13645 5.40547 2.64817 9.73756 1.51129 13.7865C0.942981 15.8104 0.45845 17.7778 0.142447 19.5192C-0.170067 21.2413 -0.332219 22.8168 -0.212181 24.0257L1.77803 23.828C1.68635 22.9047 1.80614 21.5524 2.11031 19.8763C2.41099 18.2193 2.87788 16.3177 3.43682 14.3271C4.55442 10.3469 6.02388 6.06732 7.21514 2.77989L5.33478 2.09851ZM-0.212367 24.0238C0.128064 27.5199 1.15219 30.4609 2.48536 32.5572C3.77739 34.5889 5.52856 36.0664 7.39632 36.0664V34.0664C6.58084 34.0664 5.35301 33.3395 4.173 31.484C3.03412 29.6932 2.09317 27.0644 1.77822 23.8299L-0.212367 24.0238ZM7.39632 36.0664C9.13507 36.0664 10.4562 34.8096 11.2184 32.8069L9.34926 32.0955C8.74112 33.6933 7.96844 34.0664 7.39632 34.0664V36.0664ZM11.218 32.808C12.4157 29.6723 16.1605 19.9016 18.3159 14.2906L16.4489 13.5735C14.2933 19.185 10.548 28.9571 9.34967 32.0944L11.218 32.808ZM18.3163 14.2897C19.4124 11.4277 18.897 8.2049 16.9591 5.83073L15.4097 7.09539C16.8935 8.91321 17.2888 11.3805 16.4486 13.5744L18.3163 14.2897ZM16.9603 5.83224L12.8897 0.825282L11.3379 2.08693L15.4085 7.09388L16.9603 5.83224ZM15.5786 13.2415C13.4229 18.8532 9.67765 28.6295 8.47938 31.7668L10.3477 32.4804C11.5454 29.3446 15.2903 19.5695 17.4456 13.9587L15.5786 13.2415ZM8.47893 31.7679C8.32297 32.1778 8.12629 32.5609 7.90101 32.8251C7.68176 33.0822 7.51883 33.1366 7.39632 33.1366V35.1366C8.30796 35.1366 8.97917 34.643 9.42275 34.1229C9.86031 33.6098 10.1552 32.9864 10.3482 32.4792L8.47893 31.7679ZM7.39632 33.1366C7.22489 33.1366 6.88394 33.0444 6.40824 32.6723C5.94674 32.3114 5.42958 31.7402 4.9253 30.9407C3.91889 29.3453 3.01753 26.9247 2.70592 23.7401L0.715425 23.9348C1.05281 27.3829 2.0378 30.1119 3.23373 32.0078C3.83062 32.954 4.49363 33.714 5.17612 34.2477C5.84441 34.7704 6.61128 35.1366 7.39632 35.1366V33.1366ZM2.70573 23.7382C2.57213 22.3994 2.93154 19.9179 3.85457 16.3432C4.76577 12.8143 6.19142 8.34437 8.09183 3.09902L6.21144 2.41775C4.29873 7.69705 2.85069 12.2314 1.91808 15.8432C0.997306 19.4092 0.542797 22.205 0.715614 23.9368L2.70573 23.7382ZM8.09191 3.09882C8.30401 2.51299 8.84119 2.13479 9.48164 2.13479V0.134788C8.01125 0.134788 6.71423 1.02908 6.21137 2.41795L8.09191 3.09882ZM9.48164 2.13479C9.92863 2.13479 10.3196 2.31999 10.6074 2.67719L12.1648 1.42236C11.4993 0.596441 10.5369 0.134788 9.48164 0.134788V2.13479ZM10.6105 2.68099L14.6853 7.68797L16.2365 6.42554L12.1617 1.41856L10.6105 2.68099ZM14.6859 7.68866C15.9529 9.24261 16.2932 11.3698 15.576 13.245L17.444 13.9594C18.4163 11.4171 17.9565 8.53516 16.236 6.42485L14.6859 7.68866ZM17.2171 14.3093L17.2192 14.3072L15.805 12.893L15.8029 12.8951L17.2171 14.3093Z" fill="black" mask="url(#path-1-inside-1_4_1502)"/>
</g>
</svg>
