<svg width="145" height="119" viewBox="0 0 145 119" fill="none" xmlns="http://www.w3.org/2000/svg">
<g id="brain_bubbles">
<path id="Vector" d="M7.0292 36.2032C10.4682 36.2032 13.2561 33.4183 13.2561 29.983C13.2561 26.5477 10.4682 23.7628 7.0292 23.7628C3.59016 23.7628 0.802246 26.5477 0.802246 29.983C0.802246 33.4183 3.59016 36.2032 7.0292 36.2032Z" fill="white" stroke="black" stroke-miterlimit="10" stroke-linecap="round"/>
<path id="Vector_2" d="M6.65577 63.8735C8.76313 63.8735 10.4715 62.167 10.4715 60.062C10.4715 57.9569 8.76313 56.2504 6.65577 56.2504C4.5484 56.2504 2.84003 57.9569 2.84003 60.062C2.84003 62.167 4.5484 63.8735 6.65577 63.8735Z" fill="white" stroke="black" stroke-miterlimit="10" stroke-linecap="round"/>
<path id="Vector_3" d="M136.017 10.3007C138.524 10.3007 140.555 8.27104 140.555 5.76735C140.555 3.26366 138.524 1.23402 136.017 1.23402C133.511 1.23402 131.479 3.26366 131.479 5.76735C131.479 8.27104 133.511 10.3007 136.017 10.3007Z" fill="white" stroke="black" stroke-miterlimit="10" stroke-linecap="round"/>
<path id="Vector_4" d="M139.183 96.8152C141.82 96.8152 143.957 94.6803 143.957 92.0467C143.957 89.4131 141.82 87.2782 139.183 87.2782C136.547 87.2782 134.41 89.4131 134.41 92.0467C134.41 94.6803 136.547 96.8152 139.183 96.8152Z" fill="white" stroke="black" stroke-miterlimit="10" stroke-linecap="round"/>
<path id="Vector_5" d="M122.979 117.714C128.319 117.714 132.648 113.39 132.648 108.055C132.648 102.721 128.319 98.3966 122.979 98.3966C117.639 98.3966 113.309 102.721 113.309 108.055C113.309 113.39 117.639 117.714 122.979 117.714Z" fill="white" stroke="black" stroke-miterlimit="10" stroke-linecap="round"/>
<path id="Vector_6" d="M67.8942 20.4541C67.8942 20.4541 49.7248 12.2065 39.471 29.983C39.471 29.983 17.7863 34.711 21.8943 55.1393C21.8943 55.1393 11.9328 59.251 12.3712 70.6614C12.8096 82.0717 21.8213 84.3425 21.8213 84.3425C21.8213 84.3425 25.2229 92.4927 34.129 92.4279C34.129 92.4279 41.3789 106.66 59.1829 97.2207C59.1829 97.2207 81.3791 101.024 98.079 87.2701C98.079 87.2701 116.76 86.4672 118.294 76.5896C118.294 76.5896 126.867 72.259 126.429 59.4943C125.991 46.7296 111.929 40.8095 111.929 40.8095C111.929 40.8095 113.245 30.2749 100.945 28.7341C100.945 28.7341 98.5255 19.4647 85.341 21.2488C85.341 21.2488 77.5066 12.8228 67.9104 20.446L67.8942 20.4541Z" fill="white" stroke="black" stroke-miterlimit="10" stroke-linecap="round"/>
<path id="Vector_7" d="M21.8212 84.3506C15.6673 69.4935 29.956 61.6677 29.956 61.6677C29.956 61.6677 27.7559 42.3503 46.2175 39.4957C46.2175 39.4957 54.125 22.595 76.7596 26.7634C76.7596 26.7634 88.1906 20.1783 94.3363 28.9612C94.3363 28.9612 97.7542 28.4746 100.929 28.7422" stroke="black" stroke-miterlimit="10" stroke-linecap="round"/>
<path id="Vector_8" d="M91.373 34.3379C91.373 34.3379 97.1941 35.1083 96.4309 41.6934" stroke="black" stroke-miterlimit="10" stroke-linecap="round"/>
<path id="Vector_9" d="M98.1846 61.7812C98.1846 61.7812 105.434 60.7918 100.929 51.2467C100.929 51.2467 107.643 49.4058 105.654 43.1207C103.665 36.8357 96.0575 38.0197 96.0575 38.0197" stroke="black" stroke-miterlimit="10" stroke-linecap="round"/>
<path id="Vector_10" d="M39.4791 29.983C39.4791 29.983 48.1985 28.0772 52.3552 32.0834" stroke="black" stroke-miterlimit="10" stroke-linecap="round"/>
<path id="Vector_11" d="M68.5193 38.6198C68.5193 38.6198 63.1366 39.3903 63.7943 46.2998" stroke="black" stroke-miterlimit="10" stroke-linecap="round"/>
<path id="Vector_12" d="M64.7117 41.2717C64.7117 41.2717 59.1342 33.8108 47.1593 37.8738" stroke="black" stroke-miterlimit="10" stroke-linecap="round"/>
<path id="Vector_13" d="M30.5325 53.9067C30.5325 53.9067 23.2014 56.891 25.7019 64.9845" stroke="black" stroke-miterlimit="10" stroke-linecap="round"/>
<path id="Vector_14" d="M44.5695 72.9726C44.5695 72.9726 39.8445 74.2864 40.1773 80.6525" stroke="black" stroke-miterlimit="10" stroke-linecap="round"/>
<path id="Vector_15" d="M59.5076 42.4638C59.5076 42.4638 53.573 44.2237 53.4674 50.8088C53.4674 50.8088 44.4396 48.8949 42.3612 59.4537C42.3612 59.4537 33.6094 61.692 34.129 69.3557C34.5674 75.8272 40.7051 76.8166 40.7051 76.8166" stroke="black" stroke-miterlimit="10" stroke-linecap="round"/>
<path id="Vector_16" d="M61.0015 81.7149C61.0015 81.7149 66.1243 92.6144 59.1748 97.2288" stroke="black" stroke-miterlimit="10" stroke-linecap="round"/>
<path id="Vector_17" d="M55.9355 82.1042C55.9355 82.1042 61.5617 83.2882 64.7117 79.0062" stroke="black" stroke-miterlimit="10" stroke-linecap="round"/>
<path id="Vector_18" d="M79.6174 51.4575C79.6174 51.4575 73.3661 50.5087 72.0427 56.2504" stroke="black" stroke-miterlimit="10" stroke-linecap="round"/>
<path id="Vector_19" d="M81.2654 61.0108C81.2654 61.0108 86.4289 60.6296 87.8577 64.9927" stroke="black" stroke-miterlimit="10" stroke-linecap="round"/>
<path id="Vector_20" d="M85.3328 66.8255C85.3328 66.8255 78.4077 65.1467 75.8341 72.4212C75.8341 72.4212 67.5694 68.2528 62.8281 75.7137C62.8281 75.7137 55.1155 70.9939 50.2849 77.36" stroke="black" stroke-miterlimit="10" stroke-linecap="round"/>
<path id="Vector_21" d="M106.539 62.5435C106.539 62.5435 106.539 66.7119 99.2886 67.8148" stroke="black" stroke-miterlimit="10" stroke-linecap="round"/>
<path id="Vector_22" d="M98.079 87.2782C98.079 87.2782 106.506 79.3955 103.778 66.3632" stroke="black" stroke-miterlimit="10" stroke-linecap="round"/>
<path id="Vector_23" d="M111.264 69.4611C111.264 69.4611 110.078 75.0082 103.965 75.5272" stroke="black" stroke-miterlimit="10" stroke-linecap="round"/>
</g>
</svg>
