<svg width="167" height="97" viewBox="0 0 167 97" fill="none" xmlns="http://www.w3.org/2000/svg">
<g id="Clip path group">
<mask id="mask0_54_671" style="mask-type:luminance" maskUnits="userSpaceOnUse" x="0" y="0" width="167" height="97">
<g id="clippath">
<path id="Vector" d="M0.723633 48.3246L83.7678 96.5055L166.487 48.4132L83.354 0.182373L0.723633 48.3246Z" fill="white"/>
</g>
</mask>
<g mask="url(#mask0_54_671)">
<g id="Group">
<path id="Vector_2" d="M2.79702 0.182373H0.723633V96.5055H2.79702V0.182373Z" fill="black"/>
<path id="Vector_3" d="M4.8688 0.182373H2.79541V96.5055H4.8688V0.182373Z" fill="black"/>
<path id="Vector_4" d="M6.94043 0.182373H4.86865V96.5055H6.94043V0.182373Z" fill="black"/>
<path id="Vector_5" d="M9.00931 0.182373H6.94238V96.5055H9.00931V0.182373Z" fill="black"/>
<path id="Vector_6" d="M11.0827 0.182373H9.00928V96.5055H11.0827V0.182373Z" fill="black"/>
<path id="Vector_7" d="M13.1559 0.182373H11.0825V96.5055H13.1559V0.182373Z" fill="black"/>
<path id="Vector_8" d="M15.2275 0.182373H13.1558V96.5055H15.2275V0.182373Z" fill="black"/>
<path id="Vector_9" d="M17.2993 0.182373H15.2275V96.5055H17.2993V0.182373Z" fill="black"/>
<path id="Vector_10" d="M19.3727 0.182373H17.2993V96.5055H19.3727V0.182373Z" fill="black"/>
<path id="Vector_11" d="M21.4448 0.182373H19.373V96.5055H21.4448V0.182373Z" fill="black"/>
<path id="Vector_12" d="M23.5148 0.182373H21.4463V96.5055H23.5148V0.182373Z" fill="black"/>
<path id="Vector_13" d="M25.585 0.182373H23.5132V96.5055H25.585V0.182373Z" fill="black"/>
<path id="Vector_14" d="M27.6598 0.182373H25.5864V96.5055H27.6598V0.182373Z" fill="black"/>
<path id="Vector_15" d="M29.7316 0.182373H27.6582V96.5055H29.7316V0.182373Z" fill="black"/>
<path id="Vector_16" d="M31.8037 0.182373H29.7319V96.5055H31.8037V0.182373Z" fill="black"/>
<path id="Vector_17" d="M33.877 0.182373H31.8052V96.5055H33.877V0.182373Z" fill="black"/>
<path id="Vector_18" d="M35.9504 0.182373H33.877V96.5055H35.9504V0.182373Z" fill="black"/>
<path id="Vector_19" d="M38.0187 0.182373H35.9502V96.5055H38.0187V0.182373Z" fill="black"/>
<path id="Vector_20" d="M40.0908 0.182373H38.019V96.5055H40.0908V0.182373Z" fill="black"/>
<path id="Vector_21" d="M42.1626 0.182373H40.0908V96.5055H42.1626V0.182373Z" fill="black"/>
<path id="Vector_22" d="M44.236 0.182373H42.1626V96.5055H44.236V0.182373Z" fill="black"/>
<path id="Vector_23" d="M46.3092 0.182373H44.2358V96.5055H46.3092V0.182373Z" fill="black"/>
<path id="Vector_24" d="M48.3809 0.182373H46.3091V96.5055H48.3809V0.182373Z" fill="black"/>
<path id="Vector_25" d="M50.4526 0.182373H48.3809V96.5055H50.4526V0.182373Z" fill="black"/>
<path id="Vector_26" d="M52.528 0.182373H50.4546V96.5055H52.528V0.182373Z" fill="black"/>
<path id="Vector_27" d="M54.5949 0.182373H52.5264V96.5055H54.5949V0.182373Z" fill="black"/>
<path id="Vector_28" d="M56.6665 0.182373H54.5947V96.5055H56.6665V0.182373Z" fill="black"/>
<path id="Vector_29" d="M58.7398 0.182373H56.668V96.5055H58.7398V0.182373Z" fill="black"/>
<path id="Vector_30" d="M60.8131 0.182373H58.7397V96.5055H60.8131V0.182373Z" fill="black"/>
<path id="Vector_31" d="M62.8869 0.182373H60.8135V96.5055H62.8869V0.182373Z" fill="black"/>
<path id="Vector_32" d="M64.9585 0.182373H62.8867V96.5055H64.9585V0.182373Z" fill="black"/>
<path id="Vector_33" d="M67.0303 0.182373H64.9585V96.5055H67.0303V0.182373Z" fill="black"/>
<path id="Vector_34" d="M69.0988 0.182373H67.0303V96.5055H69.0988V0.182373Z" fill="black"/>
<path id="Vector_35" d="M71.172 0.182373H69.0986V96.5055H71.172V0.182373Z" fill="black"/>
<path id="Vector_36" d="M73.2441 0.182373H71.1724V96.5055H73.2441V0.182373Z" fill="black"/>
<path id="Vector_37" d="M75.3159 0.182373H73.2441V96.5055H75.3159V0.182373Z" fill="black"/>
<path id="Vector_38" d="M77.3908 0.182373H75.3174V96.5055H77.3908V0.182373Z" fill="black"/>
<path id="Vector_39" d="M79.4625 0.182373H77.3892V96.5055H79.4625V0.182373Z" fill="black"/>
<path id="Vector_40" d="M81.5342 0.182373H79.4624V96.5055H81.5342V0.182373Z" fill="black"/>
<path id="Vector_41" d="M83.6031 0.182373H81.5361V96.5055H83.6031V0.182373Z" fill="black"/>
<path id="Vector_42" d="M85.6764 0.182373H83.603V96.5055H85.6764V0.182373Z" fill="black"/>
<path id="Vector_43" d="M87.7497 0.182373H85.6763V96.5055H87.7497V0.182373Z" fill="black"/>
<path id="Vector_44" d="M89.8213 0.182373H87.7495V96.5055H89.8213V0.182373Z" fill="black"/>
<path id="Vector_45" d="M91.8931 0.182373H89.8213V96.5055H91.8931V0.182373Z" fill="black"/>
<path id="Vector_46" d="M93.9665 0.182373H91.8931V96.5055H93.9665V0.182373Z" fill="black"/>
<path id="Vector_47" d="M96.0402 0.182373H93.9668V96.5055H96.0402V0.182373Z" fill="black"/>
<path id="Vector_48" d="M98.107 0.182373H96.04V96.5055H98.107V0.182373Z" fill="black"/>
<path id="Vector_49" d="M100.179 0.182373H98.1069V96.5055H100.179V0.182373Z" fill="black"/>
<path id="Vector_50" d="M102.254 0.182373H100.18V96.5055H102.254V0.182373Z" fill="black"/>
<path id="Vector_51" d="M104.325 0.182373H102.252V96.5055H104.325V0.182373Z" fill="black"/>
<path id="Vector_52" d="M106.397 0.182373H104.326V96.5055H106.397V0.182373Z" fill="black"/>
<path id="Vector_53" d="M108.471 0.182373H106.399V96.5055H108.471V0.182373Z" fill="black"/>
<path id="Vector_54" d="M110.544 0.182373H108.471V96.5055H110.544V0.182373Z" fill="black"/>
<path id="Vector_55" d="M112.617 0.182373H110.544V96.5055H112.617V0.182373Z" fill="black"/>
<path id="Vector_56" d="M114.685 0.182373H112.618V96.5055H114.685V0.182373Z" fill="black"/>
<path id="Vector_57" d="M116.756 0.182373H114.685V96.5055H116.756V0.182373Z" fill="black"/>
<path id="Vector_58" d="M118.83 0.182373H116.756V96.5055H118.83V0.182373Z" fill="black"/>
<path id="Vector_59" d="M120.903 0.182373H118.83V96.5055H120.903V0.182373Z" fill="black"/>
<path id="Vector_60" d="M122.975 0.182373H120.903V96.5055H122.975V0.182373Z" fill="black"/>
<path id="Vector_61" d="M125.046 0.182373H122.975V96.5055H125.046V0.182373Z" fill="black"/>
<path id="Vector_62" d="M127.122 0.182373H125.048V96.5055H127.122V0.182373Z" fill="black"/>
<path id="Vector_63" d="M129.189 0.182373H127.12V96.5055H129.189V0.182373Z" fill="black"/>
<path id="Vector_64" d="M131.26 0.182373H129.188V96.5055H131.26V0.182373Z" fill="black"/>
<path id="Vector_65" d="M133.333 0.182373H131.262V96.5055H133.333V0.182373Z" fill="black"/>
<path id="Vector_66" d="M135.407 0.182373H133.333V96.5055H135.407V0.182373Z" fill="black"/>
<path id="Vector_67" d="M137.481 0.182373H135.407V96.5055H137.481V0.182373Z" fill="black"/>
<path id="Vector_68" d="M139.552 0.182373H137.48V96.5055H139.552V0.182373Z" fill="black"/>
<path id="Vector_69" d="M141.624 0.182373H139.552V96.5055H141.624V0.182373Z" fill="black"/>
<path id="Vector_70" d="M143.697 0.182373H141.624V96.5055H143.697V0.182373Z" fill="black"/>
<path id="Vector_71" d="M145.766 0.182373H143.697V96.5055H145.766V0.182373Z" fill="black"/>
<path id="Vector_72" d="M147.838 0.182373H145.766V96.5055H147.838V0.182373Z" fill="black"/>
<path id="Vector_73" d="M149.91 0.182373H147.838V96.5055H149.91V0.182373Z" fill="black"/>
<path id="Vector_74" d="M151.985 0.182373H149.911V96.5055H151.985V0.182373Z" fill="black"/>
<path id="Vector_75" d="M154.056 0.182373H151.983V96.5055H154.056V0.182373Z" fill="black"/>
<path id="Vector_76" d="M156.128 0.182373H154.056V96.5055H156.128V0.182373Z" fill="black"/>
<path id="Vector_77" d="M158.202 0.182373H156.13V96.5055H158.202V0.182373Z" fill="black"/>
<path id="Vector_78" d="M160.27 0.182373H158.202V96.5055H160.27V0.182373Z" fill="black"/>
<path id="Vector_79" d="M162.343 0.182373H160.27V96.5055H162.343V0.182373Z" fill="black"/>
<path id="Vector_80" d="M164.416 0.182373H162.344V96.5055H164.416V0.182373Z" fill="black"/>
<path id="Vector_81" d="M166.487 0.182373H164.416V96.5055H166.487V0.182373Z" fill="black"/>
</g>
</g>
</g>
</svg>
