<svg width="145" height="85" viewBox="0 0 145 85" fill="none" xmlns="http://www.w3.org/2000/svg">
<path d="M60.3646 19.2699L64.8314 17.0313L57.1368 12.5622L52.8986 14.8286C49.2959 13.3358 45.2253 12.1986 40.9937 11.6917L41.0974 8.59859H30.5432L30.4395 11.6917C30.4289 11.6917 23.3511 11.8775 18.2209 13.9621L14.9173 11.9385L6.71885 16.0083L10.2218 18.1752C8.9363 18.6993 5.29771 17.4772 4.28735 20.9578L0 24.2353V29.9624L4.78056 29.9836C5.3881 32.3005 6.91959 34.5815 9.379 36.6449L5.35487 38.2956L13.0389 42.7542L16.6057 40.8832C20.1938 42.3654 24.2644 43.3672 28.4893 43.8834L28.3936 46.8053H38.9411L39.0515 44.1501C43.6964 44.1395 49.4674 42.5326 51.2767 41.7298L54.5298 43.7679L62.7283 39.6982L59.6254 37.3893C62.3281 35.4613 63.486 33.7469 64.3714 31.4552H69.152V25.6459L65.0069 22.8553C64.5921 21.255 62.8745 21.2868 60.3646 19.2699ZM45.3928 32.4717C45.1535 32.5752 44.9208 32.6747 44.6789 32.7636C38.9052 35.0088 30.2042 35.0088 24.4372 32.7424C24.2126 32.6641 23.9866 32.5645 23.7699 32.4717C17.7995 29.8417 17.7995 25.5676 23.7699 22.9376C29.7323 20.2969 39.4171 20.2969 45.3941 22.9376C51.3565 25.5676 51.3565 29.8417 45.3941 32.4717H45.3928Z" fill="black"/>
<path d="M57.4404 12.2238L63.3005 16.0162L64.832 14.8299V8.42874L58.6303 8.73129L57.4404 12.2238Z" fill="black"/>
<path d="M6.74805 7.41231V13.8135L8.27953 15.0011L14.1396 11.2087L12.9511 7.71618L6.74805 7.41231Z" fill="black"/>
<path d="M64.2422 17.1255C63.9059 15.8318 62.6456 13.0903 60.0785 11.0269L59.5241 10.5811L63.87 8.39956L57.1245 4.4864L52.9223 6.73159L52.7228 6.64932C48.9633 5.09149 44.886 4.01931 40.9403 3.54559L40.5228 3.4965L40.6265 0.456467H30.9856L30.8819 3.53896L30.4499 3.54958C30.3781 3.54958 23.4293 3.738 18.3921 5.78813L18.1781 5.87438L14.8931 3.86008L7.65845 7.45212L11.2253 9.66148L10.3931 9.9972C9.46512 10.378 6.57631 12.253 5.55798 15.7774L5.46227 16.1091L0.457031 16.0919V20.91L5.1339 20.9272L5.22297 21.2696C5.81589 23.5254 7.35402 25.7494 9.67118 27.696L10.2495 28.1817L6.38621 29.7674L13.0492 33.6341L16.5841 31.7777L16.7809 31.8599C20.2732 33.3063 24.2296 34.3055 28.5422 34.8283L28.9596 34.8787L28.8639 37.7516H38.5008L38.6111 35.0964H39.0498C43.8091 35.0857 49.515 33.4138 51.089 32.7185L51.311 32.619L54.5534 34.6465L61.8586 31.0226L58.8488 28.7841L59.3593 28.4205C62.0832 26.4752 63.1335 24.786 63.9444 22.6934L64.0547 22.4015H68.6931V17.5011L64.3299 17.4652L64.2409 17.1269L64.2422 17.1255ZM45.5786 24.2844C45.3326 24.3946 45.0894 24.4981 44.8434 24.587C42.0051 25.6923 38.3586 26.3014 34.5817 26.3014C30.8048 26.3014 27.1157 25.6843 24.2881 24.5724C24.0554 24.4901 23.8241 24.3866 23.5848 24.2844C20.5245 22.9362 18.8361 21.0984 18.8361 19.1053C18.8361 17.1123 20.5218 15.2705 23.5848 13.9196C26.5268 12.6192 30.4299 11.9027 34.579 11.9027C38.7281 11.9027 42.63 12.6192 45.5799 13.9196C48.6402 15.2705 50.3259 17.1096 50.3219 19.1053C50.3219 21.0971 48.6362 22.9362 45.5799 24.2844H45.5786Z" fill="#9696FE"/>
<path d="M60.3646 10.67L64.8314 8.42875L57.1368 3.96358L52.8986 6.23001C49.2959 4.73719 45.2253 3.6 40.9937 3.09311L41.0974 0H30.5432L30.4395 3.09311C30.4289 3.09311 23.3511 3.27888 18.2209 5.36351L14.9173 3.33859L6.71885 7.40833L10.2218 9.57524C8.9363 10.0994 6.12593 12.1707 5.11956 15.6513L0 15.6301V21.3612L4.78056 21.3824C5.3881 23.6992 6.91959 25.9803 9.379 28.0437L5.35487 29.6944L13.0389 34.1529L16.6057 32.2779C20.1938 33.7641 24.2644 34.766 28.4893 35.2795L28.3936 38.2054H38.9411L39.0515 35.5502C43.6964 35.5396 49.4674 33.9326 51.2767 33.1338L54.5298 35.1693L62.7283 31.0996L59.6254 28.7907C62.3281 26.8627 63.486 25.1483 64.3714 22.8566H69.152V17.0473L64.6852 17.0114C64.2677 15.4111 62.8745 12.6882 60.3646 10.6713V10.67ZM68.2374 21.9437H63.7426L63.518 22.5275C62.7389 24.5418 61.7286 26.17 59.0937 28.049L58.0767 28.7761L59.0804 29.5205L60.9907 30.943L54.5856 34.1264L51.7646 32.3615L51.3538 32.1054L50.9072 32.3018C49.3571 32.9865 43.7443 34.6293 39.0488 34.6399H38.1741L38.1382 35.513L38.0637 37.2951H29.3361L29.4039 35.31L29.4318 34.4754L28.5996 34.3758C24.3256 33.8557 20.4078 32.8684 16.9553 31.4393L16.5592 31.2721L16.1803 31.4712L13.0601 33.1099L7.41413 29.8377L9.72465 28.8902L11.1205 28.317L9.96793 27.347C7.71856 25.4614 6.23361 23.3197 5.66462 21.1528L5.48648 20.4761L4.78322 20.4721L0.911976 20.4549V16.5483L5.11425 16.5669L5.80288 16.5696L5.99565 15.9074C6.96346 12.5529 9.68742 10.7788 10.5662 10.4218L12.2266 9.74376L10.7018 8.79897L8.59199 7.49857L14.8695 4.38025L17.7397 6.1411L18.1318 6.38393L18.5639 6.20878C23.5027 4.20244 30.389 4.00605 30.4581 4.00605L31.3223 3.98482L31.3502 3.12628L31.4246 0.912938H40.1469L40.0751 3.06259L40.0472 3.89989L40.8794 3.99941C44.7852 4.4665 48.82 5.52805 52.545 7.07129L52.9451 7.23848L53.328 7.03546L57.1168 5.00789L62.9117 8.3717L59.9511 9.85389L58.6842 10.4922L59.7876 11.3799C62.2657 13.3716 63.4767 16.003 63.7971 17.2383L63.9753 17.9164L64.6745 17.923L68.2347 17.9522V21.9437H68.2374Z" fill="black"/>
<path d="M45.7611 13.503C42.758 12.1774 38.7844 11.4462 34.5742 11.4462C30.3639 11.4462 26.3969 12.1774 23.4018 13.503C20.1593 14.9281 18.3779 16.9172 18.3779 19.1054C18.3779 21.2935 20.1633 23.2746 23.4337 24.7183C23.6663 24.8192 23.9016 24.9214 24.101 24.989C27.0005 26.1302 30.7215 26.7565 34.5808 26.7565C38.4401 26.7565 42.1186 26.1368 44.9927 25.0169C45.2573 24.9214 45.5072 24.8139 45.7611 24.6998C48.9956 23.2746 50.7783 21.2895 50.781 19.104C50.781 16.9159 48.9996 14.9268 45.7611 13.5017V13.503ZM45.3929 23.8678C45.1536 23.9752 44.921 24.0748 44.679 24.1637C41.7982 25.2823 38.1915 25.8462 34.5821 25.8462C30.9728 25.8462 27.3262 25.2796 24.4374 24.1424C24.2127 24.0641 23.9867 23.9646 23.77 23.8678C17.7996 21.2417 17.7996 16.9676 23.77 14.3376C26.7519 13.0187 30.6617 12.3592 34.5742 12.3592C38.4866 12.3592 42.4044 13.0187 45.3929 14.3376C51.3553 16.9676 51.3553 21.2417 45.3929 23.8678Z" fill="black"/>
<path d="M38.9411 38.2054H28.3936V46.8053H38.9411V38.2054Z" fill="black"/>
<path d="M0 29.9624H4.78056V21.3837L0 21.3625V29.9624Z" fill="black"/>
<path d="M5.35618 38.2943C4.95602 38.4588 13.0402 42.7528 13.0402 42.7528V34.1529L5.35618 29.6944C5.35618 29.6944 5.75633 38.1298 5.35618 38.2943Z" fill="black"/>
<path d="M54.5298 43.7693L62.7283 39.6995V31.0996L54.5298 35.1694V43.7693Z" fill="black"/>
<path d="M64.3716 22.8553V31.4552H69.1521C69.2917 31.4552 69.1521 22.8553 69.1521 22.8553H64.3716Z" fill="black"/>
<g style="mix-blend-mode:multiply">
<path d="M132.998 47.0296L139.083 43.9789L128.607 37.8949L122.829 40.9814C117.927 38.9458 112.386 37.4 106.619 36.7113L106.762 32.5022H92.3899L92.2476 36.7113C92.237 36.7113 82.6001 36.9647 75.6154 39.8084L71.1126 37.0496L59.9549 42.5883L64.7248 45.5394C62.9713 46.256 59.1479 49.0718 57.7733 53.8116L50.8032 53.7864V61.5915L57.312 61.6167C58.1402 64.7708 60.2261 67.8786 63.5749 70.6877L58.0937 72.9329L68.5588 79.0063L73.4112 76.4586C78.2994 78.4755 83.8444 79.841 89.5968 80.5469L89.4652 84.5237H103.827L103.98 80.9065C110.3 80.8959 118.162 78.7077 120.623 77.617L125.054 80.3903L136.215 74.8477L131.992 71.7041C135.673 69.0808 137.248 66.7467 138.458 63.6217H144.964V55.7171L138.879 55.668C138.312 53.4865 136.416 49.7764 132.998 47.0322V47.0296ZM112.61 65.0004C112.289 65.1464 111.971 65.2791 111.638 65.4038C103.744 68.3801 92.003 68.266 84.0811 65.3759C83.7779 65.2658 83.4629 65.1331 83.1664 65.0017C75.061 61.3659 75.0357 55.607 83.1664 52.0282C91.2905 48.4322 104.476 48.4322 112.61 52.0282C120.73 55.607 120.69 61.3367 112.61 65.0017V65.0004Z" fill="#FBFCFC"/>
<path d="M132.973 46.938L139.049 43.8914L128.584 37.8153L122.811 40.8978C117.912 38.8662 112.373 37.3164 106.61 36.629L106.754 32.4239H92.3924L92.2501 36.629C92.2395 36.629 82.6092 36.8824 75.6285 39.7261L71.1324 36.9674L59.9787 42.502L64.7486 45.4532C62.9951 46.1657 59.1757 48.9815 57.8011 53.7187L50.835 53.6935V61.4906L57.3411 61.5158C58.1693 64.67 60.2512 67.7777 63.6 70.5829L58.1228 72.8281L68.5813 78.8935L73.431 76.3458C78.3152 78.3627 83.8575 79.7282 89.6019 80.4341L89.4703 84.4083H103.824L103.977 80.795C110.293 80.7844 118.148 78.5963 120.609 77.5082L125.033 80.2775L136.188 74.7388L131.968 71.5953C135.649 68.9759 137.22 66.6418 138.43 63.5195H144.932V55.6216L138.847 55.5725C138.282 53.3949 136.387 49.6848 132.974 46.9407L132.973 46.938ZM112.599 64.8969C112.278 65.0429 111.96 65.1756 111.629 65.3003C103.742 68.2726 92.0082 68.1585 84.0915 65.2724C83.7884 65.1623 83.4733 65.0296 83.1782 64.8982C75.0768 61.2624 75.0515 55.5114 83.1782 51.9326C91.2983 48.3433 104.47 48.3433 112.599 51.9326C120.715 55.5114 120.677 61.2385 112.599 64.8982V64.8969Z" fill="#F9F9FA"/>
<path d="M132.948 46.8491L139.022 43.8051L128.561 37.729L122.794 40.8115C117.899 38.78 112.363 37.2327 106.608 36.5454L106.752 32.3443H92.3981L92.2585 36.5454C92.2438 36.5454 82.6216 36.7988 75.6488 39.6385L71.1541 36.8838L60.0096 42.4145L64.7729 45.3616C63.0234 46.0742 59.2066 48.89 57.832 53.6232L50.8726 53.598V61.3885L57.3747 61.4137C58.1989 64.5638 60.2808 67.6689 63.6269 70.4701L58.1537 72.7153L68.6056 78.7781L73.4513 76.233C78.3329 78.2499 83.8672 79.6114 89.6116 80.3133L89.48 84.2875H103.819L103.972 80.6729C110.285 80.6623 118.137 78.4782 120.594 77.3901L125.018 80.1594L136.165 74.6247L131.944 71.4852C135.623 68.8658 137.193 66.5343 138.4 63.416H144.898V55.5181L138.821 55.4716C138.253 53.2941 136.364 49.5879 132.952 46.8465L132.948 46.8491ZM112.589 64.7934C112.267 64.9394 111.95 65.072 111.621 65.1968C103.745 68.1837 92.0072 68.0696 84.0985 65.1689C83.7981 65.0588 83.4843 64.9261 83.1879 64.7947C75.0931 61.1629 75.0678 55.4145 83.1879 51.8398C91.3 48.2504 104.465 48.2504 112.588 51.8398C120.696 55.4145 120.657 61.1377 112.588 64.7947L112.589 64.7934Z" fill="#F6F7F7"/>
<path d="M132.92 46.7562L138.994 43.7162L128.539 37.6468L122.776 40.7226C117.884 38.6951 112.354 37.1478 106.602 36.4631L106.744 32.2607H92.4008L92.2612 36.4631C92.2505 36.4631 82.6309 36.7166 75.6608 39.5536L71.1727 36.7989L60.0362 42.3269L64.7955 45.274C63.046 45.9866 59.2293 48.7984 57.8613 53.5276L50.9019 53.5024V61.2863L57.4 61.3142C58.2243 64.4603 60.3034 67.5654 63.6482 70.3626L58.1777 72.6078L68.6216 78.6666L73.4633 76.1189C78.3409 78.1358 83.8713 79.4973 89.613 80.2006L89.4814 84.1708H103.81L103.963 80.5602C110.272 80.5495 118.117 78.3681 120.574 77.2813L124.99 80.0427L136.13 74.5146L131.914 71.3751C135.588 68.7583 137.158 66.4282 138.365 63.3125H144.861V55.4212L138.787 55.3721C138.219 53.1986 136.33 49.4951 132.917 46.7549L132.92 46.7562ZM112.579 64.6899C112.257 64.8359 111.939 64.9686 111.611 65.0893C103.717 68.0219 92.0192 67.9476 84.1105 65.0641C83.8074 64.954 83.4964 64.8213 83.1999 64.6899C75.1091 61.062 75.0839 55.3137 83.1999 51.7416C91.3053 48.1562 104.463 48.1562 112.579 51.7416C120.684 55.3124 120.644 61.0328 112.579 64.6899Z" fill="#F4F4F5"/>
<path d="M132.895 46.6673L138.961 43.6273L128.517 37.5605L122.758 40.6364C117.87 38.6088 112.342 37.0655 106.593 36.3808L106.737 32.1824H92.4046L92.265 36.3808C92.2544 36.3808 82.6428 36.6303 75.6793 39.4673L71.1912 36.7152L60.0614 42.2393L64.8207 45.1825C63.0712 45.895 59.2571 48.7042 57.8905 53.4294L50.939 53.4042V61.1841L57.4305 61.2093C58.2547 64.3568 60.3339 67.4566 63.6761 70.2551L58.2095 72.4963L68.6467 78.5512L73.4845 76.0061C78.3581 78.0204 83.8858 79.3818 89.6195 80.0838L89.4906 84.05H103.808L103.961 80.4434C110.264 80.4328 118.105 78.2513 120.558 77.1645L124.975 79.9272L136.105 74.4031L131.892 71.2662C135.567 68.6495 137.134 66.3234 138.341 63.2077H144.829V55.3243L138.763 55.2752C138.195 53.1043 136.306 49.4022 132.896 46.6647L132.895 46.6673ZM112.566 64.5864C112.245 64.7324 111.927 64.8637 111.599 64.9858C103.711 67.9157 92.0204 67.8414 84.1197 64.9606C83.8166 64.8504 83.5056 64.7191 83.2091 64.5864C75.1249 60.9612 75.0997 55.2168 83.2091 51.6487C91.3079 48.0633 104.458 48.0633 112.566 51.6487C120.664 55.2155 120.625 60.932 112.566 64.5864Z" fill="#F1F2F3"/>
<path d="M132.869 46.5771L138.933 43.5371L128.496 37.4782L122.741 40.5501C117.855 38.5252 112.331 36.9793 106.587 36.2946L106.731 32.1001H92.4128L92.2692 36.2946C92.2586 36.2946 82.6576 36.548 75.6941 39.3811L71.2127 36.633L60.0895 42.1491L64.8461 45.0896C63.0993 45.8022 59.2865 48.6113 57.9186 53.3339L50.9697 53.3087V61.0859L57.4573 61.1111C58.2815 64.2547 60.3607 67.3517 63.6988 70.149L58.2363 72.3875L68.6669 78.4397L73.5019 75.8986C78.3716 77.9089 83.8953 79.2704 89.6264 79.9723L89.4947 83.9359H103.806L103.96 80.3333C110.259 80.3226 118.089 78.1411 120.546 77.0544L124.955 79.8157L136.077 74.2943L131.871 71.1614C135.539 68.5487 137.106 66.2212 138.313 63.1068H144.798V55.2301L138.732 55.181C138.168 53.0101 136.279 49.3106 132.872 46.5771H132.869ZM112.556 64.4829C112.238 64.6249 111.921 64.7576 111.588 64.8823C103.722 67.848 92.0246 67.7326 84.1306 64.8531C83.8275 64.743 83.5164 64.6143 83.2199 64.4829C75.1185 60.9147 75.1185 55.12 83.2199 51.5531C91.3147 47.9744 104.451 47.9744 112.556 51.5531C120.647 55.12 120.619 60.851 112.556 64.4829Z" fill="#EFEFF1"/>
<path d="M132.844 46.4856L138.904 43.4522L128.47 37.3933L122.722 40.4652C117.842 38.4416 112.321 36.8984 106.583 36.2137L106.722 32.0219H92.4153L92.2718 36.2137C92.2611 36.2137 82.6668 36.4671 75.7113 39.2962L71.2298 36.5481L60.1186 42.0655L64.8673 45.002C63.1244 45.7146 59.3157 48.5198 57.9477 53.2424L51.0068 53.2171V60.9837L57.4917 61.0116C58.3133 64.1512 60.3872 67.2483 63.7253 70.0428L58.2654 72.2814L68.688 78.3256L73.5191 75.7845C78.3861 77.7988 83.9058 79.1563 89.6329 79.8542L89.5013 83.8178H103.802L103.952 80.2152C110.247 80.2046 118.074 78.027 120.527 76.9429L124.937 79.7016L136.052 74.1842L131.846 71.0513C135.51 68.4425 137.077 66.115 138.28 63.0073H144.761V55.1346L138.701 55.0842C138.138 52.9133 136.251 49.2177 132.845 46.4842L132.844 46.4856ZM112.545 64.3794C112.228 64.5214 111.91 64.6541 111.581 64.7788C103.723 67.7578 92.0258 67.6437 84.1371 64.7509C83.8367 64.6408 83.5269 64.5121 83.2304 64.3807C75.1396 60.7993 75.1317 55.0244 83.2304 51.4616C91.3186 47.8842 104.448 47.8842 112.545 51.4616C120.632 55.0258 120.604 60.7529 112.545 64.3807V64.3794Z" fill="#ECEDEE"/>
<path d="M132.82 46.3966L138.873 43.3632L128.451 37.311L122.706 40.3803C117.829 38.3553 112.312 36.8161 106.578 36.1327L106.72 31.9449H92.4195L92.2799 36.1327C92.2653 36.1327 82.6789 36.3822 75.7261 39.2112L71.2486 36.4671L60.1441 41.9766L64.8927 44.9131C63.1499 45.6257 59.3438 48.4308 57.9758 53.1455L51.0376 53.1203V60.8829L57.5185 60.9081C58.3401 64.0476 60.4139 67.1421 63.7494 69.9327L58.2935 72.1712L68.7095 78.2128L73.5366 75.6757C78.3995 77.686 83.9126 79.0435 89.6371 79.7414L89.5081 83.701H103.794L103.947 80.101C110.239 80.0904 118.057 77.9129 120.507 76.8301L124.913 79.5888L136.022 74.0754L131.819 70.9464C135.483 68.3377 137.047 66.0142 138.25 62.9065H144.727V55.0364L138.671 54.9899C138.103 52.823 136.221 49.1275 132.819 46.398L132.82 46.3966ZM112.535 64.2759C112.217 64.4192 111.899 64.5506 111.571 64.6753C103.724 67.6516 92.0287 67.5375 84.1492 64.6474C83.8488 64.5373 83.539 64.4086 83.2426 64.2772C75.1584 60.6984 75.1518 54.9289 83.2426 51.3687C91.3227 47.7912 104.445 47.7912 112.536 51.3687C120.616 54.9289 120.588 60.6533 112.536 64.2772L112.535 64.2759Z" fill="#EAEBEC"/>
<path d="M132.795 46.3064L138.843 43.273L128.428 37.2248L122.686 40.294C117.812 38.2731 112.299 36.7298 106.568 36.0451L106.71 31.8613H92.4205L92.2809 36.0451C92.2662 36.0451 82.6865 36.2986 75.7417 39.125L71.2682 36.3848L60.1703 41.8916L64.9149 44.8242C63.1721 45.5341 59.37 48.3379 58.002 53.0499L51.0718 53.0247V60.7834L57.5447 60.8086C58.3663 63.9455 60.4401 67.0346 63.7716 69.8252L58.3197 72.0597L68.7277 78.0973L73.5521 75.5629C78.4111 77.5692 83.9215 78.9267 89.642 79.626L89.5104 83.5816H103.79L103.942 79.9856C110.227 79.975 118.044 77.7975 120.492 76.7133L124.895 79.472L135.993 73.9613L131.794 70.8363C135.453 68.2275 137.017 65.9067 138.22 62.8003H144.69V54.9382L138.637 54.8917C138.074 52.7248 136.191 49.0333 132.792 46.3064H132.795ZM112.524 64.1737C112.206 64.317 111.888 64.4484 111.56 64.5731C103.715 67.5455 92.0363 67.4353 84.1582 64.5452C83.8577 64.4351 83.548 64.3064 83.2515 64.175C75.1674 60.6148 75.1674 54.8333 83.2515 51.2731C91.329 47.7023 104.436 47.7023 112.524 51.2731C120.596 54.8333 120.568 60.5498 112.524 64.175V64.1737Z" fill="#E7E8EA"/>
<path d="M132.77 46.2135L138.814 43.1841L128.406 37.1425L122.669 40.2078C117.798 38.1868 112.289 36.6476 106.562 35.9629L106.705 31.7817H92.4259L92.2876 35.9629C92.273 35.9629 82.6999 36.2163 75.7591 39.0387L71.2882 36.2986L60.201 41.8014L64.943 44.734C63.2001 45.4439 59.4006 48.2451 58.034 52.9531L51.1064 52.9279V60.6799L57.5767 60.7077C58.3983 63.8407 60.4695 66.9311 63.801 69.7177L58.3517 71.9523L68.7531 77.9832L73.5735 75.4488C78.4298 77.4551 83.9349 78.8139 89.6514 79.5119L89.5198 83.4648H103.788L103.941 79.8715C110.221 79.8609 118.03 77.6833 120.476 76.6032L124.875 79.3579L135.965 73.8511L131.77 70.7248C135.426 68.1201 136.99 65.7992 138.194 62.6955H144.66V54.84L138.611 54.7935C138.047 52.6266 136.165 48.9377 132.77 46.2109V46.2135ZM112.513 64.0702C112.196 64.2135 111.878 64.3449 111.549 64.4696C103.713 67.438 92.039 67.3279 84.1702 64.4418C83.8698 64.3316 83.56 64.2029 83.2636 64.0715C75.1834 60.5153 75.1834 54.7378 83.2636 51.1803C91.3331 47.6095 104.434 47.6095 112.515 51.1803C120.584 54.7365 120.556 60.4503 112.515 64.0715L112.513 64.0702Z" fill="#E5E6E8"/>
<path d="M132.742 46.1246L138.783 43.0992L128.381 37.0576L122.646 40.1189C117.779 38.1019 112.281 36.5627 106.558 35.8806L106.697 31.7007H92.4288L92.2905 35.8806C92.2799 35.8806 82.7108 36.1301 75.7766 38.9565L71.3098 36.2163L60.2264 41.7165L64.9645 44.6464C63.2256 45.355 59.4261 48.1535 58.0662 52.8615L51.1426 52.8363V60.5804L57.6088 60.6056C58.4304 63.7385 60.4976 66.825 63.8212 69.6115L58.3839 71.8435L68.7706 77.8731L73.587 75.3386C78.4434 77.345 83.9458 78.6958 89.6543 79.3938L89.5253 83.3467H103.783L103.934 79.7547C110.211 79.7441 118.016 77.5732 120.462 76.4904L124.857 79.2412L135.94 73.7383L131.745 70.62C135.402 68.0152 136.965 65.6984 138.162 62.5973H144.625V54.7458L138.585 54.6954C138.02 52.5364 136.142 48.8502 132.743 46.1246H132.742ZM112.507 63.9667C112.185 64.11 111.871 64.2414 111.543 64.3622C103.692 67.2947 92.0406 67.2204 84.1785 64.3369C83.878 64.2268 83.5683 64.0981 83.2745 63.9667C75.2156 60.3773 75.2009 54.637 83.2745 51.0834C91.3373 47.5153 104.431 47.5153 112.507 51.0834C120.566 54.637 120.545 60.3667 112.507 63.9667Z" fill="#E2E3E5"/>
<path d="M132.717 46.0331L138.755 43.0103L128.361 36.9767L122.63 40.0339C117.767 38.017 112.272 36.4804 106.551 35.7997L106.691 31.6224H92.4327L92.2931 35.7997C92.2825 35.7997 82.7201 36.0491 75.7898 38.8715L71.327 36.1314L60.2543 41.6263L64.9897 44.5562C63.2508 45.2661 59.4554 48.0593 58.0954 52.7647L51.1758 52.7394V60.4769L57.6394 60.5047C58.461 63.6337 60.5242 66.7201 63.8491 69.5041L58.4144 71.7346L68.7945 77.7577L73.6083 75.2232C78.4606 77.2295 83.9591 78.5804 89.6649 79.2783L89.5359 83.2273H103.783L103.933 79.6379C110.207 79.6273 118.005 77.4564 120.447 76.3776L124.84 79.1257L135.916 73.6269L131.725 70.5086C135.377 67.9064 136.941 65.5909 138.138 62.4938H144.598V54.6502L138.559 54.5998C137.996 52.4409 136.117 48.7586 132.722 46.0317L132.717 46.0331ZM112.496 63.8632C112.174 64.0065 111.861 64.1379 111.532 64.2586C103.692 67.1885 92.0432 67.1142 84.1877 64.2334C83.8886 64.1233 83.5775 63.9946 83.285 63.8632C75.2288 60.2778 75.2155 54.5401 83.285 50.9905C91.34 47.4224 104.427 47.4224 112.496 50.9905C120.552 54.5401 120.53 60.2672 112.496 63.8632Z" fill="#E0E1E3"/>
<path d="M132.691 45.9428L138.725 42.9214L128.339 36.8917L122.612 39.949C117.753 37.9347 112.261 36.3955 106.544 35.7147L106.684 31.5415H92.4367L92.2971 35.7147C92.2865 35.7147 82.732 35.9682 75.8084 38.7866L71.3482 36.0491L60.2835 41.5413L65.0136 44.4673C63.2747 45.1732 59.4832 47.9677 58.1219 52.6678L51.209 52.6426V60.376L57.6646 60.4039C58.4862 63.5301 60.5494 66.6126 63.8703 69.3966L58.4397 71.6232L68.813 77.6435L73.6229 75.1131C78.4712 77.1154 83.967 78.4662 89.6689 79.1655L89.5372 83.1106H103.777L103.927 79.5251C110.194 79.5145 117.988 77.3436 120.43 76.2648L124.818 79.0129L135.883 73.5181L131.696 70.4024C135.345 67.8003 136.908 65.4874 138.105 62.3903H144.556V54.5534L138.522 54.5029C137.961 52.344 136.084 48.6657 132.691 45.9415V45.9428ZM112.486 63.7597C112.164 63.9017 111.85 64.0344 111.522 64.1551C103.685 67.085 92.0472 67.0094 84.1997 64.1299C83.8992 64.0198 83.5895 63.8911 83.297 63.7597C75.2487 60.1743 75.2341 54.4432 83.297 50.8937C91.3479 47.3335 104.421 47.3335 112.487 50.8937C120.535 54.4432 120.514 60.1637 112.487 63.7597H112.486Z" fill="#DDDEE1"/>
<path d="M132.666 45.8539L138.693 42.8325L128.317 36.8095L122.594 39.8641C117.738 37.8498 112.25 36.3145 106.537 35.6338L106.68 31.4632H92.4403L92.3047 35.6338C92.2901 35.6338 82.7422 35.8833 75.8227 38.703L71.3665 35.9695L60.3084 41.4551L65.0398 44.381C63.3009 45.0869 59.5121 47.8815 58.1521 52.5749L51.2432 52.5497V60.2805L57.6948 60.3057C58.5164 63.432 60.5796 66.5105 63.8965 69.2904L58.4685 71.5184L68.8339 77.5334L73.6398 75.0069C78.4855 77.0066 83.9733 78.3574 89.6711 79.0554L89.5422 82.9978H103.767L103.921 79.4163C110.184 79.4057 117.972 77.2348 120.41 76.1547L124.794 78.9028L135.852 73.4106L131.667 70.3002C135.316 67.6981 136.877 65.3892 138.074 62.2921H144.523V54.4592L138.491 54.4127C137.927 52.2564 136.053 48.5781 132.664 45.8592L132.666 45.8539ZM112.475 63.6562C112.153 63.7982 111.839 63.9309 111.511 64.0516C103.68 66.9776 92.0548 66.9019 84.2099 64.0264C83.9095 63.9163 83.5997 63.7876 83.3059 63.6562C75.2643 60.0748 75.251 54.3464 83.3059 50.8008C91.3502 47.2406 104.416 47.2406 112.475 50.8008C120.516 54.3477 120.494 60.0642 112.475 63.6562Z" fill="#DBDCDF"/>
<path d="M132.641 45.761L138.664 42.7462L128.292 36.7232L122.576 39.7778C117.723 37.7635 112.238 36.2322 106.532 35.5515L106.671 31.3849H92.4419L92.3064 35.5515C92.2917 35.5515 82.7519 35.801 75.8389 38.6168L71.3827 35.8832L60.3353 41.3688L65.0587 44.2921C63.3238 44.998 59.539 47.7886 58.1777 52.482L51.2754 52.4568V60.177L57.7244 60.2048C58.542 63.3271 60.6025 66.407 63.9194 69.1829L58.4954 71.4109L68.8529 77.4193L73.656 74.8928C78.4977 76.8965 83.9829 78.2433 89.6768 78.9386L89.5478 82.8797H103.762L103.912 79.2982C110.171 79.2876 117.955 77.1207 120.39 76.0446L124.775 78.7887L135.826 73.3004L131.641 70.1888C135.286 67.5906 136.847 65.2817 138.039 62.1913H144.484V54.361L138.461 54.3145C137.897 52.1582 136.025 48.4839 132.637 45.765L132.641 45.761ZM112.463 63.5527C112.141 63.696 111.827 63.8274 111.503 63.9481C103.683 66.8847 92.0538 66.8104 84.2169 63.9229C83.9204 63.8128 83.6093 63.6841 83.3169 63.5527C75.2792 59.9739 75.2646 54.2508 83.3169 50.7079C91.3545 47.1477 104.412 47.1477 112.464 50.7079C120.502 54.2508 120.481 59.9633 112.464 63.5527H112.463Z" fill="#D8DADC"/>
<path d="M132.617 45.6721L138.636 42.6573L128.271 36.6409L122.558 39.6916C117.71 37.6813 112.229 36.1447 106.527 35.4653L106.666 31.3026H92.4523L92.3127 35.4653C92.2981 35.4653 82.7689 35.7187 75.856 38.5305L71.4064 35.801L60.3657 41.2786L65.0864 44.1979C63.3555 44.9038 59.5693 47.6944 58.2093 52.3838L51.311 52.3586V60.0748L57.756 60.1027C58.5736 63.221 60.6342 66.2968 63.9471 69.0741L58.5271 71.2981L68.8779 77.3038L73.6771 74.7813C78.5148 76.781 83.9959 78.1279 89.6872 78.8232L89.5555 82.7616H103.763L103.913 79.1828C110.169 79.1722 117.942 77.0053 120.381 75.9291L124.758 78.6733L135.802 73.1877L131.623 70.08C135.262 67.4858 136.823 65.1756 138.015 62.0864H144.456V54.2641L138.433 54.2177C137.872 52.0614 136.001 48.3897 132.617 45.6748V45.6721ZM112.453 63.4492C112.136 63.5925 111.818 63.7199 111.492 63.8446C103.694 66.817 92.0575 66.7069 84.2273 63.8168C83.9308 63.7066 83.621 63.5779 83.3272 63.4492C75.283 59.9063 75.283 54.154 83.3272 50.6123C91.3609 47.0588 104.404 47.0588 112.453 50.6123C120.483 54.1553 120.472 59.8824 112.453 63.4492Z" fill="#D6D7DA"/>
<path d="M132.591 45.5832L138.604 42.5684L128.249 36.556L122.539 39.6067C117.694 37.5963 112.217 36.0637 106.517 35.383L106.657 31.2243H92.4522L92.3139 35.383C92.2993 35.383 82.7767 35.6325 75.8704 38.4443L71.4222 35.7174L60.3881 41.191L65.1088 44.1063C63.3766 44.8123 59.5958 47.5989 58.2344 52.2856L51.3428 52.2604V59.9726L57.7811 59.9978C58.5987 63.1161 60.6593 66.188 63.9695 68.9653L58.5535 71.1853L68.8977 77.1871L73.6928 74.6672C78.5279 76.6629 84.0051 78.0098 89.6896 78.7051L89.5607 82.6395H103.757L103.908 79.0647C110.156 79.0541 117.926 76.8872 120.361 75.811L124.738 78.5551L135.771 73.0735L131.598 69.9698C135.237 67.3756 136.793 65.0694 137.986 61.9803H144.42V54.1646L138.403 54.1181C137.842 51.9658 135.972 48.2942 132.59 45.5819L132.591 45.5832ZM112.441 63.3457C112.123 63.489 111.806 63.6164 111.481 63.7411C103.691 66.7095 92.06 66.5994 84.2377 63.7133C83.9413 63.6031 83.6302 63.4744 83.3377 63.3457C75.3001 59.8067 75.3001 54.0584 83.3377 50.5195C91.3647 46.9659 104.401 46.9659 112.443 50.5195C120.466 54.0584 120.455 59.7815 112.443 63.3457H112.441Z" fill="#D3D5D8"/>
<path d="M132.562 45.4903L138.575 42.4781L128.227 36.4724L122.521 39.5164C117.679 37.5101 112.206 35.9774 106.511 35.3007L106.651 31.1421H92.4577L92.3195 35.3007C92.3088 35.3007 82.7889 35.5502 75.8879 38.358L71.4464 35.6311L60.4202 41.1021L65.137 44.0174C63.4048 44.7233 59.6239 47.5059 58.2706 52.1901L51.3789 52.1648V59.8704L57.8133 59.8996C58.6308 63.014 60.6874 66.0858 63.9977 68.8591L58.5843 71.0791L68.9205 77.0769L73.7117 74.5531C78.5428 76.5488 84.0173 77.8956 89.6979 78.591L89.5689 82.5227H103.755L103.905 78.9519C110.151 78.9413 117.913 76.7784 120.349 75.7022L124.72 78.4397L135.746 72.966L131.576 69.8623C135.212 67.2708 136.767 64.9646 137.959 61.8794H144.39V54.0703L138.377 54.0212C137.816 51.8716 135.945 48.2052 132.563 45.493L132.562 45.4903ZM112.431 63.2422C112.113 63.3855 111.799 63.5129 111.47 63.6336C103.661 66.5529 92.0669 66.4773 84.2473 63.6084C83.9468 63.4983 83.6397 63.3696 83.3473 63.2409C75.3136 59.7059 75.3136 53.9576 83.3473 50.4212C91.3663 46.8717 104.396 46.8717 112.429 50.4212C120.45 53.9562 120.438 59.6807 112.429 63.2409L112.431 63.2422Z" fill="#D1D2D6"/>
<path d="M132.536 45.4014L138.545 42.3932L128.201 36.3875L122.503 39.4315C117.666 37.4252 112.195 35.8965 106.507 35.2184L106.645 31.0625H92.4587L92.3231 35.2184C92.3084 35.2184 82.7965 35.4679 75.9022 38.2731L71.4606 35.5502L60.4451 41.0172L65.1552 43.9285C63.427 44.6344 59.6501 47.4184 58.2968 52.0972L51.4131 52.072V59.7696L57.8434 59.7988C58.6584 62.9105 60.7137 65.9784 64.0199 68.7477L58.6105 70.9677L68.9401 76.9628L73.7286 74.4429C78.5557 76.4387 84.0222 77.7829 89.7041 78.4742L89.5752 82.4059H103.747L103.897 78.8351C110.139 78.8245 117.897 76.6643 120.33 75.5881L124.7 78.3256L135.719 72.8546L131.549 69.7535C135.179 67.162 136.737 64.8597 137.926 61.7773H144.354V53.9682L138.347 53.9217C137.784 51.7721 135.918 48.1084 132.538 45.4001L132.536 45.4014ZM112.42 63.1387C112.102 63.282 111.788 63.4094 111.463 63.5315C103.664 66.4614 92.0705 66.3857 84.2535 63.5063C83.9571 63.3961 83.65 63.2674 83.3575 63.1387C75.3305 59.6064 75.3305 53.862 83.3575 50.3297C91.3699 46.7801 104.391 46.7801 112.418 50.3297C120.431 53.862 120.42 59.5825 112.418 63.1387H112.42Z" fill="#CED0D3"/>
<path d="M132.513 45.3085L138.515 42.3043L128.182 36.3052L122.486 39.3452C117.651 37.3429 112.185 35.8103 106.502 35.1322L106.641 30.9802H92.4656L92.33 35.1322C92.3154 35.1322 82.8114 35.3817 75.9198 38.1868L71.4849 35.4639L60.4733 40.927L65.1821 43.8383C63.4539 44.5402 59.6797 47.3242 58.3263 52.0003L51.4453 51.9751V59.6661L57.8717 59.6939C58.6866 62.8043 60.7392 65.8735 64.0455 68.6402L58.6388 70.8602L68.9616 76.8474L73.7462 74.3275C78.5706 76.3232 84.0332 77.6674 89.7071 78.3588L89.5781 82.2865H103.743L103.893 78.7183C110.131 78.7077 117.884 76.5475 120.315 75.4753L124.679 78.2088L135.69 72.7418L131.524 69.6407C135.154 67.0532 136.708 64.7509 137.897 61.6724H144.321V53.8713L138.314 53.8249C137.753 51.6792 135.89 48.0155 132.511 45.3072L132.513 45.3085ZM112.409 63.0365C112.092 63.1785 111.778 63.3072 111.452 63.428C103.662 66.3579 92.0748 66.2822 84.2658 63.4028C83.9694 63.2926 83.6623 63.1639 83.3698 63.0365C75.3468 59.5042 75.3468 53.7665 83.3698 50.2342C91.3795 46.6912 104.386 46.6912 112.409 50.2342C120.418 53.7665 120.407 59.479 112.409 63.0365Z" fill="#CCCDD1"/>
<path d="M132.487 45.2196L138.486 42.2154L128.16 36.2203L122.469 39.2603C117.638 37.258 112.175 35.728 106.493 35.0513L106.633 30.9032H92.4682L92.3326 35.0513C92.318 35.0513 82.8206 35.3007 75.9369 38.1019L71.502 35.383L60.5011 40.8434L65.2073 43.752C63.479 44.454 59.7088 47.2339 58.3555 51.9061L51.4824 51.8809V59.5679L57.9021 59.5958C58.7157 62.7035 60.7697 65.7687 64.0719 68.5341L58.6692 70.7514L68.9841 76.7346L73.766 74.2187C78.5865 76.2104 84.0464 77.5546 89.7163 78.246L89.5873 82.1697H103.742L103.892 78.6056C110.123 78.595 117.871 76.4347 120.298 75.3625L124.661 78.096L135.662 72.633L131.498 69.5359C135.126 66.9484 136.679 64.6501 137.868 61.5703H144.285V53.7758L138.286 53.7293C137.725 51.5837 135.863 47.9226 132.487 45.2183V45.2196ZM112.399 62.933C112.081 63.075 111.767 63.2077 111.442 63.3245C103.694 66.3433 92.0135 66.3433 84.2763 63.2993C83.9759 63.1958 83.6728 63.0604 83.3803 62.9317C75.364 59.4034 75.364 53.6683 83.3803 50.1399C91.382 46.597 104.382 46.597 112.399 50.1399C120.4 53.6683 120.4 59.4034 112.399 62.9317V62.933Z" fill="#C9CBCF"/>
</g>
<path d="M132.488 45.2196L138.487 42.2154L128.161 36.2203L122.47 39.2603C117.639 37.258 112.176 35.728 106.494 35.0513L106.634 30.9032H92.4692L92.3336 35.0513C92.3189 35.0513 82.8216 35.3007 75.9379 38.1019L71.503 35.383L60.5021 40.8434L65.2082 43.752C63.48 44.454 58.5957 42.8139 57.2424 47.4874L51.4834 51.8822V59.5692L57.9031 59.5944C58.7167 62.7061 60.7707 65.7714 64.0729 68.5367L58.6702 70.754L68.9851 76.7372L73.767 74.2213C78.5874 76.2131 84.0473 77.5573 89.7173 78.2486L89.5883 82.1724H103.743L103.893 78.6082C110.124 78.5976 117.872 76.4373 120.299 75.3652L124.662 78.0987L135.663 72.6356L131.499 69.5386C135.127 66.951 136.68 64.6527 137.869 61.5729H144.286V53.7784L138.719 50.0325C138.162 47.8868 135.864 47.9253 132.488 45.221V45.2196ZM112.4 62.933C112.082 63.075 111.768 63.2077 111.443 63.3245C103.695 66.3433 92.0145 66.3433 84.2773 63.2993C83.9769 63.1958 83.6738 63.0604 83.3813 62.9317C75.3649 59.4034 75.3649 53.6683 83.3813 50.1399C91.383 46.597 104.383 46.597 112.4 50.1399C120.401 53.6683 120.401 59.4034 112.4 62.9317V62.933Z" fill="black"/>
<path d="M128.567 35.7651L136.43 40.858L138.486 39.2643V30.675L130.163 31.081L128.567 35.7651Z" fill="black"/>
<path d="M60.54 29.3096V37.9029L62.5966 39.4925L70.4588 34.3997L68.8622 29.7169L60.54 29.3096Z" fill="black"/>
<path d="M132.488 33.6765L138.487 30.6763L128.161 24.6812L122.47 27.7212C117.639 25.7149 112.176 24.1889 106.494 23.5121L106.634 19.3641H92.4692L92.3336 23.5121C92.3189 23.5121 82.8216 23.7616 75.9379 26.5628L71.503 23.8465L60.5021 29.3029L65.2082 32.2116C63.48 32.9135 59.7098 35.6935 58.3565 40.3657L51.4834 40.3405V48.0274L57.9031 48.0527C58.7167 51.163 60.7707 54.2283 64.0729 56.9949L58.6702 59.2109L68.9851 65.1955L73.767 62.6796C78.5874 64.6726 84.0473 66.0155 89.7173 66.7068L89.5883 70.6306H103.743L103.893 67.0665C110.124 67.0519 117.872 64.8956 120.299 63.8234L124.662 66.5529L135.663 61.0925L131.499 57.9955C135.127 55.4079 136.68 53.1057 137.869 50.0298H144.286V42.2353L138.287 42.1889C137.726 40.0432 135.864 36.3835 132.488 33.6739V33.6765ZM112.4 51.3926C112.082 51.5359 111.768 51.6673 111.443 51.784C103.695 54.7988 92.0145 54.7988 84.2773 51.7588C83.9769 51.6513 83.6738 51.5239 83.3813 51.3913C75.3649 47.8589 75.3649 42.1292 83.3813 38.6008C91.383 35.0579 104.383 35.0579 112.4 38.6008C120.401 42.1292 120.401 47.8603 112.4 51.3913V51.3926Z" fill="#9696FE"/>
<path d="M103.996 70.896H89.3123L89.4412 66.9404C83.7168 66.2239 78.4497 64.8889 73.7794 62.9715L68.9776 65.498L58.0684 59.1698L63.5669 56.914C60.5664 54.3145 58.543 51.3528 57.6975 48.3167L51.2153 48.2915V40.0737L58.1562 40.099C59.4138 36.0053 62.6044 33.2055 64.645 32.1758L59.9536 29.2764L71.5141 23.5427L75.9597 26.2656C82.1773 23.7749 90.5101 23.3184 92.0735 23.2547L92.2091 19.0974H106.906L106.765 23.2773C112.032 23.9288 117.448 25.3619 122.452 27.428L128.163 24.3773L139.042 30.6936L132.969 33.7323C136.066 36.3424 137.854 39.7035 138.486 41.9288L144.547 41.9753V50.2979H138.046C136.938 53.1057 135.491 55.4053 131.944 58.0008L136.163 61.1403L124.641 66.8595L120.27 64.1246C117.556 65.2817 110.107 67.2642 104.141 67.3319L103.99 70.8974L103.996 70.896ZM89.8613 70.3653H103.485L103.635 66.8024H103.889C109.919 66.7878 117.589 64.7297 120.189 63.5819L120.318 63.5248L124.675 66.2504L135.156 61.0488L131.046 57.9928L131.343 57.7818C135.072 55.1226 136.509 52.8084 137.619 49.9369L137.684 49.7671H144.018V42.5007L138.079 42.4543L138.027 42.2579C137.404 39.8694 135.396 36.353 132.32 33.8835L131.997 33.6248L137.926 30.6591L128.154 24.9864L122.481 28.0158L122.364 27.968C117.296 25.8622 111.797 24.4131 106.46 23.7775L106.218 23.7483L106.357 19.6308H92.7235L92.5879 23.7789H92.33C92.2423 23.7815 82.8832 24.023 76.0341 26.8096L75.9091 26.86L71.4849 24.1504L61.0437 29.3295L65.7883 32.262L65.3044 32.4584C63.3834 33.2387 59.8658 36.0956 58.6069 40.44L58.551 40.6324L51.7444 40.6072V47.7634L58.1043 47.7886L58.1562 47.9863C58.9698 51.0954 61.0729 54.1407 64.2396 56.7919L64.5759 57.0732L59.2649 59.2521L68.9869 64.8916L73.7489 62.3863L73.8645 62.4341C78.5839 64.3847 83.9268 65.7342 89.7443 66.4428L89.9863 66.472L89.8587 70.3639L89.8613 70.3653ZM97.8896 54.3066C92.9841 54.3066 88.0812 53.5396 84.1794 52.007C83.9175 51.9141 83.6184 51.7907 83.2714 51.6354C79.2938 49.8825 77.103 47.5245 77.103 44.9954C77.103 42.4676 79.2952 40.1109 83.2741 38.3593C91.3263 34.7938 104.441 34.7938 112.508 38.3593C116.479 40.1109 118.667 42.4676 118.667 44.9954C118.667 47.5232 116.48 49.8812 112.509 51.6354C112.146 51.7986 111.835 51.926 111.533 52.0348C107.64 53.5502 102.765 54.3079 97.891 54.3079L97.8896 54.3066ZM97.8843 36.2097C92.669 36.2097 87.4551 37.0881 83.4881 38.8437C79.7139 40.505 77.6347 42.6892 77.6347 44.9941C77.6347 47.3003 79.7126 49.4858 83.4881 51.1484C83.8231 51.2997 84.1103 51.4165 84.3669 51.508C88.2168 53.0208 93.0546 53.7771 97.891 53.7771C102.698 53.7771 107.504 53.03 111.346 51.5346C111.641 51.4284 111.939 51.305 112.29 51.1484H112.291C116.059 49.4844 118.134 47.299 118.134 44.9927C118.134 42.6878 116.059 40.5037 112.291 38.8423C108.318 37.0855 103.1 36.2084 97.8843 36.2084V36.2097Z" fill="black"/>
<path d="M103.741 70.6306H89.5864V82.1711H103.741V70.6306Z" fill="black"/>
<path d="M51.4814 59.5692H57.9012V48.054L51.4814 48.0275V59.5692Z" fill="black"/>
<path d="M58.6681 70.7527C58.1324 70.973 68.983 76.7359 68.983 76.7359V65.1955L58.6681 59.2109C58.6681 59.2109 59.2039 70.5298 58.6681 70.7514V70.7527Z" fill="black"/>
<path d="M124.66 78.0974L135.662 72.6343V61.0939L124.66 66.5543V78.0974Z" fill="black"/>
<path d="M137.868 50.0311V61.5716H144.285C144.471 61.5716 144.285 50.0311 144.285 50.0311H137.868Z" fill="black"/>
</svg>
