<svg width="585" height="421" viewBox="0 0 585 421" fill="none" xmlns="http://www.w3.org/2000/svg">
<g clip-path="url(#clip0_2_107)">
<path d="M173.648 345.815C173.51 345.271 173.177 344.793 172.69 344.477L113.628 306.361C112.929 305.915 112.044 305.883 111.322 306.28L106.313 309.021L106.345 299.695L102.741 297.935L99.0466 299.378L99.0709 312.995L90.8549 317.496L90.928 297.432L86.479 295.259L81.9326 297.035L81.9732 322.361L73.9764 326.741L74.1063 291.285L68.399 288.495L62.5698 290.766L62.6348 332.945L12.0642 360.623C11.4391 360.964 11.0494 361.564 10.9357 362.245L10.7084 362.269L10.3106 366.9C10.1807 368.4 10.887 369.844 12.1373 370.671L69.495 408.495C70.4855 409.144 71.6221 409.468 72.7587 409.468C73.7572 409.468 74.7558 409.217 75.6651 408.706L172.682 354.476C173.177 354.2 173.502 353.673 173.518 353.097L173.729 346.447V346.277V345.807H173.656L173.648 345.815Z" fill="white"/>
<path d="M521.87 251.961C521.87 251.961 521.862 251.929 521.854 251.904C521.854 251.88 521.838 251.856 521.829 251.839C521.829 251.839 521.829 251.823 521.829 251.815C521.821 251.799 521.805 251.791 521.797 251.774C521.781 251.75 521.764 251.734 521.74 251.718C521.74 251.718 521.724 251.701 521.716 251.693L475.708 218.346V159.161C475.708 159.161 475.708 159.145 475.708 159.137C475.708 159.113 475.7 159.08 475.692 159.056C475.692 159.032 475.675 159.007 475.667 158.983C475.667 158.983 475.667 158.967 475.667 158.959C475.659 158.942 475.643 158.934 475.635 158.918C475.618 158.894 475.602 158.869 475.578 158.853C475.562 158.837 475.537 158.829 475.521 158.813C475.497 158.796 475.472 158.788 475.448 158.78C475.424 158.772 475.399 158.764 475.367 158.764C475.351 158.764 475.334 158.756 475.318 158.756C475.31 158.756 475.302 158.756 475.294 158.756C475.269 158.756 475.237 158.764 475.213 158.772C475.188 158.772 475.164 158.788 475.139 158.796C475.139 158.796 475.123 158.796 475.115 158.796L400.619 201.6C400.619 201.6 400.595 201.624 400.579 201.632C400.554 201.648 400.53 201.664 400.514 201.689C400.497 201.705 400.481 201.729 400.473 201.754C400.457 201.778 400.449 201.802 400.44 201.827C400.432 201.851 400.424 201.883 400.424 201.908C400.424 201.924 400.416 201.94 400.416 201.956V266.615C400.416 266.615 400.416 266.631 400.416 266.648C400.416 266.672 400.424 266.704 400.432 266.729C400.432 266.753 400.449 266.777 400.457 266.802C400.465 266.826 400.481 266.842 400.497 266.867C400.514 266.891 400.53 266.907 400.554 266.931C400.554 266.931 400.562 266.948 400.579 266.956L446.757 300.425H446.773C446.789 300.433 446.798 300.441 446.814 300.449C446.871 300.473 446.927 300.498 446.992 300.498C447.057 300.498 447.114 300.481 447.163 300.457C447.163 300.457 447.179 300.457 447.187 300.449C447.187 300.449 447.187 300.449 447.195 300.449L521.691 257.646C521.691 257.646 521.716 257.622 521.732 257.613C521.756 257.597 521.781 257.581 521.797 257.557C521.813 257.54 521.829 257.516 521.838 257.492C521.854 257.467 521.862 257.443 521.87 257.419C521.878 257.394 521.886 257.362 521.886 257.338C521.886 257.321 521.894 257.305 521.894 257.289V252.018C521.894 252.018 521.894 252.002 521.894 251.993C521.894 251.985 521.894 251.969 521.894 251.961H521.87Z" fill="white"/>
<path d="M585 113.844C585 113.844 585 113.828 585 113.82C585 113.804 584.992 113.788 584.984 113.771C584.984 113.747 584.968 113.723 584.959 113.698C584.959 113.698 584.959 113.682 584.959 113.674C584.959 113.658 584.943 113.65 584.927 113.642C584.911 113.617 584.894 113.593 584.87 113.577C584.87 113.577 584.862 113.56 584.854 113.56L538.675 80.0916C538.675 80.0916 538.635 80.0754 538.61 80.0592C538.586 80.043 538.562 80.0348 538.537 80.0267C538.513 80.0267 538.489 80.0267 538.456 80.0267C538.432 80.0267 538.408 80.0267 538.383 80.0267C538.351 80.0267 538.326 80.043 538.294 80.0592C538.278 80.0592 538.253 80.0673 538.237 80.0754L463.741 122.879C463.725 122.887 463.717 122.903 463.7 122.911C463.676 122.927 463.66 122.943 463.644 122.968C463.644 122.968 463.627 122.984 463.619 122.992C463.611 123 463.611 123.016 463.603 123.033C463.587 123.057 463.579 123.073 463.571 123.106C463.571 123.114 463.562 123.13 463.554 123.138C463.554 123.154 463.554 123.17 463.554 123.195C463.554 123.211 463.546 123.227 463.546 123.235V128.507C463.546 128.507 463.546 128.523 463.546 128.539C463.546 128.563 463.554 128.596 463.562 128.62C463.562 128.645 463.579 128.669 463.587 128.693C463.595 128.718 463.611 128.734 463.627 128.758C463.644 128.782 463.66 128.799 463.684 128.815C463.692 128.815 463.7 128.831 463.709 128.839L509.887 162.308H509.903C509.968 162.349 510.041 162.381 510.122 162.381C510.187 162.381 510.252 162.365 510.317 162.332C510.317 162.332 510.317 162.332 510.325 162.332L584.821 119.529C584.821 119.529 584.846 119.505 584.862 119.497C584.886 119.481 584.911 119.464 584.927 119.44C584.943 119.424 584.959 119.399 584.968 119.375C584.984 119.351 584.992 119.326 585 119.302C585.008 119.278 585.016 119.245 585.016 119.221C585.016 119.205 585.024 119.189 585.024 119.172V113.901C585.024 113.901 585.024 113.877 585.024 113.869L585 113.844Z" fill="white"/>
<path d="M34.5932 221.906L34.6744 221.809C36.4849 221.558 46.146 217.341 109.276 182.907C145.452 163.176 181.815 142.983 182.181 142.78L182.294 142.715L182.351 142.601C182.376 142.545 185.039 137.03 186.711 130.015C188.262 123.503 189.26 114.323 185.209 107.559C181.75 101.793 175.231 98.6467 165.806 98.2006C165.254 96.1894 161.746 84.6412 152.597 80.3268C152.199 80.1403 151.801 79.97 151.395 79.8159L123.069 67.1566C122.647 66.9458 122.201 66.743 121.738 66.5646C116.364 64.4236 110.096 65.0724 103.163 68.4785C102.96 68.5434 98.186 70.0842 91.4395 75.023C85.2613 79.5483 76.2334 87.9013 68.2447 102.012C66.7753 102.264 57.4957 104.056 47.3556 111.379C37.2399 118.686 24.1446 133.145 19.1598 160.573C18.3399 160.962 15.1817 162.624 11.5446 166.411C7.737 170.385 2.68724 177.554 0.259792 189.184C0.186725 189.792 -1.41263 204.146 4.34343 208.396L34.301 221.801L34.6014 221.906H34.5932Z" fill="white"/>
<path d="M226.029 152.357C222.376 152.357 219.396 155.334 219.396 158.983C219.396 162.632 222.368 165.609 226.029 165.609C229.691 165.609 232.662 162.64 232.662 158.983C232.662 155.326 229.691 152.357 226.029 152.357Z" fill="white"/>
<path d="M225.656 193.279C227.987 193.279 229.877 191.391 229.877 189.062C229.877 186.733 227.987 184.845 225.656 184.845C223.324 184.845 221.434 186.733 221.434 189.062C221.434 191.391 223.324 193.279 225.656 193.279Z" fill="white"/>
<path d="M355.017 139.706C357.745 139.706 359.961 137.492 359.961 134.767C359.961 132.042 357.745 129.829 355.017 129.829C352.289 129.829 350.073 132.042 350.073 134.767C350.073 137.492 352.289 139.706 355.017 139.706Z" fill="white"/>
<path d="M108.984 182.607V229.083" stroke="white" stroke-width="2" stroke-miterlimit="10" stroke-linecap="round"/>
<path d="M456.418 294.667V348.75" stroke="white" stroke-width="2" stroke-miterlimit="10" stroke-linecap="round"/>
<path d="M108.984 229.083L186.678 272.47" stroke="white" stroke-width="2" stroke-miterlimit="10" stroke-linecap="round"/>
<path d="M63.8363 245.733L99.9234 265.885" stroke="white" stroke-width="2" stroke-miterlimit="10" stroke-linecap="round"/>
<path d="M193.88 350.624L235.333 373.777" stroke="white" stroke-width="2" stroke-miterlimit="10" stroke-linecap="round"/>
<path d="M321.625 332.677L370.767 360.12" stroke="white" stroke-width="2" stroke-miterlimit="10" stroke-linecap="round"/>
<path d="M378.715 305.355L456.418 348.75" stroke="white" stroke-width="2" stroke-miterlimit="10" stroke-linecap="round"/>
<path d="M419.454 297.311L512.923 349.505" stroke="white" stroke-width="2" stroke-miterlimit="10" stroke-linecap="round"/>
<path d="M235.706 327.268L112.937 395.819" stroke="white" stroke-width="2" stroke-miterlimit="10" stroke-linecap="round"/>
<path d="M419.454 297.311L391.884 312.711" stroke="white" stroke-width="2" stroke-miterlimit="10" stroke-linecap="round"/>
<path d="M531.101 212.548L494.9 232.757" stroke="white" stroke-width="2" stroke-miterlimit="10" stroke-linecap="round"/>
<path d="M235.333 373.777L167.446 411.682" stroke="white" stroke-width="2" stroke-miterlimit="10" stroke-linecap="round"/>
<path d="M137.407 244.954L99.9234 265.885" stroke="white" stroke-width="2" stroke-miterlimit="10" stroke-linecap="round"/>
<path d="M531.101 149.884V212.548" stroke="white" stroke-width="2" stroke-miterlimit="10" stroke-linecap="round"/>
<path d="M381.95 366.577C383.286 364.265 381.866 360.948 378.779 359.167C375.692 357.387 372.107 357.818 370.77 360.13C369.434 362.441 370.854 365.759 373.941 367.539C377.028 369.32 380.613 368.889 381.95 366.577Z" stroke="white" stroke-width="2" stroke-miterlimit="10" stroke-linecap="round"/>
<path d="M63.8413 245.739C65.1775 243.427 63.7581 240.11 60.6711 238.329C57.5841 236.549 53.9984 236.98 52.6622 239.292C51.326 241.603 52.7454 244.921 55.8324 246.701C58.9195 248.481 62.5051 248.051 63.8413 245.739Z" stroke="white" stroke-width="2" stroke-miterlimit="10" stroke-linecap="round"/>
<path d="M524.102 355.952C525.438 353.641 524.019 350.323 520.932 348.543C517.844 346.763 514.259 347.193 512.923 349.505C511.586 351.817 513.006 355.134 516.093 356.915C519.18 358.695 522.766 358.264 524.102 355.952Z" stroke="white" stroke-width="2" stroke-miterlimit="10" stroke-linecap="round"/>
<path d="M164.272 419.1C167.359 417.32 168.778 414.003 167.442 411.691C166.106 409.379 162.52 408.948 159.433 410.729C156.346 412.509 154.927 415.826 156.263 418.138C157.599 420.45 161.185 420.881 164.272 419.1Z" stroke="white" stroke-width="2" stroke-miterlimit="10" stroke-linecap="round"/>
<path d="M112.937 395.819V387.393" stroke="white" stroke-width="2" stroke-miterlimit="10" stroke-linecap="round"/>
<path d="M538.399 80.8864L583.855 113.836L510.131 156.201L464.675 123.252L538.399 80.8864Z" fill="#9696FE"/>
<path d="M288.631 0.810974C344.844 0.810974 390.585 25.5294 390.585 55.9084C390.585 86.2874 344.853 111.006 288.631 111.006C232.41 111.006 186.678 86.2874 186.678 55.9084C186.678 25.5294 232.418 0.810974 288.631 0.810974Z" fill="#9696FE"/>
<path d="M210.036 229.302C228.733 216.967 257.156 209.069 288.94 209.069C323.176 209.069 353.523 218.224 372.001 232.23V254.061C372.001 262.925 362.949 273.841 348.368 282.551C331.863 292.412 311.502 297.846 291.035 297.846C240.87 297.846 210.068 273.646 210.068 256.3C210.068 256.235 210.052 256.178 210.027 256.129V229.302H210.036Z" fill="#9696FE"/>
<path d="M288.745 219.473C325.417 219.473 355.244 231.727 355.244 246.795C355.244 261.863 325.409 274.117 288.745 274.117C252.082 274.117 222.246 261.863 222.246 246.795C222.246 231.727 252.082 219.473 288.745 219.473Z" fill="#9696FE"/>
<path d="M221.45 51.6751C221.45 53.6782 222.132 55.584 223.366 57.0438C234.01 69.6382 259.332 77.7803 287.885 77.7803C320.497 77.7803 348.368 67.2296 355.65 52.1212C355.918 51.5616 356.056 50.9372 356.056 50.2559V39.5187C356.056 24.0453 325.855 11.459 288.745 11.459C251.635 11.459 221.434 24.0453 221.434 39.5187L221.458 51.6833L221.45 51.6751ZM288.737 12.2619C325.409 12.2619 355.236 24.4832 355.236 39.5106C355.236 54.5379 325.401 66.7592 288.737 66.7592C252.074 66.7592 222.238 54.5379 222.238 39.5106C222.238 24.4832 252.074 12.2619 288.737 12.2619Z" fill="black"/>
<path d="M288.94 285.73C318.711 285.73 345.072 276.696 354.538 263.258C355.529 261.847 356.056 260.168 356.056 258.4V246.795C356.056 231.281 325.863 218.662 288.745 218.662C251.627 218.662 221.434 231.281 221.434 246.795V258.919C221.434 259.681 221.613 260.403 221.954 261.011C230.105 275.56 257.651 285.722 288.948 285.722L288.94 285.73ZM288.745 219.473C325.417 219.473 355.244 231.727 355.244 246.795C355.244 261.863 325.409 274.117 288.745 274.117C252.082 274.117 222.246 261.863 222.246 246.795C222.246 231.727 252.082 219.473 288.745 219.473ZM288.745 274.928C322.315 274.928 350.219 264.604 355.244 251.158V258.4C355.244 259.998 354.774 261.514 353.872 262.787C344.552 276.022 318.459 284.919 288.94 284.919C257.927 284.919 230.673 274.928 222.66 260.622C222.384 260.136 222.238 259.544 222.238 258.927V251.158C227.263 264.604 255.167 274.928 288.737 274.928H288.745Z" fill="black"/>
<path d="M372.813 231.881V103.196C380.664 96.8868 386.68 89.6368 390.3 81.6892C391.023 80.0997 391.396 78.3724 391.396 76.5477V58.4305C391.396 58.3332 391.356 58.2521 391.307 58.1791C391.364 57.4249 391.396 56.6626 391.396 55.9003C391.396 25.0834 345.299 0 288.632 0C231.964 0 185.875 25.0753 185.867 55.9084L185.785 74.3499C185.777 76.7099 186.256 79.0211 187.231 81.2108C191.444 90.7559 199.1 99.3198 209.224 106.464V228.921C200.261 234.906 193.547 241.921 189.764 249.577C166.39 263.882 153.944 282.348 155.625 300.238C158.564 331.582 203.224 353.754 259.056 353.754C265.648 353.754 272.411 353.446 279.271 352.805C335.159 347.583 381.678 321.615 389.886 291.066C389.886 291.058 389.886 291.042 389.886 291.034C390.073 290.669 390.276 290.304 390.447 289.931C391.202 288.325 391.607 286.5 391.607 284.651V264.004C391.607 252.058 384.642 240.98 372.813 231.906V231.881ZM288.632 0.810972C344.844 0.810972 390.585 25.5294 390.585 55.9084C390.585 86.2874 344.853 111.006 288.632 111.006C232.41 111.006 186.678 86.2874 186.678 55.9084C186.678 25.5294 232.419 0.810972 288.632 0.810972ZM187.969 80.8783C187.052 78.7941 186.589 76.5963 186.597 74.3499L186.654 62.7936C192.914 90.3829 236.259 111.809 288.632 111.809C341.004 111.809 384.203 90.4558 390.585 62.9396V76.5477C390.585 78.2507 390.244 79.8645 389.562 81.3486C377.075 108.768 335.671 127.915 288.875 127.915C257.87 127.915 229.317 119.562 209.914 105.97C199.798 98.8818 192.167 90.3747 187.969 80.8783ZM210.036 107.016C229.569 120.47 258.016 128.726 288.875 128.726C322.007 128.726 352.46 119.148 372.001 103.829V231.265C353.32 217.332 323.046 208.258 288.94 208.258C257.253 208.258 228.879 216.092 210.036 228.37V107.008V107.016ZM210.036 229.302C228.733 216.967 257.156 209.069 288.94 209.069C323.176 209.069 353.523 218.225 372.001 232.23V254.061C372.001 262.925 362.949 273.841 348.368 282.551C331.863 292.412 311.502 297.846 291.035 297.846C240.87 297.846 210.068 273.646 210.068 256.3C210.068 256.235 210.052 256.178 210.027 256.129V229.302H210.036ZM279.198 351.986C214.744 358.012 159.676 334.761 156.437 300.157C154.821 282.859 166.723 264.969 189.13 250.931C187.271 255.124 186.273 259.495 186.273 263.988V284.781C186.273 287.611 186.979 290.369 188.302 292.753C202.826 318.769 243.151 336.253 288.64 336.253C334.128 336.253 372.569 319.377 387.857 294.642C377.051 323.213 332.399 347.015 279.181 351.986H279.198ZM390.804 284.635C390.804 286.371 390.43 288.074 389.724 289.574C376.937 316.579 335.378 335.451 288.656 335.451C241.933 335.451 203.411 318.136 189.025 292.364C187.758 290.101 187.093 287.482 187.093 284.789V271.011C193.474 298.438 236.713 319.718 288.948 319.718C341.183 319.718 384.423 298.438 390.804 271.011V284.643V284.635ZM288.94 318.899C232.776 318.899 187.084 294.261 187.084 263.988C187.084 251.093 195.373 239.229 209.224 229.846V256.3C209.224 256.373 209.248 256.429 209.281 256.486C209.5 274.157 240.561 298.649 291.043 298.649C311.656 298.649 332.163 293.175 348.79 283.24C363.607 274.384 372.813 263.201 372.813 254.053V232.854C384.147 241.702 390.796 252.431 390.796 263.971C390.796 294.253 345.104 318.882 288.94 318.882V318.899Z" fill="black"/>
<path d="M172.869 345.904L172.909 346.407L173.332 346.431L173.364 346.666L173.34 346.431L173.721 346.447V346.439V346.269V345.807L172.869 345.904Z" fill="black"/>
<path d="M521.87 251.961C521.87 251.961 521.862 251.929 521.854 251.904C521.854 251.88 521.838 251.856 521.829 251.839C521.829 251.839 521.829 251.823 521.829 251.815C521.821 251.799 521.805 251.791 521.797 251.774C521.781 251.75 521.764 251.734 521.74 251.718C521.74 251.718 521.724 251.701 521.716 251.693L475.708 218.346V159.161C475.708 159.161 475.708 159.145 475.708 159.137C475.708 159.113 475.7 159.08 475.692 159.056C475.692 159.032 475.675 159.007 475.667 158.983C475.667 158.983 475.667 158.967 475.667 158.959C475.659 158.942 475.643 158.934 475.635 158.918C475.618 158.894 475.602 158.869 475.578 158.853C475.562 158.837 475.537 158.829 475.521 158.813C475.497 158.796 475.472 158.788 475.448 158.78C475.424 158.772 475.399 158.764 475.367 158.764C475.351 158.764 475.334 158.756 475.318 158.756C475.31 158.756 475.302 158.756 475.294 158.756C475.269 158.756 475.237 158.764 475.213 158.772C475.188 158.772 475.164 158.788 475.139 158.796C475.139 158.796 475.123 158.796 475.115 158.796L400.619 201.6C400.619 201.6 400.595 201.624 400.579 201.632C400.554 201.648 400.53 201.664 400.514 201.689C400.497 201.705 400.481 201.729 400.473 201.754C400.457 201.778 400.449 201.802 400.44 201.827C400.432 201.851 400.424 201.883 400.424 201.908C400.424 201.924 400.416 201.94 400.416 201.956V266.615C400.416 266.615 400.416 266.631 400.416 266.648C400.416 266.672 400.424 266.704 400.432 266.729C400.432 266.753 400.449 266.777 400.457 266.802C400.465 266.826 400.481 266.842 400.497 266.867C400.514 266.891 400.53 266.907 400.554 266.931C400.554 266.931 400.562 266.948 400.579 266.956L446.757 300.425H446.773C446.789 300.433 446.798 300.441 446.814 300.449C446.871 300.473 446.927 300.498 446.992 300.498C447.057 300.498 447.114 300.481 447.163 300.457C447.163 300.457 447.179 300.457 447.187 300.449C447.187 300.449 447.187 300.449 447.195 300.449L521.691 257.646C521.691 257.646 521.716 257.622 521.732 257.613C521.756 257.597 521.781 257.581 521.797 257.557C521.813 257.54 521.829 257.516 521.838 257.492C521.854 257.467 521.862 257.443 521.87 257.419C521.878 257.394 521.886 257.362 521.886 257.338C521.886 257.321 521.894 257.305 521.894 257.289V252.018C521.894 252.018 521.894 252.002 521.894 251.993C521.894 251.985 521.894 251.969 521.894 251.961H521.87ZM447.001 294.342L401.545 261.393L475.269 219.027L520.725 251.977L447.001 294.342ZM474.888 214.259L473.264 215.191V164.611C473.264 164.611 473.264 164.595 473.264 164.587C473.264 164.562 473.256 164.53 473.248 164.506C473.248 164.481 473.232 164.457 473.224 164.433C473.224 164.433 473.224 164.416 473.224 164.408C473.215 164.392 473.199 164.384 473.191 164.368C473.175 164.344 473.159 164.327 473.134 164.303C473.118 164.287 473.094 164.271 473.069 164.262C473.045 164.246 473.029 164.238 472.996 164.23C472.972 164.222 472.939 164.214 472.915 164.214C472.899 164.214 472.883 164.206 472.866 164.206C472.858 164.206 472.85 164.206 472.842 164.206C472.818 164.206 472.785 164.214 472.761 164.222C472.736 164.222 472.712 164.238 472.688 164.246C472.688 164.246 472.671 164.246 472.663 164.246L404.662 203.319C404.662 203.319 404.638 203.343 404.622 203.351C404.597 203.367 404.573 203.384 404.557 203.408C404.54 203.424 404.524 203.449 404.516 203.473C404.5 203.497 404.492 203.522 404.484 203.546C404.475 203.57 404.467 203.603 404.467 203.627C404.467 203.643 404.459 203.659 404.459 203.676V254.962C404.459 254.962 404.459 254.978 404.459 254.986C404.459 255.01 404.467 255.035 404.475 255.067C404.475 255.091 404.492 255.116 404.5 255.14C404.5 255.14 404.5 255.156 404.5 255.164C404.5 255.172 404.516 255.181 404.524 255.189C404.557 255.229 404.589 255.262 404.63 255.294C404.646 255.302 404.654 255.318 404.67 255.318C404.727 255.343 404.784 255.367 404.849 255.367C404.914 255.367 404.979 255.351 405.036 255.318H405.052L474.88 215.191V218.314L401.196 260.655V202.2L474.88 159.859V214.259H474.888ZM405.263 203.911L472.452 165.309V215.654L405.263 254.264V203.919V203.911ZM401.204 262.147L446.57 295.032V299.297L401.204 266.412V262.147ZM447.382 295.056L521.066 252.715V257.046L447.382 299.387V295.056Z" fill="black"/>
<path d="M584.992 119.197C584.992 119.197 585 119.164 585 119.148V113.877C585 113.877 585 113.852 585 113.844C585 113.836 585 113.828 585 113.82C585 113.804 584.992 113.788 584.984 113.771C584.984 113.747 584.968 113.723 584.959 113.698C584.959 113.698 584.959 113.682 584.959 113.674C584.959 113.658 584.943 113.65 584.927 113.642C584.911 113.617 584.894 113.593 584.87 113.577C584.87 113.577 584.862 113.56 584.854 113.56L538.675 80.0916C538.675 80.0916 538.635 80.0754 538.61 80.0592C538.586 80.043 538.562 80.0348 538.537 80.0267C538.513 80.0267 538.489 80.0267 538.456 80.0267C538.432 80.0267 538.408 80.0267 538.383 80.0267C538.351 80.0267 538.326 80.043 538.294 80.0592C538.278 80.0592 538.253 80.0673 538.237 80.0754L463.741 122.879C463.725 122.887 463.717 122.903 463.7 122.911C463.676 122.927 463.66 122.943 463.644 122.968C463.644 122.968 463.627 122.984 463.619 122.992C463.611 123 463.611 123.016 463.603 123.033C463.587 123.057 463.579 123.073 463.571 123.106C463.571 123.114 463.562 123.13 463.554 123.138C463.554 123.154 463.554 123.17 463.554 123.195C463.554 123.211 463.546 123.227 463.546 123.235V128.507C463.546 128.507 463.546 128.523 463.546 128.539C463.546 128.563 463.554 128.596 463.562 128.62C463.562 128.645 463.579 128.669 463.587 128.693C463.595 128.718 463.611 128.734 463.627 128.758C463.644 128.782 463.66 128.799 463.684 128.815C463.692 128.815 463.7 128.831 463.709 128.839L509.887 162.308H509.903C509.968 162.349 510.041 162.381 510.122 162.381C510.187 162.381 510.252 162.365 510.317 162.332C510.317 162.332 510.317 162.332 510.325 162.332L584.821 119.529C584.821 119.529 584.846 119.505 584.862 119.497C584.886 119.481 584.911 119.464 584.927 119.44C584.943 119.424 584.959 119.399 584.968 119.375C584.984 119.351 584.992 119.326 585 119.302C585.008 119.278 585.016 119.245 585.016 119.221L584.992 119.197ZM538.399 80.8864L583.855 113.836L510.131 156.201L464.675 123.252L538.399 80.8864ZM510.131 161.465L464.334 128.271V124.006L509.863 157.012H509.879C509.944 157.053 510.017 157.085 510.098 157.085C510.163 157.085 510.228 157.069 510.293 157.037C510.293 157.037 510.293 157.037 510.301 157.037L584.188 114.582V118.913L510.122 161.473L510.131 161.465Z" fill="black"/>
<path d="M471.803 123.535L510.642 151.692H510.658C510.723 151.733 510.796 151.765 510.878 151.765C510.942 151.765 511.007 151.749 511.072 151.717C511.072 151.717 511.072 151.717 511.08 151.717L575.826 114.517C576.021 114.404 576.086 114.161 575.972 113.966C575.859 113.771 575.607 113.706 575.42 113.82L510.902 150.889L472.274 122.887C472.095 122.757 471.835 122.797 471.705 122.976C471.576 123.154 471.616 123.414 471.795 123.544L471.803 123.535Z" fill="black"/>
<path d="M482.487 121.622C482.487 121.622 482.487 121.678 482.487 121.703C482.487 121.735 482.503 121.767 482.519 121.8C482.519 121.816 482.519 121.832 482.536 121.849C482.56 121.897 482.6 121.938 482.649 121.97L513.532 144.353H513.548C513.613 144.394 513.687 144.426 513.768 144.426C513.833 144.426 513.898 144.41 513.963 144.377C513.963 144.377 513.963 144.377 513.971 144.377L524.841 138.133C524.89 138.1 524.931 138.068 524.963 138.019C524.971 138.003 524.971 137.995 524.979 137.979C524.996 137.946 525.012 137.914 525.028 137.881C525.028 137.857 525.028 137.833 525.028 137.809C525.028 137.784 525.028 137.752 525.028 137.727C525.028 137.695 525.012 137.663 524.996 137.638C524.996 137.622 524.996 137.606 524.979 137.581C524.963 137.557 524.939 137.533 524.914 137.508C524.898 137.492 524.89 137.476 524.874 137.46L493.991 115.077C493.991 115.077 493.95 115.061 493.934 115.053C493.91 115.036 493.885 115.02 493.853 115.012C493.828 115.012 493.804 115.012 493.78 115.012C493.755 115.012 493.723 115.012 493.699 115.012C493.674 115.012 493.65 115.028 493.617 115.036C493.593 115.036 493.569 115.045 493.552 115.061L482.682 121.305C482.657 121.313 482.649 121.338 482.625 121.354C482.6 121.37 482.576 121.394 482.56 121.411C482.552 121.427 482.552 121.443 482.544 121.451C482.527 121.484 482.511 121.516 482.495 121.549C482.495 121.573 482.495 121.597 482.495 121.622H482.487ZM493.723 115.888L523.883 137.752L513.784 143.55L483.623 121.686L493.723 115.888Z" fill="black"/>
<path d="M506.575 120.843C506.575 120.843 506.575 120.9 506.575 120.924C506.575 120.957 506.591 120.989 506.607 121.021C506.607 121.038 506.607 121.054 506.623 121.07C506.648 121.119 506.688 121.159 506.737 121.192L527.569 136.292H527.585C527.65 136.333 527.723 136.365 527.805 136.365C527.87 136.365 527.935 136.349 528 136.316C528 136.316 528 136.316 528.008 136.316L539.333 129.812C539.382 129.78 539.422 129.747 539.455 129.699C539.463 129.683 539.463 129.674 539.471 129.658C539.487 129.626 539.504 129.593 539.52 129.561C539.52 129.537 539.52 129.512 539.52 129.488C539.52 129.464 539.52 129.431 539.52 129.407C539.52 129.374 539.504 129.342 539.487 129.318C539.487 129.301 539.487 129.285 539.471 129.261C539.455 129.237 539.43 129.22 539.414 129.196C539.398 129.18 539.382 129.155 539.366 129.139L518.533 114.039C518.533 114.039 518.493 114.023 518.476 114.015C518.452 113.998 518.42 113.982 518.387 113.974C518.363 113.974 518.338 113.974 518.314 113.974C518.29 113.974 518.257 113.974 518.233 113.974C518.209 113.974 518.184 113.99 518.152 113.998C518.127 113.998 518.103 114.006 518.087 114.023L506.761 120.527C506.745 120.535 506.729 120.559 506.713 120.567C506.688 120.592 506.664 120.608 506.64 120.632C506.631 120.648 506.631 120.665 506.623 120.673C506.607 120.705 506.591 120.738 506.575 120.77C506.575 120.794 506.575 120.819 506.575 120.843ZM518.265 114.85L538.375 129.431L527.821 135.497L507.711 120.916L518.265 114.858V114.85Z" fill="black"/>
<path d="M514.644 107.859C514.644 107.859 514.644 107.916 514.644 107.949C514.644 107.981 514.661 108.013 514.677 108.046C514.677 108.062 514.677 108.078 514.693 108.094C514.717 108.143 514.758 108.184 514.807 108.216L542.061 127.971H542.077C542.142 128.012 542.215 128.044 542.296 128.044C542.361 128.044 542.426 128.028 542.491 127.996C542.491 127.996 542.491 127.996 542.499 127.996L553.273 121.808C553.321 121.776 553.362 121.743 553.394 121.694C553.403 121.678 553.402 121.67 553.411 121.654C553.427 121.621 553.443 121.589 553.459 121.557C553.459 121.532 553.459 121.508 553.459 121.484C553.459 121.459 553.459 121.427 553.459 121.403C553.459 121.37 553.443 121.338 553.427 121.313C553.427 121.297 553.427 121.281 553.411 121.257C553.394 121.232 553.37 121.208 553.354 121.192C553.338 121.175 553.321 121.151 553.305 121.143L526.01 101.355C526.01 101.355 525.97 101.339 525.954 101.331C525.929 101.315 525.905 101.299 525.872 101.29C525.848 101.29 525.824 101.29 525.791 101.29C525.767 101.29 525.743 101.29 525.71 101.29C525.678 101.29 525.653 101.307 525.621 101.323C525.604 101.323 525.58 101.331 525.564 101.339L514.839 107.559C514.823 107.567 514.807 107.592 514.791 107.6C514.766 107.624 514.742 107.64 514.717 107.665C514.717 107.673 514.717 107.681 514.709 107.689C514.685 107.721 514.669 107.762 514.661 107.803C514.661 107.827 514.661 107.843 514.661 107.867L514.644 107.859ZM525.751 102.15L552.323 121.411L542.321 127.152L515.789 107.916L525.751 102.142V102.15Z" fill="black"/>
<path d="M541.923 108.93C541.923 108.93 541.923 108.987 541.923 109.011C541.923 109.043 541.939 109.076 541.955 109.108C541.955 109.124 541.955 109.141 541.972 109.157C541.996 109.206 542.037 109.246 542.085 109.279L556.455 119.691H556.471C556.536 119.732 556.609 119.764 556.691 119.764C556.755 119.764 556.82 119.748 556.885 119.716C556.885 119.716 556.885 119.716 556.894 119.716L567.667 113.528C567.716 113.496 567.756 113.463 567.789 113.414C567.797 113.398 567.797 113.39 567.805 113.374C567.821 113.341 567.837 113.309 567.854 113.277C567.854 113.252 567.854 113.228 567.854 113.204C567.854 113.179 567.854 113.147 567.854 113.123C567.854 113.09 567.837 113.058 567.821 113.033C567.821 113.017 567.821 113.001 567.805 112.977C567.789 112.952 567.764 112.928 567.74 112.904C567.724 112.887 567.716 112.871 567.699 112.855L553.329 102.442C553.329 102.442 553.289 102.426 553.264 102.41C553.24 102.393 553.216 102.385 553.191 102.377C553.167 102.377 553.143 102.377 553.11 102.377C553.086 102.377 553.062 102.377 553.037 102.377C553.005 102.377 552.98 102.393 552.948 102.41C552.932 102.41 552.907 102.418 552.891 102.426L542.126 108.614C542.101 108.622 542.093 108.646 542.069 108.662C542.045 108.678 542.02 108.703 542.004 108.719C541.996 108.735 541.996 108.751 541.988 108.759C541.972 108.792 541.955 108.824 541.939 108.857C541.939 108.881 541.939 108.905 541.939 108.93H541.923ZM553.062 103.253L566.709 113.147L556.707 118.889L543.059 108.995L553.053 103.253H553.062Z" fill="black"/>
<path d="M288.242 261.757C308.408 261.757 324.808 254.913 324.808 246.503C324.808 238.093 308.4 231.249 288.242 231.249C268.083 231.249 251.676 238.093 251.676 246.503C251.676 254.913 268.083 261.757 288.242 261.757ZM288.242 232.06C307.954 232.06 323.996 238.539 323.996 246.503C323.996 254.467 307.954 260.947 288.242 260.947C268.53 260.947 252.488 254.467 252.488 246.503C252.488 238.539 268.53 232.06 288.242 232.06Z" fill="black"/>
<path d="M279.198 351.986C214.744 358.012 159.676 334.761 156.437 300.157C154.821 282.859 166.723 264.969 189.13 250.931C187.271 255.124 186.273 259.495 186.273 263.988V284.781C186.273 287.611 186.979 290.369 188.302 292.753C202.826 318.769 243.151 336.253 288.64 336.253C334.128 336.253 372.569 319.377 387.857 294.642C377.051 323.213 332.399 347.015 279.181 351.986H279.198Z" fill="black" stroke="black" stroke-miterlimit="10" stroke-linecap="round"/>
<path d="M390.804 284.635C390.804 286.371 390.43 288.074 389.724 289.574C376.937 316.579 335.378 335.451 288.656 335.451C241.933 335.451 203.411 318.136 189.025 292.364C187.758 290.101 187.092 287.482 187.092 284.789V271.011C193.474 298.438 236.713 319.718 288.948 319.718C341.183 319.718 384.423 298.438 390.804 271.011V284.643V284.635Z" fill="#9696FE"/>
<path d="M288.94 318.899C232.776 318.899 187.084 294.261 187.084 263.988C187.084 251.093 195.373 239.229 209.224 229.846V256.3C209.224 256.373 209.248 256.429 209.281 256.486C209.5 274.157 240.561 298.649 291.043 298.649C311.656 298.649 332.163 293.175 348.79 283.24C363.607 274.384 372.813 263.201 372.813 254.053V232.854C384.146 241.702 390.796 252.431 390.796 263.971C390.796 294.253 345.104 318.882 288.94 318.882V318.899Z" fill="#9696FE"/>
<path d="M288.242 232.06C307.954 232.06 323.996 238.539 323.996 246.503C323.996 254.467 307.954 260.947 288.242 260.947C268.53 260.947 252.488 254.467 252.488 246.503C252.488 238.539 268.53 232.06 288.242 232.06Z" fill="black"/>
<path d="M288.745 274.928C322.315 274.928 350.219 264.604 355.244 251.158V258.4C355.244 259.998 354.774 261.514 353.872 262.787C344.552 276.023 318.459 284.919 288.94 284.919C257.927 284.919 230.673 274.928 222.66 260.622C222.384 260.136 222.238 259.544 222.238 258.927V251.158C227.263 264.604 255.167 274.928 288.737 274.928H288.745Z" fill="#9696FE"/>
<path d="M187.969 80.8783C187.052 78.7941 186.589 76.5963 186.597 74.3499L186.654 62.7936C192.914 90.3829 236.259 111.809 288.631 111.809C341.004 111.809 384.203 90.4558 390.585 62.9396V76.5477C390.585 78.2507 390.244 79.8645 389.562 81.3486C377.075 108.768 335.671 127.915 288.875 127.915C257.87 127.915 229.317 119.562 209.914 105.97C199.798 98.8818 192.167 90.3747 187.969 80.8783Z" fill="black" stroke="black" stroke-miterlimit="10" stroke-linecap="round"/>
<path d="M288.737 12.2619C325.409 12.2619 355.236 24.4833 355.236 39.5106C355.236 54.5379 325.4 66.7592 288.737 66.7592C252.074 66.7592 222.238 54.5379 222.238 39.5106C222.238 24.4833 252.074 12.2619 288.737 12.2619Z" fill="#9696FE"/>
<path d="M474.888 214.259L473.264 215.191V164.611C473.264 164.611 473.264 164.595 473.264 164.587C473.264 164.562 473.256 164.53 473.248 164.506C473.248 164.481 473.232 164.457 473.223 164.433C473.223 164.433 473.223 164.417 473.223 164.408C473.215 164.392 473.199 164.384 473.191 164.368C473.175 164.344 473.159 164.327 473.134 164.303C473.118 164.287 473.094 164.271 473.069 164.262C473.045 164.246 473.029 164.238 472.996 164.23C472.972 164.222 472.939 164.214 472.915 164.214C472.899 164.214 472.882 164.206 472.866 164.206C472.858 164.206 472.85 164.206 472.842 164.206C472.818 164.206 472.785 164.214 472.761 164.222C472.736 164.222 472.712 164.238 472.688 164.246C472.688 164.246 472.671 164.246 472.663 164.246L404.662 203.319C404.662 203.319 404.638 203.343 404.622 203.351C404.597 203.368 404.573 203.384 404.557 203.408C404.54 203.424 404.524 203.449 404.516 203.473C404.5 203.497 404.492 203.522 404.484 203.546C404.475 203.57 404.467 203.603 404.467 203.627C404.467 203.643 404.459 203.659 404.459 203.676V254.962C404.459 254.962 404.459 254.978 404.459 254.986C404.459 255.01 404.467 255.035 404.475 255.067C404.475 255.091 404.492 255.116 404.5 255.14C404.5 255.14 404.5 255.156 404.5 255.164C404.5 255.172 404.516 255.181 404.524 255.189C404.557 255.229 404.589 255.262 404.63 255.294C404.646 255.302 404.654 255.318 404.67 255.318C404.727 255.343 404.784 255.367 404.849 255.367C404.914 255.367 404.979 255.351 405.036 255.318H405.052L474.88 215.191V218.314L401.195 260.655V202.2L474.88 159.859V214.259H474.888Z" fill="#9696FE"/>
<path d="M405.263 203.911L472.452 165.309V215.654L405.263 254.264V203.911Z" fill="black"/>
<path d="M401.204 262.147L446.57 295.032V299.297L401.204 266.412V262.147Z" fill="black"/>
<path d="M447.382 295.056L521.066 252.715V257.054L447.382 299.387V295.056Z" fill="black"/>
<path d="M447.001 294.342L401.545 261.393L475.269 219.027L520.725 251.977L447.001 294.342Z" fill="#9696FE"/>
<path d="M493.723 115.888L523.892 137.752L513.792 143.55L483.623 121.686L493.723 115.888Z" fill="black"/>
<path d="M518.265 114.85L538.375 129.423L527.829 135.489L507.719 120.908L518.265 114.85Z" fill="black"/>
<path d="M525.751 102.15L552.323 121.419L542.321 127.16L515.789 107.924L525.751 102.15Z" fill="black"/>
<path d="M553.062 103.253L566.709 113.147L556.715 118.889L543.068 108.995L553.062 103.253Z" fill="black"/>
<path d="M510.13 161.465L464.334 128.271V124.006L509.863 157.012H509.879C509.944 157.053 510.017 157.085 510.098 157.085C510.163 157.085 510.228 157.069 510.293 157.037C510.293 157.037 510.293 157.037 510.301 157.037L584.188 114.582V118.913L510.122 161.473L510.13 161.465Z" fill="black"/>
<path d="M34.4552 221.404C36.7528 223.098 181.978 142.431 181.978 142.431C181.978 142.431 202.534 100.106 165.481 98.598C165.481 98.598 158.621 69.7274 133.153 82.2083C133.153 82.2083 113.806 88.323 98.3727 115.726C98.3727 115.726 58.9408 121.111 49.3934 174.197C49.3934 174.197 35.1859 180.312 30.5339 202.573C30.5339 202.573 28.8209 217.251 34.4552 221.412V221.404Z" fill="#9696FE" stroke="black" stroke-miterlimit="10" stroke-linecap="round"/>
<path d="M37.2724 213.351C36.7771 210.772 36.6148 206.968 36.9639 203.595C40.7633 185.907 51.1226 180.563 52.0076 180.133L55.32 178.811L55.7908 175.332C64.3316 127.866 97.8775 122.351 99.2983 122.141L102.44 121.67L104.039 118.897C117.849 94.3728 134.996 88.4284 135.166 88.3716L135.629 88.2257L136.019 88.031C139.355 86.3929 142.392 85.5657 145.038 85.5657C146.573 85.5657 151.249 85.5657 155.56 92.094C158.134 95.9867 159.165 100.082 159.173 100.123L160.342 104.851L165.221 105.078C172.333 105.37 177.058 107.397 179.282 111.103C183.61 118.329 179.518 131.661 176.944 137.808C129.475 164.165 56.2373 204.276 37.2724 213.351Z" fill="black" stroke="black" stroke-miterlimit="10" stroke-linecap="round"/>
<path d="M34.4552 221.404C28.8209 217.243 30.5339 202.565 30.5339 202.565C35.1859 180.303 49.3934 174.189 49.3934 174.189C58.949 121.102 98.3727 115.718 98.3727 115.718C113.806 88.3149 133.153 82.2001 133.153 82.2001C140.711 78.494 146.63 78.4372 151.217 80.1808L122.875 67.5215C122.452 67.3107 122.022 67.1161 121.576 66.9376C116.956 65.0967 110.965 65.0886 103.268 68.8597C103.268 68.8597 83.9217 74.9744 68.4883 102.377C68.4883 102.377 29.0564 107.762 19.5089 160.848C19.5089 160.848 5.30142 166.963 0.64948 189.224C0.64948 189.224 -1.06354 203.903 4.57075 208.063L34.4471 221.428L34.4633 221.404H34.4471H34.4552Z" fill="#9696FE" stroke="black" stroke-miterlimit="10" stroke-linecap="round"/>
<path d="M172.357 347.988L73.2945 402.55C72.7018 402.883 71.9711 402.85 71.3947 402.485L12.1129 364.143C10.9357 363.38 11.0007 361.645 12.2266 360.972L111.509 306.637C112.101 306.312 112.832 306.337 113.4 306.702L172.463 344.817C173.64 345.571 173.575 347.315 172.349 347.988H172.357Z" fill="#9696FE" stroke="black" stroke-miterlimit="10" stroke-linecap="round"/>
<path d="M159.449 347.672L74.1307 395.041C73.6192 395.325 72.9941 395.308 72.507 395L21.9607 362.626C20.9622 361.986 21.0271 360.501 22.0825 359.918L107.579 312.743C108.091 312.459 108.716 312.476 109.203 312.792L159.571 344.971C160.569 345.612 160.504 347.096 159.457 347.68L159.449 347.672Z" fill="black"/>
<path d="M97.1793 382.252L68.61 365.189L73.4162 362.821L108.018 376.226L97.1793 382.252Z" fill="#9696FE"/>
<path d="M119.043 370.111L86.6414 353.868L90.311 352.059L130.831 363.567L119.043 370.111Z" fill="#9696FE"/>
<path d="M142.124 357.298L102.87 344.517L105.777 343.082L155.146 350.064L142.124 357.298Z" fill="#9696FE"/>
<path d="M172.357 347.988L73.2945 402.55C72.7018 402.883 71.9711 402.85 71.3947 402.485L12.1129 364.143C11.5527 363.778 11.2848 363.194 11.2767 362.61L11.0575 362.634L10.6922 366.932C10.5785 368.279 11.2118 369.584 12.3402 370.33L69.6979 408.154C71.4272 409.29 73.6436 409.363 75.4459 408.357L172.463 354.127C172.836 353.916 173.08 353.527 173.096 353.089L173.307 346.439C173.283 347.056 172.966 347.656 172.349 347.988H172.357Z" fill="#9696FE" stroke="black" stroke-miterlimit="10" stroke-linecap="round"/>
<path d="M159.449 347.672L74.1307 395.041C73.6192 395.325 72.9941 395.308 72.507 395L21.9607 362.626C20.9622 361.986 21.0271 360.501 22.0825 359.918L107.579 312.743C108.091 312.459 108.716 312.476 109.203 312.792L159.571 344.971C160.569 345.612 160.504 347.096 159.457 347.68L159.449 347.672Z" stroke="black" stroke-miterlimit="10" stroke-linecap="round"/>
<path d="M105.777 343.082L105.931 299.954L102.716 298.381L99.4444 299.654L99.5093 342.733L102.87 344.517L105.777 343.082Z" fill="#9696FE" stroke="black" stroke-miterlimit="10" stroke-linecap="round"/>
<path d="M90.311 352.059L90.5059 297.675L86.4466 295.697L82.3142 297.302L82.4035 351.621L86.6414 353.868L90.311 352.059Z" fill="#9696FE" stroke="black" stroke-miterlimit="10" stroke-linecap="round"/>
<path d="M90.5059 297.675L86.406 299.379L82.3142 297.302L86.4466 295.697L90.5059 297.675Z" fill="black"/>
<path d="M105.931 299.954L102.684 301.082L99.4444 299.654L102.716 298.381L105.931 299.954Z" fill="black"/>
<path d="M73.4163 362.821L73.6761 291.52L68.3503 288.925L62.9433 291.034L63.057 362.237L68.6101 365.189L73.4163 362.821Z" fill="#9696FE" stroke="black" stroke-miterlimit="10" stroke-linecap="round"/>
<path d="M73.6761 291.52L68.5126 293.539L62.9433 291.034L68.3503 288.925L73.6761 291.52Z" fill="black"/>
<path d="M226.029 165.203C229.468 165.203 232.256 162.418 232.256 158.983C232.256 155.548 229.468 152.763 226.029 152.763C222.59 152.763 219.802 155.548 219.802 158.983C219.802 162.418 222.59 165.203 226.029 165.203Z" fill="white" stroke="black" stroke-miterlimit="10" stroke-linecap="round"/>
<path d="M225.656 192.874C227.763 192.874 229.471 191.167 229.471 189.062C229.471 186.957 227.763 185.25 225.656 185.25C223.548 185.25 221.84 186.957 221.84 189.062C221.84 191.167 223.548 192.874 225.656 192.874Z" fill="white" stroke="black" stroke-miterlimit="10" stroke-linecap="round"/>
<path d="M355.017 139.301C357.524 139.301 359.555 137.271 359.555 134.767C359.555 132.264 357.524 130.234 355.017 130.234C352.511 130.234 350.479 132.264 350.479 134.767C350.479 137.271 352.511 139.301 355.017 139.301Z" fill="white" stroke="black" stroke-miterlimit="10" stroke-linecap="round"/>
<path d="M358.183 225.815C360.82 225.815 362.957 223.68 362.957 221.047C362.957 218.413 360.82 216.278 358.183 216.278C355.547 216.278 353.41 218.413 353.41 221.047C353.41 223.68 355.547 225.815 358.183 225.815Z" fill="white" stroke="black" stroke-miterlimit="10" stroke-linecap="round"/>
<path d="M341.979 246.714C347.319 246.714 351.648 242.39 351.648 237.055C351.648 231.721 347.319 227.397 341.979 227.397C336.639 227.397 332.309 231.721 332.309 237.055C332.309 242.39 336.639 246.714 341.979 246.714Z" fill="white" stroke="black" stroke-miterlimit="10" stroke-linecap="round"/>
<path d="M286.894 149.454C286.894 149.454 268.725 141.206 258.471 158.983C258.471 158.983 236.786 163.711 240.894 184.139C240.894 184.139 230.933 188.251 231.371 199.661C231.81 211.072 240.821 213.342 240.821 213.342C240.821 213.342 244.223 221.493 253.129 221.428C253.129 221.428 260.379 235.66 278.183 226.221C278.183 226.221 300.379 230.024 317.079 216.27C317.079 216.27 335.76 215.467 337.294 205.59C337.294 205.59 345.867 201.259 345.429 188.494C344.991 175.73 330.929 169.809 330.929 169.809C330.929 169.809 332.245 159.275 319.945 157.734C319.945 157.734 317.526 148.465 304.341 150.249C304.341 150.249 296.507 141.823 286.91 149.446L286.894 149.454Z" fill="white" stroke="black" stroke-miterlimit="10" stroke-linecap="round"/>
<path d="M240.821 213.351C234.667 198.494 248.956 190.668 248.956 190.668C248.956 190.668 246.756 171.35 265.218 168.496C265.218 168.496 273.125 151.595 295.76 155.763C295.76 155.763 307.191 149.178 313.336 157.961C313.336 157.961 316.754 157.475 319.929 157.742" stroke="black" stroke-miterlimit="10" stroke-linecap="round"/>
<path d="M310.373 163.338C310.373 163.338 316.194 164.108 315.431 170.693" stroke="black" stroke-miterlimit="10" stroke-linecap="round"/>
<path d="M317.185 190.781C317.185 190.781 324.434 189.792 319.929 180.247C319.929 180.247 326.643 178.406 324.654 172.121C322.665 165.836 315.057 167.02 315.057 167.02" stroke="black" stroke-miterlimit="10" stroke-linecap="round"/>
<path d="M258.479 158.983C258.479 158.983 267.198 157.077 271.355 161.083" stroke="black" stroke-miterlimit="10" stroke-linecap="round"/>
<path d="M287.519 167.62C287.519 167.62 282.137 168.39 282.794 175.3" stroke="black" stroke-miterlimit="10" stroke-linecap="round"/>
<path d="M283.712 170.272C283.712 170.272 278.134 162.811 266.159 166.874" stroke="black" stroke-miterlimit="10" stroke-linecap="round"/>
<path d="M249.532 182.907C249.532 182.907 242.201 185.891 244.702 193.985" stroke="black" stroke-miterlimit="10" stroke-linecap="round"/>
<path d="M263.569 201.973C263.569 201.973 258.844 203.286 259.177 209.653" stroke="black" stroke-miterlimit="10" stroke-linecap="round"/>
<path d="M278.508 171.464C278.508 171.464 272.573 173.224 272.467 179.809C272.467 179.809 263.44 177.895 261.361 188.454C261.361 188.454 252.609 190.692 253.129 198.356C253.567 204.827 259.705 205.817 259.705 205.817" stroke="black" stroke-miterlimit="10" stroke-linecap="round"/>
<path d="M280.001 210.715C280.001 210.715 285.124 221.614 278.175 226.229" stroke="black" stroke-miterlimit="10" stroke-linecap="round"/>
<path d="M274.935 211.104C274.935 211.104 280.562 212.288 283.712 208.006" stroke="black" stroke-miterlimit="10" stroke-linecap="round"/>
<path d="M298.617 180.458C298.617 180.458 292.366 179.509 291.043 185.25" stroke="black" stroke-miterlimit="10" stroke-linecap="round"/>
<path d="M300.265 190.011C300.265 190.011 305.429 189.63 306.858 193.993" stroke="black" stroke-miterlimit="10" stroke-linecap="round"/>
<path d="M304.333 195.825C304.333 195.825 297.408 194.147 294.834 201.421C294.834 201.421 286.569 197.253 281.828 204.714C281.828 204.714 274.115 199.994 269.285 206.36" stroke="black" stroke-miterlimit="10" stroke-linecap="round"/>
<path d="M325.539 191.544C325.539 191.544 325.539 195.712 318.289 196.815" stroke="black" stroke-miterlimit="10" stroke-linecap="round"/>
<path d="M317.079 216.278C317.079 216.278 325.506 208.396 322.778 195.363" stroke="black" stroke-miterlimit="10" stroke-linecap="round"/>
<path d="M330.264 198.461C330.264 198.461 329.078 204.008 322.965 204.527" stroke="black" stroke-miterlimit="10" stroke-linecap="round"/>
<path opacity="0.2" d="M288.875 128.734C258.016 128.734 229.569 120.478 210.036 107.024V256.137C210.06 256.194 210.076 256.251 210.076 256.308C210.076 273.654 240.878 297.854 291.043 297.854C311.51 297.854 331.871 292.42 348.376 282.559C362.949 273.849 372.009 262.933 372.009 254.069V103.837C352.46 119.156 322.015 128.734 288.883 128.734H288.875Z" fill="white"/>
</g>
<defs>
<clipPath id="clip0_2_107">
<rect width="585" height="421" fill="white"/>
</clipPath>
</defs>
</svg>
