<svg width="165" height="122" viewBox="0 0 165 122" fill="none" xmlns="http://www.w3.org/2000/svg">
<g id="ipad">
<path id="Vector" d="M162.357 59.9882L63.2945 114.55C62.7018 114.883 61.9711 114.85 61.3947 114.485L2.11291 76.1427C0.935716 75.3804 1.00067 73.6449 2.22657 72.9718L101.509 18.6367C102.101 18.3123 102.832 18.3366 103.4 18.7016L162.463 56.8173C163.64 57.5715 163.575 59.3151 162.349 59.9882H162.357Z" fill="#9696FE" stroke="black" stroke-miterlimit="10" stroke-linecap="round"/>
<path id="Vector_2" d="M149.449 59.6719L64.1307 107.041C63.6192 107.325 62.9941 107.308 62.507 107L11.9607 74.6262C10.9622 73.9855 11.0271 72.5015 12.0825 71.9176L97.5792 24.7433C98.0907 24.4595 98.7158 24.4757 99.2029 24.792L149.571 56.9713C150.569 57.612 150.504 59.0961 149.457 59.68L149.449 59.6719Z" fill="black"/>
<path id="Vector_3" d="M87.1793 94.2517L58.61 77.1889L63.4162 74.8209L98.0176 88.2262L87.1793 94.2517Z" fill="#9696FE"/>
<path id="Vector_4" d="M109.043 82.1115L76.6414 65.8677L80.311 64.0592L120.831 75.5669L109.043 82.1115Z" fill="#9696FE"/>
<path id="Vector_5" d="M132.124 69.2981L92.8704 56.5172L95.7769 55.0818L145.146 62.0643L132.124 69.2981Z" fill="#9696FE"/>
<path id="Vector_6" d="M162.357 59.9882L63.2945 114.55C62.7018 114.883 61.9711 114.85 61.3947 114.485L2.11291 76.1427C1.55273 75.7778 1.28482 75.1939 1.2767 74.61L1.0575 74.6343L0.692162 78.9325C0.578502 80.2787 1.21175 81.5843 2.34023 82.3304L59.6979 120.154C61.4272 121.29 63.6436 121.363 65.4459 120.357L162.463 66.1272C162.836 65.9164 163.08 65.5271 163.096 65.0892L163.307 58.4392C163.283 59.0555 162.966 59.6557 162.349 59.9882H162.357Z" fill="#9696FE" stroke="black" stroke-miterlimit="10" stroke-linecap="round"/>
<path id="Vector_7" d="M149.449 59.6719L64.1307 107.041C63.6192 107.325 62.9941 107.308 62.507 107L11.9607 74.6262C10.9622 73.9855 11.0271 72.5015 12.0825 71.9176L97.5792 24.7433C98.0907 24.4595 98.7158 24.4757 99.2029 24.792L149.571 56.9713C150.569 57.612 150.504 59.0961 149.457 59.68L149.449 59.6719Z" stroke="black" stroke-miterlimit="10" stroke-linecap="round"/>
<path id="Vector_8" d="M95.7769 55.0818L95.9311 11.9543L92.7162 10.381L89.4444 11.6542L89.5093 54.7331L92.8704 56.5172L95.7769 55.0818Z" fill="#9696FE" stroke="black" stroke-miterlimit="10" stroke-linecap="round"/>
<path id="Vector_9" d="M80.311 64.0592L80.5059 9.67546L76.4466 7.69669L72.3142 9.30242L72.4035 63.6213L76.6414 65.8677L80.311 64.0592Z" fill="#9696FE" stroke="black" stroke-miterlimit="10" stroke-linecap="round"/>
<path id="Vector_10" d="M80.5059 9.67546L76.406 11.3785L72.3142 9.30242L76.4466 7.69669L80.5059 9.67546Z" fill="black"/>
<path id="Vector_11" d="M95.9311 11.9543L92.6837 13.0815L89.4444 11.6542L92.7162 10.381L95.9311 11.9543Z" fill="black"/>
<path id="Vector_12" d="M63.4163 74.8209L63.6761 3.52017L58.3503 0.925049L52.9433 3.03358L53.057 74.237L58.6101 77.1889L63.4163 74.8209Z" fill="#9696FE" stroke="black" stroke-miterlimit="10" stroke-linecap="round"/>
<path id="Vector_13" d="M63.6761 3.52017L58.5126 5.53948L52.9433 3.03358L58.3503 0.925049L63.6761 3.52017Z" fill="black"/>
</g>
</svg>
