<svg width="434" height="369" viewBox="0 0 434 369" fill="none" xmlns="http://www.w3.org/2000/svg">
<g clip-path="url(#clip0_54_2)">
<path fill-rule="evenodd" clip-rule="evenodd" d="M332.581 7.01116L68.5547 159.795V338.573L332.581 185.787V7.01116Z" fill="#9696FE"/>
<path fill-rule="evenodd" clip-rule="evenodd" d="M333.214 7.01116C333.214 6.78521 333.093 6.57525 332.897 6.46113C332.702 6.34702 332.46 6.34702 332.264 6.46113L68.2403 159.247C68.0445 159.361 67.9238 159.569 67.9238 159.797V338.573C67.9238 338.799 68.0445 339.009 68.2403 339.123C68.4362 339.237 68.6775 339.237 68.8734 339.123L332.897 186.34C333.093 186.225 333.214 186.018 333.214 185.789V7.01116ZM69.1876 160.162V337.475L331.948 185.422V8.10892L69.1876 160.162Z" fill="black"/>
<path fill-rule="evenodd" clip-rule="evenodd" d="M68.5546 180.082L58.6951 174.376V332.867L68.5546 338.573V180.082Z" fill="#9696FE"/>
<path fill-rule="evenodd" clip-rule="evenodd" d="M69.1876 180.082C69.1876 179.856 69.0669 179.646 68.8711 179.532L59.0115 173.826C58.8157 173.712 58.5743 173.712 58.3785 173.826C58.1827 173.94 58.062 174.148 58.062 174.376V332.865C58.062 333.091 58.1827 333.301 58.3785 333.415L68.2381 339.121C68.4339 339.235 68.6753 339.235 68.8711 339.121C69.0669 339.007 69.1876 338.799 69.1876 338.571V180.082ZM59.328 332.5L67.9238 337.473V180.447L59.328 175.474V332.5Z" fill="black"/>
<path fill-rule="evenodd" clip-rule="evenodd" d="M332.581 7.01116L68.5547 159.795V180.082L332.581 27.2981V7.01116Z" fill="#9696FE"/>
<path fill-rule="evenodd" clip-rule="evenodd" d="M333.214 7.01116C333.214 6.78521 333.093 6.57525 332.897 6.46113C332.702 6.34702 332.46 6.34702 332.264 6.46113L68.2403 159.247C68.0445 159.361 67.9238 159.569 67.9238 159.797V180.084C67.9238 180.31 68.0445 180.52 68.2403 180.634C68.4362 180.748 68.6775 180.748 68.8734 180.634L332.897 27.8459C333.093 27.7318 333.214 27.5241 333.214 27.2959V7.01116ZM69.1876 160.162V178.984L331.948 26.9307V8.10892L69.1876 160.162Z" fill="black"/>
<path fill-rule="evenodd" clip-rule="evenodd" d="M77.7812 159.528C79.8487 158.332 81.5292 159.347 81.5292 161.796C81.5292 164.245 79.8487 167.205 77.7812 168.403C75.7137 169.599 74.0332 168.584 74.0332 166.135C74.0332 163.686 75.7114 160.726 77.7812 159.528Z" fill="black"/>
<path fill-rule="evenodd" clip-rule="evenodd" d="M88.2761 153.454C90.3436 152.259 92.0241 153.274 92.0241 155.723C92.0241 158.172 90.3436 161.132 88.2761 162.33C86.2085 163.526 84.5281 162.51 84.5281 160.062C84.5281 157.613 86.2085 154.653 88.2761 153.454Z" fill="black"/>
<path fill-rule="evenodd" clip-rule="evenodd" d="M98.7685 147.384C100.836 146.188 102.517 147.203 102.517 149.652C102.517 152.101 100.836 155.061 98.7685 156.259C96.701 157.455 95.0205 156.44 95.0205 153.991C95.0205 151.542 96.701 148.582 98.7685 147.384Z" fill="black"/>
<path fill-rule="evenodd" clip-rule="evenodd" d="M68.5546 159.795L58.6951 154.089V174.376L68.5546 180.082V159.795Z" fill="black"/>
<path fill-rule="evenodd" clip-rule="evenodd" d="M69.1876 159.795C69.1876 159.569 69.0669 159.359 68.8711 159.245L59.0115 153.539C58.8157 153.425 58.5743 153.425 58.3785 153.539C58.1827 153.653 58.062 153.861 58.062 154.089V174.376C58.062 174.602 58.1827 174.812 58.3785 174.926L68.2381 180.632C68.4339 180.746 68.6753 180.746 68.8711 180.632C69.0669 180.518 69.1876 180.31 69.1876 180.082V159.795ZM59.328 174.011L67.9238 178.984V160.162L59.328 155.189V174.011Z" fill="black"/>
<path fill-rule="evenodd" clip-rule="evenodd" d="M322.721 1.30552L58.6951 154.089L68.5546 159.795L332.581 7.01116L322.721 1.30552Z" fill="black"/>
<path fill-rule="evenodd" clip-rule="evenodd" d="M323.036 0.755491C322.84 0.641378 322.599 0.641378 322.403 0.755491L58.3785 153.541C58.1827 153.655 58.062 153.863 58.062 154.091C58.062 154.319 58.1827 154.527 58.3785 154.641L68.2381 160.347C68.4339 160.461 68.6753 160.461 68.8711 160.347L332.898 7.5589C333.093 7.44479 333.214 7.2371 333.214 7.00888C333.214 6.78065 333.093 6.57297 332.898 6.45885L323.036 0.755491ZM59.9611 154.089L68.5568 159.062L331.315 7.01116L322.719 2.03812L59.9611 154.089Z" fill="black"/>
<path fill-rule="evenodd" clip-rule="evenodd" d="M204.402 125.561L84.988 194.663V242.844L204.402 173.741V125.561Z" fill="black"/>
<path fill-rule="evenodd" clip-rule="evenodd" d="M204.402 190.226L84.988 259.326V307.507L204.402 238.407V190.226Z" fill="black"/>
<path fill-rule="evenodd" clip-rule="evenodd" d="M212.062 127.469L90.4666 197.833V246.002L212.062 175.638V127.469Z" fill="#F9FAF9"/>
<path fill-rule="evenodd" clip-rule="evenodd" d="M212.695 127.469C212.695 127.243 212.575 127.033 212.379 126.919C212.183 126.805 211.942 126.805 211.746 126.919L90.15 197.283C89.9542 197.397 89.8335 197.605 89.8335 197.833V246.005C89.8335 246.231 89.9542 246.44 90.15 246.555C90.3458 246.669 90.5872 246.669 90.783 246.555L212.379 176.19C212.575 176.076 212.695 175.869 212.695 175.64V127.471V127.469ZM91.0995 198.198V244.905L211.429 175.273V128.566L91.0995 198.198Z" fill="black"/>
<path fill-rule="evenodd" clip-rule="evenodd" d="M212.062 192.132L90.4666 262.496V310.668L212.062 240.304V192.132Z" fill="#F9FAF9"/>
<path fill-rule="evenodd" clip-rule="evenodd" d="M212.695 192.132C212.695 191.906 212.575 191.696 212.379 191.582C212.183 191.468 211.942 191.468 211.746 191.582L90.15 261.946C89.9542 262.06 89.8335 262.268 89.8335 262.496V310.668C89.8335 310.894 89.9542 311.104 90.15 311.218C90.3458 311.332 90.5872 311.332 90.783 311.218L212.379 240.854C212.575 240.739 212.695 240.532 212.695 240.304V192.134V192.132ZM91.0995 262.864V309.57L211.429 239.938V193.232L91.0995 262.864Z" fill="black"/>
<path fill-rule="evenodd" clip-rule="evenodd" d="M349.014 69.7732L235.078 135.705V267.579L349.014 201.647V69.7732Z" fill="#9696FE"/>
<path fill-rule="evenodd" clip-rule="evenodd" d="M349.645 69.7732C349.645 69.5473 349.524 69.3373 349.328 69.2232C349.133 69.1091 348.891 69.1091 348.695 69.2232L234.76 135.155C234.564 135.269 234.443 135.477 234.443 135.705V267.579C234.443 267.805 234.564 268.015 234.76 268.129C234.955 268.243 235.197 268.243 235.393 268.129L349.328 202.197C349.524 202.083 349.645 201.875 349.645 201.647V69.7732ZM235.709 136.071V266.481L348.379 201.281V70.871L235.709 136.071Z" fill="black"/>
<path fill-rule="evenodd" clip-rule="evenodd" d="M352.3 76.1111L238.364 142.043V269.48L352.3 203.548V76.1111Z" fill="#9696FE"/>
<path fill-rule="evenodd" clip-rule="evenodd" d="M352.933 76.1111C352.933 75.8851 352.812 75.6752 352.617 75.561C352.421 75.4469 352.179 75.4469 351.984 75.561L238.048 141.493C237.852 141.607 237.731 141.815 237.731 142.043V269.48C237.731 269.706 237.852 269.916 238.048 270.03C238.244 270.144 238.485 270.144 238.681 270.03L352.617 204.098C352.812 203.984 352.933 203.776 352.933 203.548V76.1111ZM238.997 142.408V268.382L351.667 203.183V77.2088L238.997 142.408Z" fill="black"/>
<path fill-rule="evenodd" clip-rule="evenodd" d="M355.586 77.3709L241.65 143.301V271.383L355.586 205.451V77.3709Z" fill="#9696FE"/>
<path fill-rule="evenodd" clip-rule="evenodd" d="M356.219 77.3709C356.219 77.1449 356.098 76.935 355.902 76.8209C355.707 76.7067 355.465 76.7067 355.269 76.8209L241.334 142.753C241.138 142.867 241.017 143.075 241.017 143.303V271.383C241.017 271.609 241.138 271.819 241.334 271.933C241.529 272.047 241.771 272.047 241.967 271.933L355.902 206.001C356.098 205.887 356.219 205.679 356.219 205.451V77.3709ZM242.283 143.668V270.285L354.955 205.086V78.4686L242.283 143.668Z" fill="black"/>
<path fill-rule="evenodd" clip-rule="evenodd" d="M358.874 75.4789L244.938 141.411V273.273L358.874 207.343V75.4789Z" fill="#F9FAF9"/>
<path fill-rule="evenodd" clip-rule="evenodd" d="M359.505 75.4789C359.505 75.2529 359.384 75.043 359.188 74.9289C358.992 74.8147 358.751 74.8147 358.555 74.9289L244.619 140.861C244.423 140.975 244.303 141.183 244.303 141.411V273.275C244.303 273.501 244.423 273.711 244.619 273.825C244.815 273.939 245.056 273.939 245.252 273.825L359.188 207.893C359.384 207.779 359.505 207.571 359.505 207.343V75.4789ZM245.569 141.776V272.175L358.241 206.976V76.5767L245.569 141.776Z" fill="black"/>
<path fill-rule="evenodd" clip-rule="evenodd" d="M244.938 141.411L235.078 135.705V152.147L244.938 157.852V141.411Z" fill="black"/>
<path fill-rule="evenodd" clip-rule="evenodd" d="M245.569 141.411C245.569 141.185 245.448 140.975 245.252 140.861L235.393 135.155C235.197 135.041 234.955 135.041 234.76 135.155C234.564 135.269 234.443 135.477 234.443 135.705V152.147C234.443 152.373 234.564 152.583 234.76 152.697L244.619 158.402C244.815 158.517 245.056 158.517 245.252 158.402C245.448 158.288 245.569 158.081 245.569 157.852V141.411ZM235.709 151.779L244.303 156.752V141.776L235.709 136.803V151.779Z" fill="black"/>
<path fill-rule="evenodd" clip-rule="evenodd" d="M358.874 75.4789L244.938 141.411V157.893L358.874 91.9613V75.4789Z" fill="#9696FE"/>
<path fill-rule="evenodd" clip-rule="evenodd" d="M359.505 75.4789C359.505 75.2529 359.384 75.043 359.188 74.9289C358.992 74.8147 358.751 74.8147 358.555 74.9289L244.619 140.861C244.423 140.975 244.303 141.183 244.303 141.411V157.893C244.303 158.119 244.423 158.329 244.619 158.444C244.815 158.558 245.056 158.558 245.252 158.444L359.188 92.5114C359.384 92.3973 359.505 92.1896 359.505 91.9613V75.4789ZM245.569 141.776V156.796L358.241 91.5962V76.5767L245.569 141.776Z" fill="black"/>
<path fill-rule="evenodd" clip-rule="evenodd" d="M349.014 69.7732L235.078 135.705L244.938 141.411L358.874 75.4789L349.014 69.7732Z" fill="#9696FE"/>
<path fill-rule="evenodd" clip-rule="evenodd" d="M349.328 69.2232C349.133 69.1091 348.891 69.1091 348.695 69.2232L234.76 135.155C234.564 135.269 234.443 135.477 234.443 135.705C234.443 135.934 234.564 136.141 234.76 136.255L244.619 141.961C244.815 142.075 245.056 142.075 245.252 141.961L359.188 76.0289C359.384 75.9148 359.505 75.7071 359.505 75.4789C359.505 75.2507 359.384 75.043 359.188 74.9289L349.328 69.2232ZM236.342 135.705L244.936 140.678L357.608 75.4789L349.012 70.5058L236.342 135.705Z" fill="black"/>
<path fill-rule="evenodd" clip-rule="evenodd" d="M106.9 199.734C111.736 196.934 115.664 199.207 115.664 204.805C115.664 210.404 111.736 217.221 106.9 220.021C102.063 222.821 98.1355 220.548 98.1355 214.95C98.1355 209.352 102.063 202.534 106.9 199.734Z" fill="#9696FE"/>
<path fill-rule="evenodd" clip-rule="evenodd" d="M106.9 264.4C111.736 261.599 115.664 263.872 115.664 269.471C115.664 275.069 111.736 281.886 106.9 284.687C102.063 287.487 98.1355 285.214 98.1355 279.615C98.1355 274.017 102.063 267.2 106.9 264.4Z" fill="#9696FE"/>
<path fill-rule="evenodd" clip-rule="evenodd" d="M194.543 152.822L124.428 193.394V199.734L194.543 159.16V152.822Z" fill="#9696FE"/>
<path fill-rule="evenodd" clip-rule="evenodd" d="M194.543 217.485L124.428 258.059V264.4L194.543 223.826V217.485Z" fill="#9696FE"/>
<path fill-rule="evenodd" clip-rule="evenodd" d="M159.49 184.516L124.428 204.805V211.145L159.49 190.856V184.516Z" fill="#9696FE"/>
<path fill-rule="evenodd" clip-rule="evenodd" d="M168.25 244.113L124.428 269.471V275.811L168.25 250.45V244.113Z" fill="#9696FE"/>
<path fill-rule="evenodd" clip-rule="evenodd" d="M421.319 265.034L409.269 258.062V272.006L421.319 278.979V265.034Z" fill="black"/>
<path fill-rule="evenodd" clip-rule="evenodd" d="M421.952 265.034C421.952 264.808 421.832 264.598 421.636 264.484L409.586 257.512C409.39 257.398 409.149 257.398 408.953 257.512C408.757 257.626 408.636 257.834 408.636 258.062V272.009C408.636 272.235 408.757 272.445 408.953 272.559L421.003 279.531C421.199 279.645 421.44 279.645 421.636 279.531C421.832 279.417 421.952 279.209 421.952 278.981V265.034ZM409.902 271.641L420.686 277.883V265.401L409.902 259.16V271.641Z" fill="black"/>
<path fill-rule="evenodd" clip-rule="evenodd" d="M33.4997 294.194L17.0664 303.705V322.723L33.4997 313.212V294.194Z" fill="#9696FE"/>
<path fill-rule="evenodd" clip-rule="evenodd" d="M433.369 258.062L421.319 265.034V278.979L433.369 272.006V258.062Z" fill="#9696FE"/>
<path fill-rule="evenodd" clip-rule="evenodd" d="M434 258.062C434 257.836 433.879 257.626 433.684 257.512C433.488 257.398 433.246 257.398 433.051 257.512L421.001 264.484C420.805 264.598 420.684 264.806 420.684 265.034V278.981C420.684 279.207 420.805 279.417 421.001 279.531C421.196 279.645 421.438 279.645 421.634 279.531L433.684 272.559C433.879 272.445 434 272.237 434 272.009V258.062ZM421.952 265.399V277.881L432.736 271.639V259.157L421.952 265.399Z" fill="black"/>
<path fill-rule="evenodd" clip-rule="evenodd" d="M421.319 251.087L409.269 258.062L421.319 265.034L433.369 258.062L421.319 251.087Z" fill="#9696FE"/>
<path fill-rule="evenodd" clip-rule="evenodd" d="M421.636 250.539C421.44 250.425 421.199 250.425 421.003 250.539L408.953 257.512C408.757 257.626 408.636 257.834 408.636 258.062C408.636 258.29 408.757 258.498 408.953 258.612L421.003 265.584C421.199 265.698 421.44 265.698 421.636 265.584L433.686 258.612C433.882 258.498 434.002 258.29 434.002 258.062C434.002 257.834 433.882 257.626 433.686 257.512L421.636 250.539ZM410.533 258.062L421.317 264.304L432.101 258.062L421.317 251.822L410.533 258.062Z" fill="black"/>
<path fill-rule="evenodd" clip-rule="evenodd" d="M318.338 30.4682L327.102 15.2524L318.338 30.4682ZM318.887 30.7832L327.651 15.5673C327.826 15.2638 327.722 14.8758 327.419 14.7024C327.116 14.5266 326.729 14.6316 326.556 14.9352L317.792 30.151C317.616 30.4545 317.721 30.8425 318.024 31.0159C318.327 31.1917 318.714 31.0867 318.887 30.7832Z" fill="black"/>
<path fill-rule="evenodd" clip-rule="evenodd" d="M318.338 259.961L265.752 290.39L338.057 332.233L390.643 301.801L318.338 259.961Z" fill="#9696FE"/>
<path fill-rule="evenodd" clip-rule="evenodd" d="M318.655 259.413C318.459 259.299 318.218 259.299 318.022 259.413L265.436 289.842C265.24 289.956 265.119 290.164 265.119 290.392C265.119 290.62 265.24 290.828 265.436 290.942L337.741 332.783C337.937 332.897 338.178 332.897 338.374 332.783L390.96 302.354C391.155 302.239 391.276 302.032 391.276 301.803C391.276 301.575 391.155 301.368 390.96 301.253L318.655 259.413ZM267.018 290.39L338.06 331.5L389.379 301.801L318.338 260.691L267.018 290.39Z" fill="black"/>
<path fill-rule="evenodd" clip-rule="evenodd" d="M343.536 264.4L290.95 294.829L363.255 336.67L415.841 306.24L343.536 264.4Z" fill="#F9FAF9"/>
<path fill-rule="evenodd" clip-rule="evenodd" d="M343.852 263.85C343.656 263.735 343.415 263.735 343.219 263.85L290.633 294.279C290.438 294.393 290.317 294.601 290.317 294.829C290.317 295.057 290.438 295.265 290.633 295.379L362.938 337.22C363.134 337.334 363.375 337.334 363.571 337.22L416.157 306.79C416.353 306.676 416.474 306.468 416.474 306.24C416.474 306.012 416.353 305.804 416.157 305.69L343.852 263.85ZM292.216 294.829L363.257 335.939L414.577 306.24L343.536 265.13L292.216 294.829Z" fill="black"/>
<path fill-rule="evenodd" clip-rule="evenodd" d="M319.395 275.831L327.102 271.372L332.576 274.54L308.474 288.487L303 285.319L311.803 280.225C310.211 278.997 310.382 277.244 312.311 276.126C314.242 275.01 317.27 274.912 319.392 275.831H319.395Z" fill="black"/>
<path fill-rule="evenodd" clip-rule="evenodd" d="M319.344 275.128L326.786 270.822C326.982 270.708 327.223 270.708 327.419 270.822L332.893 273.99C333.089 274.104 333.209 274.311 333.209 274.54C333.209 274.768 333.089 274.976 332.893 275.09L308.79 289.037C308.595 289.151 308.353 289.151 308.157 289.037L302.683 285.869C302.488 285.755 302.367 285.547 302.367 285.319C302.367 285.091 302.488 284.883 302.683 284.769L310.76 280.095C310.234 279.456 310.029 278.748 310.109 278.059C310.214 277.164 310.817 276.258 311.996 275.576C313.991 274.421 317.074 274.266 319.344 275.126V275.128ZM327.102 272.104L319.711 276.381C319.538 276.482 319.329 276.493 319.144 276.413C317.19 275.567 314.406 275.647 312.63 276.676C311.878 277.109 311.432 277.639 311.366 278.207C311.304 278.746 311.605 279.271 312.19 279.723C312.356 279.853 312.45 280.056 312.436 280.266C312.422 280.476 312.304 280.668 312.122 280.773L304.268 285.319L308.476 287.754L331.313 274.54L327.105 272.104H327.102Z" fill="black"/>
<path fill-rule="evenodd" clip-rule="evenodd" d="M328.198 285.953C334.849 282.105 345.649 282.105 352.3 285.953C358.951 289.801 358.951 296.052 352.3 299.9C345.649 303.748 334.849 303.748 328.198 299.9C321.547 296.052 321.547 289.801 328.198 285.953Z" fill="#9696FE"/>
<path fill-rule="evenodd" clip-rule="evenodd" d="M327.102 25.3947L318.338 20.3236L327.102 25.3947ZM327.419 24.847L318.655 19.7758C318.352 19.6001 317.965 19.7051 317.792 20.0086C317.616 20.3122 317.721 20.7001 318.024 20.8736L326.788 25.9448C327.091 26.1205 327.478 26.0155 327.651 25.712C327.826 25.4084 327.722 25.0205 327.419 24.847Z" fill="black"/>
<path fill-rule="evenodd" clip-rule="evenodd" d="M271.231 187.056L253.702 197.199V217.486L271.231 207.343V187.056Z" fill="black"/>
<path fill-rule="evenodd" clip-rule="evenodd" d="M271.231 217.485L253.702 227.628V247.915L271.231 237.772V217.485Z" fill="black"/>
<path fill-rule="evenodd" clip-rule="evenodd" d="M297.524 141.411L279.995 151.553V171.84L297.524 161.698V141.411Z" fill="black"/>
<path fill-rule="evenodd" clip-rule="evenodd" d="M167.159 325.89L139.771 310.04V341.738L167.159 357.589V325.89Z" fill="black"/>
<path fill-rule="evenodd" clip-rule="evenodd" d="M167.792 325.89C167.792 325.664 167.671 325.455 167.476 325.34L140.087 309.492C139.892 309.378 139.65 309.378 139.454 309.492C139.259 309.607 139.138 309.814 139.138 310.042V341.741C139.138 341.967 139.259 342.177 139.454 342.291L166.843 358.139C167.038 358.253 167.28 358.253 167.476 358.139C167.671 358.025 167.792 357.817 167.792 357.589V325.89ZM140.402 341.373L166.526 356.491V326.256L140.402 311.138V341.371V341.373Z" fill="black"/>
<path fill-rule="evenodd" clip-rule="evenodd" d="M228.509 290.388L167.168 325.886V357.582L228.509 322.086V290.388Z" fill="#9696FE"/>
<path fill-rule="evenodd" clip-rule="evenodd" d="M229.142 290.388C229.142 290.162 229.021 289.952 228.826 289.838C228.63 289.724 228.388 289.724 228.193 289.838L166.852 325.334C166.656 325.448 166.535 325.655 166.535 325.884V357.582C166.535 357.808 166.656 358.018 166.852 358.132C167.047 358.246 167.289 358.246 167.485 358.132L228.826 322.636C229.021 322.522 229.142 322.314 229.142 322.086V290.388ZM167.801 326.251V356.484L227.876 321.721V291.488L167.801 326.253V326.251Z" fill="black"/>
<path fill-rule="evenodd" clip-rule="evenodd" d="M201.121 274.542L139.776 310.04L167.162 325.888L228.507 290.39L201.121 274.542Z" fill="#9696FE"/>
<path fill-rule="evenodd" clip-rule="evenodd" d="M201.438 273.992C201.242 273.878 201 273.878 200.805 273.992L139.459 309.49C139.263 309.604 139.143 309.812 139.143 310.04C139.143 310.268 139.263 310.476 139.459 310.59L166.845 326.438C167.041 326.552 167.282 326.552 167.478 326.438L228.823 290.94C229.019 290.826 229.14 290.618 229.14 290.39C229.14 290.162 229.019 289.954 228.823 289.84L201.438 273.992ZM141.039 310.04L167.161 325.156L227.241 290.388L201.119 275.272L141.039 310.04Z" fill="black"/>
<path fill-rule="evenodd" clip-rule="evenodd" d="M212.078 346.812L193.454 336.035V357.589L212.078 368.368V346.812Z" fill="black"/>
<path fill-rule="evenodd" clip-rule="evenodd" d="M212.711 346.812C212.711 346.586 212.59 346.376 212.395 346.262L193.771 335.485C193.575 335.371 193.334 335.371 193.138 335.485C192.942 335.599 192.821 335.807 192.821 336.035V357.589C192.821 357.815 192.942 358.025 193.138 358.139L211.762 368.916C211.957 369.03 212.199 369.03 212.395 368.916C212.59 368.801 212.711 368.594 212.711 368.366V346.812ZM194.087 357.224L211.447 367.27V347.179L194.087 337.133V357.224Z" fill="black"/>
<path fill-rule="evenodd" clip-rule="evenodd" d="M230.702 336.035L212.078 346.812V368.368L230.702 357.589V336.035Z" fill="#9696FE"/>
<path fill-rule="evenodd" clip-rule="evenodd" d="M231.335 336.035C231.335 335.809 231.215 335.599 231.019 335.485C230.823 335.371 230.581 335.371 230.386 335.485L211.762 346.262C211.566 346.376 211.445 346.584 211.445 346.812V368.366C211.445 368.591 211.566 368.801 211.762 368.916C211.958 369.03 212.199 369.03 212.395 368.916L231.019 358.139C231.215 358.025 231.335 357.817 231.335 357.589V336.035ZM212.711 347.179V367.27L230.071 357.224V337.133L212.711 347.179Z" fill="black"/>
<path fill-rule="evenodd" clip-rule="evenodd" d="M212.078 325.258L193.454 336.035L212.078 346.812L230.702 336.035L212.078 325.258Z" fill="#9696FE"/>
<path fill-rule="evenodd" clip-rule="evenodd" d="M212.395 324.708C212.199 324.594 211.957 324.594 211.762 324.708L193.138 335.485C192.942 335.599 192.821 335.807 192.821 336.035C192.821 336.263 192.942 336.471 193.138 336.585L211.762 347.362C211.957 347.476 212.199 347.476 212.395 347.362L231.019 336.585C231.214 336.471 231.335 336.263 231.335 336.035C231.335 335.807 231.214 335.599 231.019 335.485L212.395 324.708ZM194.718 336.035L212.078 346.079L229.438 336.035L212.078 325.989L194.718 336.035Z" fill="black"/>
<path fill-rule="evenodd" clip-rule="evenodd" d="M297.524 171.84L279.995 181.983V202.27L297.524 192.127V171.84Z" fill="#8291EC"/>
<path fill-rule="evenodd" clip-rule="evenodd" d="M297.524 202.27L279.995 212.414V232.701L297.524 222.557V202.27Z" fill="black"/>
<path fill-rule="evenodd" clip-rule="evenodd" d="M323.817 126.195L306.288 136.338V156.625L323.817 146.482V126.195Z" fill="black"/>
<path fill-rule="evenodd" clip-rule="evenodd" d="M323.817 156.625L306.288 166.769V187.056L323.817 176.912V156.625Z" fill="black"/>
<path fill-rule="evenodd" clip-rule="evenodd" d="M323.817 187.056L306.288 197.199V217.486L323.817 207.343V187.056Z" fill="black"/>
<path fill-rule="evenodd" clip-rule="evenodd" d="M350.11 110.979L332.581 121.124V141.411L350.11 131.266V110.979Z" fill="black"/>
<path fill-rule="evenodd" clip-rule="evenodd" d="M350.11 141.411L332.581 151.553V171.84L350.11 161.698V141.411Z" fill="black"/>
<path fill-rule="evenodd" clip-rule="evenodd" d="M266.848 134.436C266.848 127.788 262.184 119.693 256.439 116.368C250.694 113.045 246.031 115.742 246.031 122.391C246.031 124.31 246.427 126.43 247.188 128.578C246.427 126.433 246.031 124.31 246.031 122.391C246.031 115.742 250.694 113.045 256.439 116.368C262.182 119.691 266.848 127.788 266.848 134.436Z" fill="#4F69F6"/>
<path fill-rule="evenodd" clip-rule="evenodd" d="M251.858 114.314C253.34 114.327 255.002 114.804 256.756 115.82C262.674 119.246 267.478 127.587 267.478 134.436C267.478 137.636 266.424 140.042 264.689 141.356C263.721 142.091 262.537 142.5 261.18 142.513H261.023C260.759 142.511 260.49 142.493 260.215 142.461L260.363 141.201L260.492 141.215C260.709 141.235 260.923 141.247 261.13 141.244H261.253C262.282 141.212 263.184 140.904 263.924 140.343C265.397 139.225 266.212 137.152 266.212 134.434C266.212 127.989 261.69 120.138 256.121 116.916C254.602 116.037 253.167 115.596 251.894 115.576H251.792C250.904 115.576 250.095 115.784 249.396 116.188C247.673 117.185 246.664 119.348 246.664 122.388C246.664 124.242 247.049 126.291 247.784 128.363L246.591 128.788C245.806 126.569 245.398 124.374 245.398 122.388C245.398 118.782 246.719 116.272 248.763 115.09C249.626 114.59 250.628 114.321 251.733 114.311H251.856L251.858 114.314Z" fill="black"/>
<path fill-rule="evenodd" clip-rule="evenodd" d="M304.089 112.887C304.089 106.239 299.425 98.144 293.68 94.8187C287.935 91.4935 283.272 94.1934 283.272 100.842C283.272 102.761 283.668 104.881 284.429 107.029C283.668 104.883 283.272 102.761 283.272 100.842C283.272 94.1934 287.935 91.4958 293.68 94.8187C299.425 98.1417 304.089 106.239 304.089 112.887Z" fill="#4F69F6"/>
<path fill-rule="evenodd" clip-rule="evenodd" d="M289.097 92.7647C290.579 92.7784 292.241 93.2554 293.994 94.271C299.912 97.6967 304.719 106.038 304.719 112.887C304.719 116.087 303.665 118.493 301.93 119.807C300.962 120.542 299.778 120.951 298.421 120.964H298.264C298 120.962 297.731 120.944 297.456 120.912L297.604 119.652L297.736 119.666C297.954 119.686 298.166 119.698 298.373 119.695H298.496C299.525 119.663 300.427 119.355 301.167 118.794C302.64 117.676 303.456 115.603 303.456 112.885C303.456 106.44 298.933 98.589 293.364 95.3665C291.845 94.4878 290.41 94.0473 289.138 94.0268H289.035C288.147 94.0268 287.339 94.2345 286.64 94.6384C284.916 95.6358 283.905 97.7994 283.905 100.839C283.905 102.693 284.29 104.742 285.025 106.814L283.832 107.239C283.047 105.02 282.639 102.825 282.639 100.839C282.639 97.2311 283.96 94.7229 286.004 93.5384C286.867 93.0386 287.869 92.7693 288.974 92.7601H289.097V92.7647Z" fill="black"/>
<path fill-rule="evenodd" clip-rule="evenodd" d="M326.328 71.2202C327.811 71.2339 329.473 71.7109 331.226 72.7265C337.144 76.1521 341.951 84.4938 341.951 91.3429C341.951 94.5426 340.897 96.9481 339.162 98.2627C338.194 98.9975 337.01 99.4061 335.653 99.4198H335.496C335.232 99.4175 334.963 99.3992 334.687 99.3673L334.835 98.1075L334.967 98.1212C335.186 98.1417 335.398 98.1531 335.605 98.1508H335.728C336.757 98.1189 337.659 97.8108 338.399 97.2493C339.872 96.131 340.687 94.0587 340.687 91.3406C340.687 84.8955 336.165 77.0445 330.596 73.822C329.077 72.9433 327.642 72.5028 326.369 72.4823H326.267C325.379 72.4823 324.571 72.69 323.872 73.0939C322.148 74.0913 321.139 76.2548 321.139 79.2948C321.139 81.148 321.524 83.1975 322.259 85.2698L321.066 85.6943C320.281 83.4759 319.873 81.2804 319.873 79.2948C319.873 75.6888 321.194 73.1784 323.239 71.9962C324.102 71.4963 325.103 71.227 326.208 71.2179H326.331L326.328 71.2202Z" fill="black"/>
<path fill-rule="evenodd" clip-rule="evenodd" d="M293.498 90.22C294.98 90.2337 296.643 90.7107 298.396 91.7263C304.314 95.1519 309.121 103.494 309.121 110.343C309.121 113.542 308.067 115.948 306.331 117.262C305.364 117.997 304.18 118.406 302.823 118.42H302.665C302.401 118.417 302.133 118.399 301.857 118.367L302.005 117.107L302.137 117.121C302.356 117.141 302.568 117.153 302.775 117.151H302.898C303.927 117.119 304.829 116.811 305.569 116.249C307.042 115.131 307.857 113.059 307.857 110.34C307.857 103.895 303.335 96.0443 297.765 92.8218C296.246 91.9431 294.812 91.5026 293.539 91.4821H293.437C292.549 91.4821 291.74 91.6898 291.041 92.0937C289.317 93.0911 288.309 95.2546 288.309 98.2946C288.309 100.148 288.694 102.197 289.429 104.27L288.236 104.694C287.45 102.473 287.043 100.28 287.043 98.2946C287.043 94.6886 288.363 92.1782 290.408 90.9959C291.271 90.4961 292.273 90.2268 293.377 90.2177H293.5L293.498 90.22Z" fill="black"/>
<path fill-rule="evenodd" clip-rule="evenodd" d="M345.717 88.7959C345.717 82.1476 341.054 74.0525 335.309 70.7272C329.564 67.402 324.9 70.1019 324.9 76.7501C324.9 78.6695 325.297 80.7897 326.057 82.9373C325.297 80.792 324.9 78.6695 324.9 76.7501C324.9 70.1019 329.564 67.4043 335.309 70.7272C341.054 74.0502 345.717 82.1476 345.717 88.7959Z" fill="#4F69F6"/>
<path fill-rule="evenodd" clip-rule="evenodd" d="M330.728 68.6732C332.21 68.6869 333.872 69.1639 335.626 70.1795C341.544 73.6051 346.35 81.9468 346.35 88.7958C346.35 91.9956 345.296 94.4011 343.561 95.7157C342.593 96.4505 341.409 96.8591 340.052 96.8727H339.895C339.631 96.8705 339.362 96.8522 339.087 96.8203L339.235 95.5605L339.364 95.5741C339.583 95.5947 339.795 95.6061 340.002 95.6038H340.125C341.154 95.5719 342.056 95.2638 342.796 94.7023C344.269 93.584 345.084 91.5117 345.084 88.7936C345.084 82.3485 340.562 74.4975 334.993 71.275C333.474 70.3963 332.039 69.9558 330.766 69.9353H330.664C329.776 69.9353 328.968 70.143 328.269 70.5469C326.545 71.5443 325.536 73.7078 325.536 76.7478C325.536 78.601 325.921 80.6505 326.656 82.7228L325.463 83.1473C324.678 80.9289 324.27 78.7334 324.27 76.7478C324.27 73.1396 325.591 70.6314 327.635 69.4469C328.498 68.9471 329.5 68.6777 330.605 68.6686H330.728V68.6732Z" fill="black"/>
<path fill-rule="evenodd" clip-rule="evenodd" d="M271.231 131.901C271.231 125.253 266.568 117.157 260.823 113.832C255.078 110.509 250.414 113.207 250.414 119.855C250.414 121.774 250.811 123.895 251.571 126.042C250.811 123.897 250.414 121.774 250.414 119.855C250.414 113.207 255.078 110.509 260.823 113.832C266.568 117.155 271.231 125.253 271.231 131.901Z" fill="#4F69F6"/>
<path fill-rule="evenodd" clip-rule="evenodd" d="M256.241 111.778C257.724 111.792 259.386 112.269 261.139 113.284C267.057 116.71 271.864 125.052 271.864 131.901C271.864 135.101 270.81 137.506 269.075 138.821C268.107 139.556 266.923 139.964 265.566 139.98H265.409C265.144 139.978 264.876 139.959 264.6 139.928L264.748 138.668L264.88 138.681C265.099 138.702 265.311 138.713 265.518 138.711H265.641C266.67 138.679 267.572 138.371 268.312 137.81C269.785 136.691 270.6 134.619 270.6 131.901C270.6 125.456 266.078 117.605 260.508 114.382C258.99 113.504 257.555 113.063 256.282 113.043H256.18C255.292 113.043 254.483 113.25 253.784 113.654C252.061 114.652 251.052 116.815 251.052 119.855C251.052 121.708 251.437 123.758 252.172 125.83L250.979 126.255C250.193 124.036 249.786 121.841 249.786 119.855C249.786 116.249 251.107 113.739 253.151 112.556C254.014 112.057 255.016 111.787 256.121 111.778H256.244H256.241Z" fill="black"/>
<path fill-rule="evenodd" clip-rule="evenodd" d="M374.765 157.581C394.416 146.208 410.371 155.442 410.371 178.185C410.371 200.928 394.416 228.625 374.765 239.995C355.114 251.368 339.159 242.134 339.159 219.391C339.159 196.648 355.114 168.951 374.765 157.581Z" fill="#9696FE"/>
<path fill-rule="evenodd" clip-rule="evenodd" d="M374.449 157.031C354.623 168.504 338.529 196.445 338.529 219.391C338.529 231.047 342.673 239.213 349.279 243.035C355.884 246.858 365.013 246.372 375.082 240.543C394.908 229.07 411.002 201.129 411.002 178.183C411.002 166.527 406.858 158.361 400.252 154.539C393.647 150.716 384.518 151.202 374.449 157.028V157.031ZM375.082 158.129C384.664 152.585 393.337 152.001 399.622 155.639C405.906 159.274 409.738 167.096 409.738 178.185C409.738 200.727 393.927 228.178 374.449 239.448C364.867 244.991 356.194 245.576 349.909 241.94C343.625 238.304 339.793 230.483 339.793 219.393C339.793 196.852 355.604 169.403 375.082 158.131V158.129Z" fill="black"/>
<path fill-rule="evenodd" clip-rule="evenodd" d="M380.237 160.746C399.888 149.374 415.843 158.608 415.843 181.351C415.843 204.093 399.888 231.791 380.237 243.161C360.586 254.531 344.631 245.299 344.631 222.557C344.631 199.814 360.586 172.117 380.237 160.746Z" fill="#9696FE"/>
<path fill-rule="evenodd" clip-rule="evenodd" d="M379.921 160.196C360.095 171.669 344 199.611 344 222.557C344 234.212 348.145 242.378 354.75 246.201C361.356 250.024 370.485 249.538 380.554 243.709C400.38 232.236 416.474 204.294 416.474 181.348C416.474 169.693 412.33 161.527 405.724 157.704C399.118 153.881 389.99 154.367 379.921 160.196ZM380.554 161.294C390.135 155.75 398.809 155.166 405.093 158.802C411.378 162.437 415.21 170.259 415.21 181.348C415.21 203.89 399.398 231.339 379.921 242.611C370.339 248.154 361.666 248.739 355.381 245.103C349.096 241.467 345.264 233.646 345.264 222.557C345.264 200.015 361.076 172.566 380.554 161.294Z" fill="black"/>
<path fill-rule="evenodd" clip-rule="evenodd" d="M380.237 167.086C397.294 155.527 410.792 163.348 410.364 184.521C409.97 203.986 396.809 225.67 380.237 236.823C362.856 248.517 349.522 240.253 350.11 219.389C350.661 199.837 363.669 178.313 380.237 167.086Z" fill="#F9FAF9"/>
<path fill-rule="evenodd" clip-rule="evenodd" d="M379.882 166.561C363.155 177.895 350.032 199.631 349.476 219.371C349.174 230.1 352.525 237.558 358.113 240.86C363.71 244.17 371.637 243.373 380.59 237.348C397.324 226.087 410.599 204.187 410.997 184.532C411.218 173.646 407.782 166.224 402.174 162.978C396.556 159.726 388.671 160.605 379.884 166.559L379.882 166.561ZM380.59 167.611C388.86 162.008 396.251 161.016 401.541 164.078C406.839 167.146 409.938 174.221 409.731 184.509C409.342 203.787 396.297 225.252 379.884 236.298C371.457 241.967 364.024 242.887 358.758 239.772C353.479 236.65 350.458 229.545 350.742 219.409C351.289 200.044 364.184 178.735 380.592 167.616L380.59 167.611Z" fill="black"/>
<path fill-rule="evenodd" clip-rule="evenodd" d="M380.237 172.158V179.132V172.158ZM379.604 172.158V179.132C379.604 179.481 379.886 179.767 380.237 179.767C380.588 179.767 380.87 179.484 380.87 179.132V172.158C380.87 171.808 380.588 171.523 380.237 171.523C379.886 171.523 379.604 171.806 379.604 172.158Z" fill="black"/>
<path fill-rule="evenodd" clip-rule="evenodd" d="M380.237 224.775V231.75V224.775ZM379.604 224.775V231.75C379.604 232.099 379.886 232.384 380.237 232.384C380.588 232.384 380.87 232.101 380.87 231.75V224.775C380.87 224.426 380.588 224.141 380.237 224.141C379.886 224.141 379.604 224.424 379.604 224.775Z" fill="black"/>
<path fill-rule="evenodd" clip-rule="evenodd" d="M405.981 187.056L399.956 190.543L405.981 187.056ZM405.665 186.506L399.64 189.993C399.337 190.169 399.234 190.557 399.407 190.858C399.583 191.162 399.97 191.265 400.27 191.091L406.295 187.604C406.598 187.428 406.701 187.04 406.528 186.739C406.352 186.435 405.965 186.333 405.665 186.506Z" fill="black"/>
<path fill-rule="evenodd" clip-rule="evenodd" d="M360.516 213.364L354.491 216.851L360.516 213.364ZM360.199 212.816L354.174 216.303C353.871 216.479 353.769 216.867 353.942 217.168C354.117 217.472 354.504 217.575 354.805 217.401L360.83 213.914C361.133 213.738 361.235 213.35 361.062 213.049C360.889 212.748 360.5 212.643 360.199 212.816Z" fill="black"/>
<path fill-rule="evenodd" clip-rule="evenodd" d="M402.531 174.152L399.685 177.701L402.531 174.152ZM402.039 173.755L399.193 177.304C398.975 177.576 399.018 177.975 399.289 178.196C399.56 178.416 399.958 178.372 400.179 178.098L403.025 174.549C403.244 174.278 403.201 173.878 402.93 173.657C402.659 173.438 402.26 173.481 402.039 173.753V173.755Z" fill="black"/>
<path fill-rule="evenodd" clip-rule="evenodd" d="M360.787 226.204L357.941 229.753L360.787 226.204ZM360.293 225.807L357.446 229.356C357.228 229.627 357.271 230.026 357.544 230.248C357.815 230.467 358.214 230.424 358.435 230.152L361.281 226.603C361.5 226.332 361.456 225.932 361.183 225.711C360.912 225.492 360.514 225.535 360.293 225.807Z" fill="black"/>
<path fill-rule="evenodd" clip-rule="evenodd" d="M393.109 168.7L391.465 172.945L393.109 168.7ZM392.519 168.472L390.875 172.717C390.75 173.043 390.912 173.411 391.237 173.536C391.563 173.664 391.93 173.5 392.055 173.175L393.699 168.93C393.824 168.604 393.662 168.237 393.339 168.111C393.014 167.986 392.647 168.148 392.522 168.472H392.519Z" fill="black"/>
<path fill-rule="evenodd" clip-rule="evenodd" d="M369.007 230.962L367.363 235.207L369.007 230.962ZM368.417 230.732L366.773 234.977C366.648 235.303 366.809 235.671 367.133 235.796C367.458 235.922 367.825 235.76 367.95 235.435L369.594 231.19C369.719 230.864 369.558 230.497 369.232 230.371C368.906 230.243 368.54 230.408 368.415 230.732H368.417Z" fill="black"/>
<path fill-rule="evenodd" clip-rule="evenodd" d="M367.362 183.599L369.007 185.942L367.362 183.599ZM366.846 183.964L368.49 186.308C368.69 186.593 369.086 186.664 369.371 186.463C369.655 186.262 369.726 185.865 369.526 185.58L367.882 183.236C367.681 182.95 367.285 182.88 367 183.08C366.716 183.281 366.645 183.678 366.848 183.964H366.846Z" fill="black"/>
<path fill-rule="evenodd" clip-rule="evenodd" d="M391.465 217.965L393.109 220.309L391.465 217.965ZM390.948 218.33L392.592 220.674C392.792 220.959 393.189 221.03 393.473 220.827C393.758 220.626 393.828 220.229 393.626 219.943L391.982 217.6C391.781 217.314 391.385 217.244 391.101 217.447C390.816 217.648 390.745 218.045 390.948 218.33Z" fill="black"/>
<path fill-rule="evenodd" clip-rule="evenodd" d="M357.94 199.958L360.786 200.213L357.94 199.958ZM357.883 200.59L360.729 200.846C361.078 200.878 361.385 200.62 361.415 200.27C361.447 199.921 361.189 199.613 360.841 199.583L357.995 199.328C357.646 199.296 357.339 199.554 357.309 199.903C357.277 200.252 357.535 200.56 357.883 200.59Z" fill="black"/>
<path fill-rule="evenodd" clip-rule="evenodd" d="M399.685 203.694L402.532 203.949L399.685 203.694ZM399.631 204.326L402.477 204.582C402.825 204.614 403.133 204.356 403.162 204.006C403.194 203.657 402.937 203.349 402.589 203.32L399.742 203.064C399.394 203.032 399.086 203.29 399.057 203.639C399.025 203.988 399.282 204.296 399.631 204.326Z" fill="black"/>
<path fill-rule="evenodd" clip-rule="evenodd" d="M380.237 201.952L372.971 191.593L380.237 201.952ZM380.754 201.59L373.488 191.23C373.288 190.945 372.892 190.874 372.607 191.075C372.322 191.276 372.252 191.673 372.454 191.958L379.72 202.318C379.921 202.603 380.317 202.674 380.602 202.471C380.886 202.27 380.957 201.873 380.754 201.587V201.59Z" fill="black"/>
<path fill-rule="evenodd" clip-rule="evenodd" d="M380.237 201.952L389.951 189.841L380.237 201.952ZM380.729 202.35L390.443 190.238C390.661 189.964 390.618 189.564 390.347 189.345C390.074 189.126 389.677 189.17 389.457 189.443L379.743 201.555C379.524 201.827 379.567 202.226 379.841 202.448C380.112 202.667 380.51 202.623 380.731 202.352L380.729 202.35Z" fill="black"/>
<path fill-rule="evenodd" clip-rule="evenodd" d="M379.92 149.335V158.845C379.92 159.021 380.062 159.162 380.237 159.162C380.412 159.162 380.553 159.021 380.553 158.845V149.335C380.553 149.159 380.412 149.018 380.237 149.018C380.062 149.018 379.92 149.159 379.92 149.335Z" fill="#8291EC"/>
<path fill-rule="evenodd" clip-rule="evenodd" d="M381.466 158.195V158.227C381.46 158.564 381.232 158.902 380.786 159.162C379.879 159.687 378.406 159.687 377.5 159.162C377.038 158.895 376.812 158.544 376.819 158.192V151.238H381.466V158.195Z" fill="#9696FE"/>
<path fill-rule="evenodd" clip-rule="evenodd" d="M381.467 158.227C381.811 158.227 382.091 158.227 382.1 158.24C382.088 158.761 381.79 159.313 381.105 159.71C380.023 160.335 378.268 160.335 377.186 159.71C376.473 159.297 376.177 158.717 376.191 158.19V151.236C376.191 150.887 376.473 150.602 376.824 150.602H381.471C381.82 150.602 382.104 150.885 382.104 151.236V158.192V158.179V158.224H381.471L381.467 158.227ZM380.834 158.215V151.871H377.452V158.19C377.452 158.19 377.452 158.202 377.452 158.206C377.448 158.368 377.605 158.489 377.817 158.612C378.55 159.037 379.739 159.037 380.472 158.612C380.679 158.491 380.831 158.373 380.836 158.215H380.834Z" fill="black"/>
<path fill-rule="evenodd" clip-rule="evenodd" d="M385.715 148.703L373.67 155.673V151.868L385.715 144.898V148.703Z" fill="#9696FE"/>
<path fill-rule="evenodd" clip-rule="evenodd" d="M386.032 149.251C386.228 149.136 386.349 148.929 386.349 148.701V144.896C386.349 144.67 386.228 144.46 386.032 144.346C385.836 144.232 385.595 144.232 385.399 144.346L373.354 151.316C373.158 151.43 373.037 151.638 373.037 151.866V155.671C373.037 155.897 373.158 156.106 373.354 156.221C373.549 156.335 373.791 156.335 373.987 156.221L386.032 149.251ZM374.303 152.236V154.575L385.085 148.335V145.996L374.303 152.236Z" fill="black"/>
<path fill-rule="evenodd" clip-rule="evenodd" d="M373.668 151.871L370.38 149.969V153.772L373.668 155.675V151.871Z" fill="#9696FE"/>
<path fill-rule="evenodd" clip-rule="evenodd" d="M374.301 151.871C374.301 151.645 374.18 151.435 373.984 151.321L370.699 149.419C370.503 149.305 370.261 149.305 370.066 149.419C369.87 149.534 369.749 149.741 369.749 149.969V153.774C369.749 154 369.87 154.21 370.066 154.324L373.351 156.225C373.547 156.339 373.789 156.339 373.984 156.225C374.18 156.111 374.301 155.903 374.301 155.675V151.871ZM371.013 153.407L373.035 154.577V152.238L371.013 151.067V153.407Z" fill="black"/>
<path fill-rule="evenodd" clip-rule="evenodd" d="M382.432 142.995L370.38 149.969L373.668 151.871L385.718 144.896L382.432 142.995Z" fill="#9696FE"/>
<path fill-rule="evenodd" clip-rule="evenodd" d="M382.748 142.447C382.553 142.333 382.311 142.333 382.115 142.447L370.063 149.422C369.867 149.536 369.747 149.744 369.747 149.972C369.747 150.2 369.867 150.408 370.063 150.522L373.349 152.423C373.545 152.537 373.786 152.537 373.982 152.423L386.032 145.448C386.228 145.334 386.348 145.127 386.348 144.898C386.348 144.67 386.228 144.462 386.032 144.348L382.746 142.447H382.748ZM371.646 149.969L373.668 151.14L384.454 144.898L382.432 143.728L371.646 149.969Z" fill="black"/>
<path fill-rule="evenodd" clip-rule="evenodd" d="M378.593 294.829L343.536 315.116L346.821 317.017L381.879 296.73L378.593 294.829Z" fill="#8291EC"/>
<path fill-rule="evenodd" clip-rule="evenodd" d="M379.688 303.07L357.779 315.75L361.065 317.652L382.974 304.971L379.688 303.07Z" fill="#8291EC"/>
</g>
<defs>
<clipPath id="clip0_54_2">
<rect width="434" height="368.329" fill="white" transform="translate(0 0.671051)"/>
</clipPath>
</defs>
</svg>
